<mxfile host="app.diagrams.net" agent="Mozilla/5.0 (Windows NT 10.0; Win64; x64) AppleWebKit/537.36 (KHTML, like Gecko) Chrome/130.0.0.0 Safari/537.36 Edg/130.0.0.0" version="24.8.4">
  <diagram name="PÃ¡gina-1" id="8iYo4jJK8mS4WUOny4I4">
    <mxGraphModel dx="1968" dy="1698" grid="1" gridSize="10" guides="1" tooltips="1" connect="1" arrows="1" fold="1" page="1" pageScale="1" pageWidth="827" pageHeight="1169" math="0" shadow="0">
      <root>
        <mxCell id="0" />
        <mxCell id="1" parent="0" />
        <mxCell id="4v4AGWWlLgVqddMLJCEB-3" value="" style="edgeStyle=orthogonalEdgeStyle;rounded=0;orthogonalLoop=1;jettySize=auto;html=1;" parent="1" source="4v4AGWWlLgVqddMLJCEB-1" target="4v4AGWWlLgVqddMLJCEB-2" edge="1">
          <mxGeometry relative="1" as="geometry" />
        </mxCell>
        <mxCell id="4v4AGWWlLgVqddMLJCEB-1" value="Inicio" style="ellipse;whiteSpace=wrap;html=1;fillColor=#dae8fc;strokeColor=#6c8ebf;" parent="1" vertex="1">
          <mxGeometry x="354" y="-30" width="120" height="80" as="geometry" />
        </mxCell>
        <mxCell id="4v4AGWWlLgVqddMLJCEB-64" value="" style="edgeStyle=orthogonalEdgeStyle;rounded=0;orthogonalLoop=1;jettySize=auto;html=1;" parent="1" source="4v4AGWWlLgVqddMLJCEB-2" target="4v4AGWWlLgVqddMLJCEB-63" edge="1">
          <mxGeometry relative="1" as="geometry" />
        </mxCell>
        <mxCell id="4v4AGWWlLgVqddMLJCEB-70" style="edgeStyle=orthogonalEdgeStyle;rounded=0;orthogonalLoop=1;jettySize=auto;html=1;" parent="1" source="4v4AGWWlLgVqddMLJCEB-2" target="4v4AGWWlLgVqddMLJCEB-69" edge="1">
          <mxGeometry relative="1" as="geometry" />
        </mxCell>
        <mxCell id="kTSnjcyp7PbZxTP0yt8h-42" style="edgeStyle=orthogonalEdgeStyle;rounded=0;orthogonalLoop=1;jettySize=auto;html=1;" edge="1" parent="1" source="4v4AGWWlLgVqddMLJCEB-2" target="kTSnjcyp7PbZxTP0yt8h-41">
          <mxGeometry relative="1" as="geometry">
            <Array as="points">
              <mxPoint x="2507" y="210" />
            </Array>
          </mxGeometry>
        </mxCell>
        <mxCell id="4v4AGWWlLgVqddMLJCEB-2" value="Options" style="rhombus;whiteSpace=wrap;html=1;fillColor=#fff2cc;strokeColor=#d6b656;" parent="1" vertex="1">
          <mxGeometry x="310" y="110" width="144" height="140" as="geometry" />
        </mxCell>
        <mxCell id="4v4AGWWlLgVqddMLJCEB-11" value="" style="edgeStyle=orthogonalEdgeStyle;rounded=0;orthogonalLoop=1;jettySize=auto;html=1;" parent="1" source="4v4AGWWlLgVqddMLJCEB-4" target="4v4AGWWlLgVqddMLJCEB-10" edge="1">
          <mxGeometry relative="1" as="geometry" />
        </mxCell>
        <mxCell id="4v4AGWWlLgVqddMLJCEB-16" value="" style="edgeStyle=orthogonalEdgeStyle;rounded=0;orthogonalLoop=1;jettySize=auto;html=1;" parent="1" source="4v4AGWWlLgVqddMLJCEB-4" target="4v4AGWWlLgVqddMLJCEB-15" edge="1">
          <mxGeometry relative="1" as="geometry" />
        </mxCell>
        <mxCell id="4v4AGWWlLgVqddMLJCEB-4" value="Login" style="whiteSpace=wrap;html=1;" parent="1" vertex="1">
          <mxGeometry x="160" y="560" width="120" height="60" as="geometry" />
        </mxCell>
        <mxCell id="4v4AGWWlLgVqddMLJCEB-8" value="writter{&lt;div&gt;email,&lt;/div&gt;&lt;div&gt;passwrord&lt;/div&gt;&lt;div&gt;}&lt;/div&gt;" style="whiteSpace=wrap;html=1;" parent="1" vertex="1">
          <mxGeometry x="-60" y="690" width="120" height="160" as="geometry" />
        </mxCell>
        <mxCell id="4v4AGWWlLgVqddMLJCEB-12" value="" style="edgeStyle=orthogonalEdgeStyle;rounded=0;orthogonalLoop=1;jettySize=auto;html=1;" parent="1" source="4v4AGWWlLgVqddMLJCEB-10" target="4v4AGWWlLgVqddMLJCEB-8" edge="1">
          <mxGeometry relative="1" as="geometry" />
        </mxCell>
        <mxCell id="4v4AGWWlLgVqddMLJCEB-10" value="Register" style="rhombus;whiteSpace=wrap;html=1;" parent="1" vertex="1">
          <mxGeometry x="-40" y="540" width="80" height="80" as="geometry" />
        </mxCell>
        <mxCell id="4v4AGWWlLgVqddMLJCEB-13" value="Reader{&lt;div&gt;email,&lt;/div&gt;&lt;div&gt;passwrord&lt;/div&gt;&lt;div&gt;}&lt;/div&gt;" style="whiteSpace=wrap;html=1;" parent="1" vertex="1">
          <mxGeometry x="-210" y="690" width="120" height="160" as="geometry" />
        </mxCell>
        <mxCell id="4v4AGWWlLgVqddMLJCEB-14" style="edgeStyle=orthogonalEdgeStyle;rounded=0;orthogonalLoop=1;jettySize=auto;html=1;entryX=0.592;entryY=-0.012;entryDx=0;entryDy=0;entryPerimeter=0;" parent="1" source="4v4AGWWlLgVqddMLJCEB-10" target="4v4AGWWlLgVqddMLJCEB-13" edge="1">
          <mxGeometry relative="1" as="geometry" />
        </mxCell>
        <mxCell id="4v4AGWWlLgVqddMLJCEB-18" value="" style="edgeStyle=orthogonalEdgeStyle;rounded=0;orthogonalLoop=1;jettySize=auto;html=1;" parent="1" source="4v4AGWWlLgVqddMLJCEB-15" target="4v4AGWWlLgVqddMLJCEB-17" edge="1">
          <mxGeometry relative="1" as="geometry" />
        </mxCell>
        <mxCell id="4v4AGWWlLgVqddMLJCEB-15" value="request&lt;div&gt;&lt;br&gt;&lt;div&gt;body: {&lt;/div&gt;&lt;div&gt;email,&lt;/div&gt;&lt;div&gt;password&lt;/div&gt;&lt;div&gt;}&lt;br&gt;&lt;div&gt;&lt;br&gt;&lt;/div&gt;&lt;/div&gt;&lt;/div&gt;" style="whiteSpace=wrap;html=1;" parent="1" vertex="1">
          <mxGeometry x="134" y="680" width="176" height="110" as="geometry" />
        </mxCell>
        <mxCell id="4v4AGWWlLgVqddMLJCEB-17" value="response&lt;div&gt;&lt;br&gt;&lt;/div&gt;&lt;div&gt;header{&lt;/div&gt;&lt;div&gt;Authorization:&lt;/div&gt;&lt;div&gt;jwt&lt;/div&gt;&lt;div&gt;},&lt;br&gt;&lt;div&gt;&lt;br&gt;&lt;/div&gt;&lt;div&gt;body:{&lt;/div&gt;&lt;div&gt;id,&lt;/div&gt;&lt;div&gt;name,&lt;/div&gt;&lt;div&gt;avatar&lt;/div&gt;&lt;div&gt;}&lt;/div&gt;&lt;div&gt;&lt;br&gt;&lt;/div&gt;&lt;/div&gt;" style="whiteSpace=wrap;html=1;" parent="1" vertex="1">
          <mxGeometry x="159" y="840" width="141" height="190" as="geometry" />
        </mxCell>
        <mxCell id="4v4AGWWlLgVqddMLJCEB-25" value="functions:&lt;div&gt;&lt;br&gt;&lt;div&gt;traductor,&lt;/div&gt;&lt;/div&gt;&lt;div&gt;mapa,&lt;/div&gt;&lt;div&gt;lista de deseos,&lt;/div&gt;&lt;div&gt;crear historias con pasos y distancia entre ellas&lt;/div&gt;" style="whiteSpace=wrap;html=1;" parent="1" vertex="1">
          <mxGeometry x="370" y="-330" width="120" height="220" as="geometry" />
        </mxCell>
        <mxCell id="4v4AGWWlLgVqddMLJCEB-27" value="User" style="swimlane;fontStyle=0;childLayout=stackLayout;horizontal=1;startSize=30;horizontalStack=0;resizeParent=1;resizeParentMax=0;resizeLast=0;collapsible=1;marginBottom=0;whiteSpace=wrap;html=1;" parent="1" vertex="1">
          <mxGeometry x="1410" y="-460" width="140" height="180" as="geometry" />
        </mxCell>
        <mxCell id="4v4AGWWlLgVqddMLJCEB-28" value="id: PK" style="text;strokeColor=none;fillColor=none;align=left;verticalAlign=middle;spacingLeft=4;spacingRight=4;overflow=hidden;points=[[0,0.5],[1,0.5]];portConstraint=eastwest;rotatable=0;whiteSpace=wrap;html=1;" parent="4v4AGWWlLgVqddMLJCEB-27" vertex="1">
          <mxGeometry y="30" width="140" height="30" as="geometry" />
        </mxCell>
        <mxCell id="4v4AGWWlLgVqddMLJCEB-73" value="name: varchar" style="text;strokeColor=none;fillColor=none;align=left;verticalAlign=middle;spacingLeft=4;spacingRight=4;overflow=hidden;points=[[0,0.5],[1,0.5]];portConstraint=eastwest;rotatable=0;whiteSpace=wrap;html=1;" parent="4v4AGWWlLgVqddMLJCEB-27" vertex="1">
          <mxGeometry y="60" width="140" height="30" as="geometry" />
        </mxCell>
        <mxCell id="4v4AGWWlLgVqddMLJCEB-29" value="email: varchar" style="text;strokeColor=none;fillColor=none;align=left;verticalAlign=middle;spacingLeft=4;spacingRight=4;overflow=hidden;points=[[0,0.5],[1,0.5]];portConstraint=eastwest;rotatable=0;whiteSpace=wrap;html=1;" parent="4v4AGWWlLgVqddMLJCEB-27" vertex="1">
          <mxGeometry y="90" width="140" height="30" as="geometry" />
        </mxCell>
        <mxCell id="4v4AGWWlLgVqddMLJCEB-30" value="password: varchar" style="text;strokeColor=none;fillColor=none;align=left;verticalAlign=middle;spacingLeft=4;spacingRight=4;overflow=hidden;points=[[0,0.5],[1,0.5]];portConstraint=eastwest;rotatable=0;whiteSpace=wrap;html=1;" parent="4v4AGWWlLgVqddMLJCEB-27" vertex="1">
          <mxGeometry y="120" width="140" height="30" as="geometry" />
        </mxCell>
        <mxCell id="4v4AGWWlLgVqddMLJCEB-31" value="avatar: TEXT" style="text;strokeColor=none;fillColor=none;align=left;verticalAlign=middle;spacingLeft=4;spacingRight=4;overflow=hidden;points=[[0,0.5],[1,0.5]];portConstraint=eastwest;rotatable=0;whiteSpace=wrap;html=1;" parent="4v4AGWWlLgVqddMLJCEB-27" vertex="1">
          <mxGeometry y="150" width="140" height="30" as="geometry" />
        </mxCell>
        <mxCell id="4v4AGWWlLgVqddMLJCEB-32" value="Rol" style="swimlane;fontStyle=0;childLayout=stackLayout;horizontal=1;startSize=30;horizontalStack=0;resizeParent=1;resizeParentMax=0;resizeLast=0;collapsible=1;marginBottom=0;whiteSpace=wrap;html=1;" parent="1" vertex="1">
          <mxGeometry x="1190" y="-130" width="140" height="90" as="geometry" />
        </mxCell>
        <mxCell id="4v4AGWWlLgVqddMLJCEB-33" value="id: PK" style="text;strokeColor=none;fillColor=none;align=left;verticalAlign=middle;spacingLeft=4;spacingRight=4;overflow=hidden;points=[[0,0.5],[1,0.5]];portConstraint=eastwest;rotatable=0;whiteSpace=wrap;html=1;" parent="4v4AGWWlLgVqddMLJCEB-32" vertex="1">
          <mxGeometry y="30" width="140" height="30" as="geometry" />
        </mxCell>
        <mxCell id="4v4AGWWlLgVqddMLJCEB-34" value="email: varchar" style="text;strokeColor=none;fillColor=none;align=left;verticalAlign=middle;spacingLeft=4;spacingRight=4;overflow=hidden;points=[[0,0.5],[1,0.5]];portConstraint=eastwest;rotatable=0;whiteSpace=wrap;html=1;" parent="4v4AGWWlLgVqddMLJCEB-32" vertex="1">
          <mxGeometry y="60" width="140" height="30" as="geometry" />
        </mxCell>
        <mxCell id="4v4AGWWlLgVqddMLJCEB-38" value="User_Rol" style="swimlane;fontStyle=0;childLayout=stackLayout;horizontal=1;startSize=30;horizontalStack=0;resizeParent=1;resizeParentMax=0;resizeLast=0;collapsible=1;marginBottom=0;whiteSpace=wrap;html=1;" parent="1" vertex="1">
          <mxGeometry x="1190" y="-240" width="140" height="90" as="geometry" />
        </mxCell>
        <mxCell id="4v4AGWWlLgVqddMLJCEB-39" value="user_Id FK" style="text;strokeColor=none;fillColor=none;align=left;verticalAlign=middle;spacingLeft=4;spacingRight=4;overflow=hidden;points=[[0,0.5],[1,0.5]];portConstraint=eastwest;rotatable=0;whiteSpace=wrap;html=1;" parent="4v4AGWWlLgVqddMLJCEB-38" vertex="1">
          <mxGeometry y="30" width="140" height="30" as="geometry" />
        </mxCell>
        <mxCell id="4v4AGWWlLgVqddMLJCEB-40" value="rolId: FK" style="text;strokeColor=none;fillColor=none;align=left;verticalAlign=middle;spacingLeft=4;spacingRight=4;overflow=hidden;points=[[0,0.5],[1,0.5]];portConstraint=eastwest;rotatable=0;whiteSpace=wrap;html=1;" parent="4v4AGWWlLgVqddMLJCEB-38" vertex="1">
          <mxGeometry y="60" width="140" height="30" as="geometry" />
        </mxCell>
        <mxCell id="4v4AGWWlLgVqddMLJCEB-41" value="Wishlist" style="swimlane;fontStyle=0;childLayout=stackLayout;horizontal=1;startSize=30;horizontalStack=0;resizeParent=1;resizeParentMax=0;resizeLast=0;collapsible=1;marginBottom=0;whiteSpace=wrap;html=1;" parent="1" vertex="1">
          <mxGeometry x="1410" y="-250" width="140" height="120" as="geometry" />
        </mxCell>
        <mxCell id="4v4AGWWlLgVqddMLJCEB-42" value="id: PK" style="text;strokeColor=none;fillColor=none;align=left;verticalAlign=middle;spacingLeft=4;spacingRight=4;overflow=hidden;points=[[0,0.5],[1,0.5]];portConstraint=eastwest;rotatable=0;whiteSpace=wrap;html=1;" parent="4v4AGWWlLgVqddMLJCEB-41" vertex="1">
          <mxGeometry y="30" width="140" height="30" as="geometry" />
        </mxCell>
        <mxCell id="4v4AGWWlLgVqddMLJCEB-43" value="user_Id: FK" style="text;strokeColor=none;fillColor=none;align=left;verticalAlign=middle;spacingLeft=4;spacingRight=4;overflow=hidden;points=[[0,0.5],[1,0.5]];portConstraint=eastwest;rotatable=0;whiteSpace=wrap;html=1;" parent="4v4AGWWlLgVqddMLJCEB-41" vertex="1">
          <mxGeometry y="60" width="140" height="30" as="geometry" />
        </mxCell>
        <mxCell id="4v4AGWWlLgVqddMLJCEB-44" value="history_Id: FK" style="text;strokeColor=none;fillColor=none;align=left;verticalAlign=middle;spacingLeft=4;spacingRight=4;overflow=hidden;points=[[0,0.5],[1,0.5]];portConstraint=eastwest;rotatable=0;whiteSpace=wrap;html=1;" parent="4v4AGWWlLgVqddMLJCEB-41" vertex="1">
          <mxGeometry y="90" width="140" height="30" as="geometry" />
        </mxCell>
        <mxCell id="4v4AGWWlLgVqddMLJCEB-45" value="history" style="swimlane;fontStyle=0;childLayout=stackLayout;horizontal=1;startSize=30;horizontalStack=0;resizeParent=1;resizeParentMax=0;resizeLast=0;collapsible=1;marginBottom=0;whiteSpace=wrap;html=1;" parent="1" vertex="1">
          <mxGeometry x="1630" y="-260" width="190" height="210" as="geometry" />
        </mxCell>
        <mxCell id="4v4AGWWlLgVqddMLJCEB-46" value="id: PK" style="text;strokeColor=none;fillColor=none;align=left;verticalAlign=middle;spacingLeft=4;spacingRight=4;overflow=hidden;points=[[0,0.5],[1,0.5]];portConstraint=eastwest;rotatable=0;whiteSpace=wrap;html=1;" parent="4v4AGWWlLgVqddMLJCEB-45" vertex="1">
          <mxGeometry y="30" width="190" height="30" as="geometry" />
        </mxCell>
        <mxCell id="4v4AGWWlLgVqddMLJCEB-47" value="title: varchar" style="text;strokeColor=none;fillColor=none;align=left;verticalAlign=middle;spacingLeft=4;spacingRight=4;overflow=hidden;points=[[0,0.5],[1,0.5]];portConstraint=eastwest;rotatable=0;whiteSpace=wrap;html=1;" parent="4v4AGWWlLgVqddMLJCEB-45" vertex="1">
          <mxGeometry y="60" width="190" height="30" as="geometry" />
        </mxCell>
        <mxCell id="4v4AGWWlLgVqddMLJCEB-57" value="synopsis: varchar" style="text;strokeColor=none;fillColor=none;align=left;verticalAlign=middle;spacingLeft=4;spacingRight=4;overflow=hidden;points=[[0,0.5],[1,0.5]];portConstraint=eastwest;rotatable=0;whiteSpace=wrap;html=1;" parent="4v4AGWWlLgVqddMLJCEB-45" vertex="1">
          <mxGeometry y="90" width="190" height="30" as="geometry" />
        </mxCell>
        <mxCell id="kTSnjcyp7PbZxTP0yt8h-23" value="publish: boolean default false" style="text;strokeColor=none;fillColor=none;align=left;verticalAlign=middle;spacingLeft=4;spacingRight=4;overflow=hidden;points=[[0,0.5],[1,0.5]];portConstraint=eastwest;rotatable=0;whiteSpace=wrap;html=1;" vertex="1" parent="4v4AGWWlLgVqddMLJCEB-45">
          <mxGeometry y="120" width="190" height="30" as="geometry" />
        </mxCell>
        <mxCell id="4v4AGWWlLgVqddMLJCEB-62" value="creator_user: FK" style="text;strokeColor=none;fillColor=none;align=left;verticalAlign=middle;spacingLeft=4;spacingRight=4;overflow=hidden;points=[[0,0.5],[1,0.5]];portConstraint=eastwest;rotatable=0;whiteSpace=wrap;html=1;" parent="4v4AGWWlLgVqddMLJCEB-45" vertex="1">
          <mxGeometry y="150" width="190" height="30" as="geometry" />
        </mxCell>
        <mxCell id="kTSnjcyp7PbZxTP0yt8h-58" value="&lt;font color=&quot;#ff0000&quot;&gt;img: TEXT&lt;/font&gt;" style="text;strokeColor=none;fillColor=none;align=left;verticalAlign=middle;spacingLeft=4;spacingRight=4;overflow=hidden;points=[[0,0.5],[1,0.5]];portConstraint=eastwest;rotatable=0;whiteSpace=wrap;html=1;" vertex="1" parent="4v4AGWWlLgVqddMLJCEB-45">
          <mxGeometry y="180" width="190" height="30" as="geometry" />
        </mxCell>
        <mxCell id="4v4AGWWlLgVqddMLJCEB-50" value="chapter" style="swimlane;fontStyle=0;childLayout=stackLayout;horizontal=1;startSize=30;horizontalStack=0;resizeParent=1;resizeParentMax=0;resizeLast=0;collapsible=1;marginBottom=0;whiteSpace=wrap;html=1;" parent="1" vertex="1">
          <mxGeometry x="1640" y="-40" width="200" height="240" as="geometry" />
        </mxCell>
        <mxCell id="4v4AGWWlLgVqddMLJCEB-51" value="id: PK" style="text;strokeColor=none;fillColor=none;align=left;verticalAlign=middle;spacingLeft=4;spacingRight=4;overflow=hidden;points=[[0,0.5],[1,0.5]];portConstraint=eastwest;rotatable=0;whiteSpace=wrap;html=1;" parent="4v4AGWWlLgVqddMLJCEB-50" vertex="1">
          <mxGeometry y="30" width="200" height="30" as="geometry" />
        </mxCell>
        <mxCell id="4v4AGWWlLgVqddMLJCEB-52" value="history_id: FK" style="text;strokeColor=none;fillColor=none;align=left;verticalAlign=middle;spacingLeft=4;spacingRight=4;overflow=hidden;points=[[0,0.5],[1,0.5]];portConstraint=eastwest;rotatable=0;whiteSpace=wrap;html=1;" parent="4v4AGWWlLgVqddMLJCEB-50" vertex="1">
          <mxGeometry y="60" width="200" height="30" as="geometry" />
        </mxCell>
        <mxCell id="4v4AGWWlLgVqddMLJCEB-53" value="title: varchar" style="text;strokeColor=none;fillColor=none;align=left;verticalAlign=middle;spacingLeft=4;spacingRight=4;overflow=hidden;points=[[0,0.5],[1,0.5]];portConstraint=eastwest;rotatable=0;whiteSpace=wrap;html=1;" parent="4v4AGWWlLgVqddMLJCEB-50" vertex="1">
          <mxGeometry y="90" width="200" height="30" as="geometry" />
        </mxCell>
        <mxCell id="4v4AGWWlLgVqddMLJCEB-58" value="description: TEXT" style="text;strokeColor=none;fillColor=none;align=left;verticalAlign=middle;spacingLeft=4;spacingRight=4;overflow=hidden;points=[[0,0.5],[1,0.5]];portConstraint=eastwest;rotatable=0;whiteSpace=wrap;html=1;" parent="4v4AGWWlLgVqddMLJCEB-50" vertex="1">
          <mxGeometry y="120" width="200" height="30" as="geometry" />
        </mxCell>
        <mxCell id="4v4AGWWlLgVqddMLJCEB-54" value="latitude: varchar" style="text;strokeColor=none;fillColor=none;align=left;verticalAlign=middle;spacingLeft=4;spacingRight=4;overflow=hidden;points=[[0,0.5],[1,0.5]];portConstraint=eastwest;rotatable=0;whiteSpace=wrap;html=1;" parent="4v4AGWWlLgVqddMLJCEB-50" vertex="1">
          <mxGeometry y="150" width="200" height="30" as="geometry" />
        </mxCell>
        <mxCell id="4v4AGWWlLgVqddMLJCEB-55" value="longitude: varchar" style="text;strokeColor=none;fillColor=none;align=left;verticalAlign=middle;spacingLeft=4;spacingRight=4;overflow=hidden;points=[[0,0.5],[1,0.5]];portConstraint=eastwest;rotatable=0;whiteSpace=wrap;html=1;" parent="4v4AGWWlLgVqddMLJCEB-50" vertex="1">
          <mxGeometry y="180" width="200" height="30" as="geometry" />
        </mxCell>
        <mxCell id="kTSnjcyp7PbZxTP0yt8h-59" value="&lt;font color=&quot;#ff0000&quot;&gt;img: TEXT&lt;/font&gt;" style="text;strokeColor=none;fillColor=none;align=left;verticalAlign=middle;spacingLeft=4;spacingRight=4;overflow=hidden;points=[[0,0.5],[1,0.5]];portConstraint=eastwest;rotatable=0;whiteSpace=wrap;html=1;" vertex="1" parent="4v4AGWWlLgVqddMLJCEB-50">
          <mxGeometry y="210" width="200" height="30" as="geometry" />
        </mxCell>
        <mxCell id="4v4AGWWlLgVqddMLJCEB-56" value="" style="shape=image;verticalLabelPosition=bottom;labelBackgroundColor=default;verticalAlign=top;aspect=fixed;imageAspect=0;image=data:image/png,iVBORw0KGgoAAAANSUhEUgAAArUAAAHrCAYAAADRzGVbAAAAAXNSR0IArs4c6QAAAARnQU1BAACxjwv8YQUAAAAJcEhZcwAADsMAAA7DAcdvqGQAAFFKSURBVHhe7d0H3B1FufjxedNDeg8QQkuAUKR3QQIXEQLSQcSOol4VFe618OcKXBsiYkUFpUlvYkM6QugXRGronRBM7z15//vs2Xkz77yz9ewpc97fN5/N7NSd3T3lyWbPOW3Lli1rVwAAAIDHumVQu3r1arVy5Uq1YsUKFex/mK5atSqqBQAAgG+6TVDb1tam5syZo+bNm6d69eql+vfvHy79+vULUykDAACAn7pFULtmzRo1ffp0NWTIEDV69OgwwAUAAEDraPmgdv78+WrBggVq4403Dq/KAgAAoPW0bFArV2PffvttNXDgQDV27NioFAAAAK2oR5S2FB3QDh8+nIAWAACgG2jJoFY+DCZXaCWoBQAAQOtruaBWPhQm99ByhRYAAKD7KO2e2nfffVddfPHF6s4771SPP/64Gjp0qNpmm23U9ttvr0466SQ1adKksN3uu++uHn300XC9bHLbwZtvvqnGjx9f6ofCJEi+6aab1LRp08L81ltvrY4++ujw2xQAAADQeKVcqT3rrLPU5MmTwx8wOPfcc9Urr7yiXnjhBfXVr341rD/00EPV6aefrtrb29XTTz8dltWCfA+tBJplf8vB9ddfH/5gw2mnnRYusp9SBgAAgOZQ1ZVa+a/+T37yk2rkyJHqvPPOi/0Bg/fee08dc8wx4RXUm2++OfwVr1p49dVXw6uoZX8P7SmnnKLOOOOM8DtuxYwZM9SPf/xjdf7554d5AAAANFZVV2ol2Bs3bpz62c9+lviLXHJ/61133RXlakOupMocavHDCvIzujqgFeuvv75asmRJlCvXN7/5zWit+bjmVsZ8qz1ntTjntToPvp3fMjXzvgMA/Fc4qH3mmWfUHXfcoc4888yoxG3LLbcMf4Z22LBh4VXavn37RjXlWrlyZbidsjz55JPhvn3+858P85Kaiy6TNv/85z/DfL24goN6BCQ/+tGPolyFq6wVtOp+JWmVfa718wAA0LwKB7UXXXSR+tznPpcaSL744ovh7QZ6kV/4qoXly5eXGtReffXV6mMf+5i68MILE5cTTzxR/fWvf416AQAAoBEK31O71157qQsuuEDtuOOOUUljybcvjBo1Sg0aNCgqqY5chZWgNYs8bdPoK2bmFSfzCpp9JcpuK3RZ0jjCVaf7mXQ7s9wsk//+lw8BmrcBSF7T9SazLK2/zW5nj+8ax26j2eXmfuljoctE3LERdp2w6/WYmiuvpW2rmr4mXafLy9qOsPvFjSPssYRrW3HbjxsvaTtSJ3ndxqwDAHhGgtoiy3rrrde+aNEiZ13aEgTCzvJqlmnTprWvWrUqiE/KcfLJJ0dr6fK0TfONb3wjXExpeeFqY5a58i6u8rSy4GEULporb0tr7+oj0tq68pq5Luy8sI9RUt5m17na2uMlsdvmzWvmukvaOGl5rcy2ws67pPWxx03LAwD8Vfj2A7nCtXDhwiiX3cyZM8Ov+/KR3EcsS62VdbXIHCfrmEW3HTyWorXO61nl6Z/Wtsj24xQ5hkJfAYyTVu+SNpe848WpZjtpfU1JbYscnzhpcyprOwCAxioc1G6yySaFAjz5ANbEiROjXHnkA2jLavRVYdqll16qLrvssijnN3kjl8BB/7drHFdwUWbAUQvyDy692HSZq67IfuljKEtWSdspMp4W1zfpXEtZPfa5TI3ePgCgORUOag888MBCP0Dwr3/9S+2zzz5RrjzygwvyYbFa+vSnPx3+OlqrkGBGBzytRK7UmotmX8G183nJcdPHME9gGHfMi46nmX3t/rqsjHNtbkOWeqr2GAEAWlfhoFY+HHXVVVep119/PSpJJ9/tKlc7jzvuuKikPBLU1vpK7XbbbRf+uIMvzAAmazCT1iduHPPKZ9IVUpG3PimfNlZWcfuVdjySJLWXgKya8Vx9y5pfNdtJ62uqZjt55JkTAMBfVf2i2Ne+9jX11ltvqWuuuSbT989+9rOfVQsWLFA33HBDVFIe+XWzd955J/xe3DI0+tsPTHaZ+casy+0y3cfVViSVm2OadcJVJkGkXPU0g0n7Kqhdp/uItP5mW5E0ljDrhVkn7PYiaV8l1VxtTGa9q87ejitviquLG8uk6+x+mt1fK7odkVaXta2Iq8+6/azt7e0CADylvz2gyCLffnDwwQe3b7vttu0vvfSSs40s7777bvsxxxzTvv/++7e/9957zjZlLM8991z72rVrg3ilemeeeWa4T2mef/75sG2zKeMT3a4xXGXBwyha81fWfW0m1c4va/9mPw4AAIiqrtSKIIhUv/zlL9XPf/5zddhhh6nJkyer/fbbL7wS9sQTT6jHH39cXX755eorX/mK+sIXvtDlKlqZ5s6dq3r27KnGjBkTlRQnvxImv4A2a9asqMRNfgL4iCOOaJrv69WqvQLl6h83puvKp0/i9quZr+LJ3ETR+WXdt2q3AwBAvVQd1GryVV0XX3yxuvbaa9VLL70Ulsn9pyeccEL4AasRI0aEZbUkwZXcDrHRRhuF99h2Z/UMyHwPauM0W1CrA0ytVnOr13YAAChTaUFts5Dg6s0331RbbbVVVAIAAIBWV/jbD5qVXDUcPny4mjFjRlQCAACAVtdyQa0YMmSIWrp0qZozZ05UAgAAgFbWkkGt3IIwbtw4NX/+fK7YAgAAdAMtGdQKHdj26NFDvfDCCzX/tTEAAAA0Tst9UMxFfphh+vTp4W0Jo0aNCgNdAAAAtI5uEdRq8+bNCxf5Llv5yq/+/ft3LL169YpaAQAAwDfdKqjV5MrtihUrwiXY//DWhNWrV0e1AAAA8E23DGoBAADQWri5FAAAAN5rW7JkCVdqAQAA4LW2WbNmEdQCAADAa23jttqFoBYAAABe455aAAAAeI+gFgAAAN4jqAUAAID3CGoBAADgPYJaAAAAeI+gFgAAAN4jqAUAAID3CGoBAADgPYJaAAAAeK+UoLb36I3U2C+eoyb8/jG1+W8fVEP2Py6qAQAAAGqvqp/J7TN2YzXsw59Tg3Y9MBipc3y8cOqf1Mw/fD/KAQAAALVTKKjtM26CGv7hk9XAHfcLRmiLSrsisAUAAEA95Apq+24ySQ0/7HNqwPb7RCXpCGwBAABQa5nuqe232XZqg1N/pTY64w+5AloxeN8j1OhP/L8o11p+/6sfq7effyxMG+UrX/hMOIfH7v17VAIAAND9pAa1KweMUfsf8yk1YMZs1Xb3LYWWYT0GqoGHnxaNCAAAAJQrNahdNGZnNWvCruqZuQvVvdNmFFru+dcb6sU3Fqv54/aNRgUAAADKkxjUruo/Ui0ftFG4PuqgI9TIjUeG60UtGTFJzRs/OcoBAAAA5UgMaheO3SVaqxi530Fq5MRKkFvU0mFbqLkbH5D4rQkAAABAHj0Hj9zgrGi9k9X9hqkFG+4drm+12/vU7JXhqlpvo41V2+oVaumsOZWCAlb3Gx4u/Re8HuQKf01uaIf3baM23Xi8WrlylVqydKnq1auX2mbSlmqfPXdTk/fZS22w/ljV3t6u5sydF/XobKftt1ObbBwE6sE0Fi5aHJV2teduO6uNNtxALV8e7PuyZWHZoR86UE3cfFP18quvq7/eeqfq0aOH2mqLCUHbndSBk/dVm4wfp3r27Klmzpodti9qk/EbqX333kMd8IH3q403Gqd69e4V7M98tXbtWrXbTtur9wf7unjJUvW7y66KenQ2csRwNXnfvdQB+70/PDbDhg5Rs2bPVatWrYpaVOy68w7B+Buq3sExnL9gYVTqtmlwzCZtOVGNGTVSzXhvZlQKAADQGLFf6TV3kwPVsiGbhetHfOlE9YIV78195lk184mnolwx/Ra+pYa/cbtqa18bleR33603qc02Ga+++Z3vq0WLF6tzzj5dDR40KKpd57U33lJfOvV09ezzL0YlFY/c81e1YRD4nveLC9XPf/P7qLSznj17qDeefTRc/+o3v6P++Jdbw/WLfnGuOvjAyeovf79DXXrldepXP/l+OJZt9py56ltn/lDdfve9UUk2W07cXP3qvO+FgbJtURCAf+usH6qxY0ar//nGV9V7/56ldt3vkKi2on+/furs/3eaOvaIQ8Ng37R6zRp1+133qtPPPkfNnTc/LLvkgp+oA/ffV736+ptqv0OOCcvi6OMux0KOCQAAQCM5bz9Y3XdIR0AbctwpMHy7bdXoXXaKcsUsHzxezdn0YNVu/RpZEZUA8PthQDtr9hx1459vCQNNCWZFGIBd/Xu1/XZbh/kyScB4cRAQSkArV3FvvfMf6qJLr1RPPv1cWC9XSn/3y3PVYQcfGOaz2HbSlurP117SEdC+8dbb6rKrrlc33Py38MrvoEED1S9//F01ftwGYb1t6JDB4f6ecMwR4fweeOSx8EquHJd/z5ylevXsqaYcdID6+01XqPX69w/7XHndH8N08003Dq+Ax9nxfduGx1Nced1NYQoAANBIzmhSvvEgi+HbTKo6sF0xaJxaM6C6D6CJz3z8I6qtrU2dc/4FarfJh6qvf+ss9Z3vn6c+cPDR6otf/3Z4a4JcufzN+T/sCOLKcsgH91fDhw1VV1x7k9p534PVyad8Q3333J+rw47/lDryoyepd9/7dzi3877/P2r8RhtGveLJ/H790x+qAeutF877y/91htr3Q0er//nej9Wpp5+tdt//MPW/P/pZ2PaTHz02TG0/PeesMDCWAHjKsZ9QJ3z6P8M+clz2CPqf/6uLwnYSiH/55E+F6/+4/6HwHwTiuCMPC1OXjxxzeJi+9Mpr6rEqr9YDAACUoUtQu6bPQLV0WNf/7o5TRmBbjR491l1GPvuc89UFv7tMrV69Oiqp+Nttd6mPf+6U8B7UjcZtoD514nFRTXXMbV91/c3hf+UvXrwkKql4/F9Pq8M/8mm1cNGiMFg99csnRzXxTjj28PCeVZnviSd9Wf35ltvD+4I12T+56ipBrovcf/sf+1V+JOPzX/2mevrZ58N1TW49+OkFvwuvZIvPfepE1bdvn3Abl119Q1h29OGHhGU2KTvi0IPC9cujtgAAAI3WJahdNFoC1HzfTNDIwHbt2kqw9/qbb6uL/3BtuO4iVxRvuf3ucP2oDx8cptXS216xYqX6/nm/CNdd5H7XCy+tfIhrygcPUP369Q3X4xxzxKFhKvP955PPhOsuf7jmxvBqqe24Iyv9ZZ8lqI7z24uvCFOZjw6Cr7nhT2EwLQG4XIG2HT7loLBu2fLl4a0QAAAAzaBLULtsyCbRWj4S2I7ZvfNXgNWTfOgpzZ3/mBqmW0zYLLyntCwPPvpY+MGtJHdF25YAUr7BII7cprDVxM3D9dsy7JNrv3fbecfKSnt7eGU4bpHbCCQ4FXJPspDbD+64pzLX4476cJiaPnJ05dYD+YCY7gsAANBoXYLaNuO/ufMattWWdQ9s9S0AM6N7QZPIFVMhgePoUdXfx6u3PSvD15vpbYv1x46O1rqSe3P1NxXo+1uTvDdz3bhCvlZszOjKvslXdH39S59LXOQ+Y2EeD/2Bsb2Dczlm9KhwXciHw3bdaftw/ZIr4q+KAwAA1FuXoLb//FeiNVP22xEaEdgK8/7WOBLMau3R9+Pqe1V13iUtzu/Rs8th7EKCzSzMe2ez9HG1WRuN8ZuL/6CO++QXMi3ybQ3a1AcfUdNnvBcerxOPOzIqVeqjx1bW//X0s87bHgAAABqlS0Q0eMb/qb5LZkS5YuoZ2OoYUH6gII18+ErIB6U6rpxG/ZNuR1h/jPvKase2E24n0DaNvgJLvPPue9FaV/KdsXKPrpAfb0ijv1pLk/th5Su7xJo1a9XD//fPTIv+6jMhgfWV11a+quujxx4RBrdy9fjY6F5d+ZYHAACAZtIlqG1rX6NGvPZ31WfJv6OSYiSwHb1z5b+qa0lf2Tzs4P9I/QDW0YdPCdNHH3uio5++L3SDsWPC1GWvPdwBuh4j/CWulAD0yEM/FKbyy2avv/FmuB7nkcf+GabHJnytlujTp0/4wS3bQ48+HqZHBHVpV3vlO3Rd5NscJPiX2w/kNoQDJ+8T3hoh3+7w51vuiFoBAAA0B2fE07Z2tRr52t+qDmyHb7utGr3txChXW0MGD1Y/OPNbUa4r+T5XfT/odX/8S5iKN956J0zlZ3BdX2ElvyZ28qdOjHLxfnbO2ap3795RrrO999hVfez4o8L1q4NgUa6gCrkCut8+e4bfxmD2lYBS7LzDduH378b53v/8dxho2q68tnJP7LgN11enfOEz4brLB96/p/rn1FvVb392jhoxfFhUWjFv/gJ1253/CNflA2PyIw7i2uDYrVwZ/WYyAABAk4i9jGcGtqtWropK8xu+825q1IT0Hxwog/wc7He+9fUuPwkrn9j/7hn/Ha4/+Mhj6k9/uz1cF3dGn/SXH0WQn4k1g8SBAweoX5//Q+fP1Np22fF96jc//UHYxyTB8sUXnBcGsG+/86761UWXRTUq/NGDKy76hfr5j/43/DlcTX6R7L4HHg7Xz/r2qWFAbN4PLPv37dO+3BFo2p546pmOwPi0r3w+bGtfxZZgWn7lTK7kygfXFixYGNWsc1X0gbEpB+0ftheXX8V30wIAgObTNm6rXaI7Q93ae/RSG3/xJ2re5tHXRBU0556/q1lvz4tynY159WbVa/HMKJfPfbfeFN5XKp/Gl1/BkqBSvjXg1dcr/8Uv/32u76WVDzcd/6kvqtlz5oZ5IVdib73pSjVpy8oVZfkv9xdffjX8iq5JW04IrwBffcOf1AEf2Dsc66vf/E74dVbiol+cqw4+cHL4fa27RbcgyM/k6h87kLnIr3oJuVdWtv3CS+s+iHf+D88MA3Eh2/yPD6+7KitXTq+55IKOeb351jtqxr8rx0j2V76tQLYl3837lc9/OrxHeNf9DgnrhQSxF//qvPCHGIRceZVtCPkJXR2oy7208mtj8qtnNgmkH777L+Gvjgm5rUH2AQAAoNkk33AZkCu20y/6hlrz9H1BLjH+TTRi/0PU6HFDVf9lM7os2b9bIZ4EbYce90l1/8P/p0aNHKH22HWncNG/zCW/ynXER0/qFNAKuRXgpC//l3rr7elhXj4wts1WW4R95Yroj3/xW/X/zj4nrIuzaPFidfgJnwm30a9v345t64BW5nT4Rz7TKaAVF19+TXiPqsxP/2ytJvfeHnXiZ9WNf74lnKMEzHpcCWjlivMhR39cvfraG1GPzpYvX6E+8fmvhleGFy9ZqoYNHdLRXwJaGfPmv94W/tqZK6AVcs+weWX2yuv4gBgAAGhOqVdqTWO/+CM1cOeuvzKVx2tfmazWLkv+oYI89JXaX/72EnXuz38TlslP4e620w7hlVX5aqrHn3gqTJPIPa0HHfCB8IcZ5J7R5198JfxRBQkO85APXu25205q/Lhx4bcQPPnsNPXKq69HtcWMHTMq/EGFcRusr2bOmq3+74knO4LwLAast154G8TG4zdUPXr0VNPfnRH+0piMBQAA0ApyBbVi7BfPCQLbA6JcfmUHtfff/sfw67zMoBYAAADdS+rtB7b3fvMttfjxu6McAAAA0Hi5g1rx3m8JbAEAANA8CgW1ohLY3hXlAAAAgMbJfU+trc8Gm0Vr2ax897VorRzcUwsAAICqg1oAAACg0QrffgAAAAA0C4JaAAAAeI+gFgAAAN4jqAUAAID3CGoBAADgPYJaAAAAeI+gFgAAAN4jqAUAAID3CGoBAADgvbb2QLQOAAAAeIkrtQAAAPAeQS0AAAC8R1ALAAAA7xHUAgAAwHsEtQAAAPAeQS0AAAC8R1ALAAAA7xHUAgAAwHsEtQAAAPAeQS0AAAC8R1ALAAAA7xHUAgAAwHsEtQAAAPAeQS0AAAC8R1ALAAAA7xHUAgAAwHsEtQAAAPAeQS0AAAC8R1ALAAAA7xHUAgAAwHsEtQAAAPAeQS0AAAC8R1ALAAAA7xHUAgAAwHsEtQAAAPAeQS0AAAC8R1ALAAAA7xHUAgAAwHsEtQAAAPAeQS0AAAC8R1ALAAAA7xHUAgAAwHsEtQAAAPAeQS0AAAC8R1ALAAAA7xHUAgAAwHsEtQAAAPAeQS0AAAC8R1ALAAAA7xHUAgAAwHsEtQAAAPAeQS0AAAC8R1ALAAAA7xHUAgAAwHsEtQAAAPAeQS0AAAC8R1ALAAAA7xHUAgAAwHsEtQAAAPAeQS0AAAC8R1ALAAAA7xHUAgAAwHsEtQAAAPAeQS0AAAC8R1ALAAAA7xHUAgAAwHsEtQAAAPAeQS0AAAC8R1ALAAAA7xHUAgAAwHsEtQAAAPAeQS0AAAC8R1ALAAAA7xHUAgAAwHsEtQAAAPAeQS0AAAC8R1ALAAAA7xHUAgAAwHsEtQAAAPAeQS0AAAC8R1ALAAAA7xHUAgAAwHsEtQAAAPAeQS0AAAC8R1ALAAAA7xHUAgAAwHsEtQAAAPAeQS0AAAC819YeiNaBzKZMmRKtKXXLLbdEa0BX5mPFVOvHjWu7PFYBoHUR1KIQgtruK8+5jwtoTWU/fhqxTY3nBQA0DrcfAMgsS8CoZW2bZ8w0ebZZ5nZF2eMBAPLhSi0KMd/AuSJV0crHJC5gi9tPu72rXZY2eTRimyLvsQEA1AZXagEkigva4mQNHMsM+opuM+++2artDwAoD0EtACcJ2LIGiyazTZ7AtWiAmHeOZQS2RY8NAKB2CGoBZJInaJO2WdqXHQhmHa9R262FlStXqhUrVqQua9eujXoAQGvintoacF35qfZNL+5qUtFxqx3P7F+kj6maY1PWmGWMU+SYaLU4NsI1bpF9MvtUs58u1Y5XtL99bPJuux7HJokEqbNmzVJr1qyJSpINGzZM9e/fP8oBQOshqC2R/Sbpot/osr75ZRlTZH0DLWu8PG/eZe+DqMV+JIkbJ2t/4RqjFvuh28aNnTZWGte2irLnmHe8MvtXuy+i7PGSLF++XM2dOzcMVHv16hWVxsvaDgB8xe0HJbHfXONkbSfKbpt3vDzt49Rim3nHjFPWOEXl3X6j51tr1QaBtQ4im42+HtGvXz81aNCg1IWAFkCr40ptCVwBhP0GmxRkuN6Mi44Z98aetW2RdvXapig6pt0myzhF28Qx+xbdD5G1nXC1rZa5raLjZ92vNNXOpYx9MZU9XpJly5apefPmddxWIPfWLlmyJPV2hLa2NtW3b181cODAqAQAWgNXaksmb2SuN7O48ixqNaZL0fGyKHub0i/rmHYQZdbHjRNXbtJt7HZmuaveFlef1i9JNX3LJsffXGzNNFdfya0I8oGwNHIv7sKFC9XSpUujEgBoDQS1VXK9QSfJ8uZtjpmlvdnGNR+7LG1Muz7vPopabDPvPLJsM62NMNsUORa2WhwbW5b9ahY+zbWZSbAqV2BHjhyZuMiVXZH1A2YA4AuC2hL58OacdY5l7ksttplnTL00ozz70arK+IcCAAAEtVUo+macFKCU/QbfiIChFtus9X7I+K6lbLUY09aMAbDMyV5M9TguAIDWRlBbEvtNuixmgJW0ZFGrOSapxTbLHDPt+OU5vnk14nw0E3v/a3WcAQDdA0FtC6pFcNCIgKPW27THlyDLXppVqwSAzXyMAQB+IahFt2QGhUkBbLMHtwAAoIKgtonpgKrIUrZajJmmVttshaucjTgftWLuSzXnplWuXgMAiiGoLUkt3lDLHrMRb/rNflwaGRw24ny0mmrOH8cfAFoLQW0Vir6hJr2Zlh1kNSJoq8U2G7EfWqsE0fUixyvPMWuG4NLH8yLfSTtixIgwBQAQ1JaqkW/OWQOJrHMsc19qsc08Y+rFJc82ayHPfvimyJzjgsuyj1OeuTXrse/Ro0cY0EoKACCorVreKzxZ3iDNMbO0N9u42ttzTBvTri9yFasW26x2zCLKGMPWiPPRKNWeI6nXbeLa1up4Ztk2AKB5ENSWzHwjNMWVZ5HU1y7PGvBkHa9Mtdhm1jHN45IlCJKyWswrTlz7aubQKFmDTLs8y2M3bqxablOLG7NZtLW1qVWrVqlFixYlLkuWLOloDwCtpK09EK2jCnne8OSN1Gwf98aa90007Q26yJtylrklbbfMbWplHZes40j/MvbX7lfmsck6vzKUcSxcXGPZY6TtWxnb1PJuW2Q9NrUwb948tWzZsiiXTG5ZkPtxe/fuHZUAgP+4UluSrG9ged7oym6bd7w87ePUYpt5x4xT9rbyyrsftZxLLWSdb9K+5d3nMrap5d12ow0bNkyNGjUqDFaTlpEjR6oxY8YQ0AJoOVyprQHX1SL7DTLvFZ24K1BF33jLHi+LWmyzjDFdY1R7HPKO2YjzUU+1OMZpGrFNAEDjENQ2iPmGyxstAABAdbj9AAAAAN7jSm2Vilxx5SotAABAubhSWyLXPXy2LG0AAACQD1dqS+AKVF1XYO12XKUFAAAoB0FtSYpcgSWoBQAAKAdBbYmyBrYEswAAAOUiqK2BuOCWYBYAAKA2CGoBAADgPb79AAAAAN4jqAUAAID3CGoBAADgPYJaAAAAeI+gFgAAAN4jqAUAAID3CGoBAADgPYJaAAAAeI+gFgAAAN4jqAUAAID3CGoBAADgPYJaAAAAeI+gFgAAAN4jqAUAAID3CGoBAADgPYJaAAAAeI+gFgAAAN4jqAUAAID32toD0ToAAKlueX6u+uu0ueqRtxaq1+YsV4tXrolqUEsD+/RUm43op/YYP1gdtvVwNWXS8KgGgCCoBQBkcv1Ts9QP7nlbDezbUx2z3Ui172ZD1MSR/dWgII/aW7RijXp59jI19bUF6sZnZqvFQf70/TdSx20/KmoBdG8EtQCAVF+46RX16FsL1fc+tAlXCJuEXDE/47Y31O7jB6vfHj0hKgW6L4JaAIj0+Mb90ZpSa8/dJ1rDUZdPU4P79VKXHb9FVIJm8qnrXlILl69Wf/zk1lEJ0D3xQbEmMWXKlHBJY7fL2k/L2z6vrGPredRyLrXk89ybgQSPZgDZDFzzacZ51ptcoSWgbW5ybuQcybkCujOC2iqYgZm91NMtt9wSrfnBPj71Pl55Nfv8Gumuu+5S22yzjfrlL3+pzj//fLXtttuqu+++O6r1j1yd1Qsq99DKLQcEtM1PzpGcKzlnQHdFUFsCCSrNRdQrEPIxoHUdL/jnhRdeUKeddpq64oor1PTp09W8efPUZZddpr72ta+padOmRa3gM/lQmNxDCz/IuZJzBnRXBLU1UG2gJoFftUFxljHS2uj6atuYanFskrav6+LqtSxt4qT1zTu2bl/tmFnGKeK5555TI0eOVJ/97GfVd7/7XbXTTjupc845J1zfZZddwlTqpE2W4DbLf/HrNkntstYntcmqzLHiZNlGljbC1Satn3wISb7lIO5DYbp/2jhlqdd2as3ch6T9KbKvcq7knMm5A7ojgto6iAsq7HIJ+MyyLAGJ3SYtL7JsJy0vsrQpgx7XHF/W9aKZ68KVd7V3lWlmG7su7Tim5V3seld715hp/Vxtiurfv7/aeuut1QMPPKA+/OEPR6XrHHHEEeqhhx5SW221lRowYEBU2pX8F7/9Bu96I7fLXHmzzM6LpLzZ3lyPY9en9c9aZnK1t6WNqdftsrh2NvkeWvnariTm7Rr2uHkl9ZU6czs+secr+1BLcs7k3AHdknz7AYo55JBDwsVml7vaCLuNq51dZrdz5W1J7bVatEmi+2dp72oXV6a56kVam7gym6udMMvS6m1x7e0x7XZZ2ghXmUn3S2v34osvtm+33XZRrrOf/OQn7RdeeGG4HgS+7S+//HK4bmv776nhYrPL4tqY5Wnj2O01uyyujVlu5zW7jcnVxzWG5movzLKibeLKXLY//5/t/3xnUZTrytUva5lL1nYiqW1ZdXFt846fpX3WfkljaXLO5NwB3RFXakugr4KZV8Oq/W92U94rbHb7InPJ0qesfcy7f1ra9uPqk7ZX1j5pec5F1m3b7Vz94saK2/es52DmzJnq2GOPVb///e/DvHxQTK7YigsuuEBdcskl4ZVaIW2OOuooNWfOnDCflXllK+tVrbSrYWVeHYsby3UFsehVRdc2su5T2jazHgv5pTD5YYU8ZGy9fUllMcs0XafLzVSvx5F61z7ovnp75jh568y8Zpcn1Wl6XdfrdZPkXWOadF1aOyHnTM4d0B0R1JZAAgh7KcLVL+9Yur0EKXopwuxfzThx9HEy59tqipwLs22W9mXRc02zatUqtXDhQtWjR+WlY9CgQeqEE05QZ5xxhrrwwgvV1KlT1ejRo8M6abN06VK1cuXKMG+TN2ibq0y/ice9mes+SW3Murg2ZTLHl/npYERI6trPZiM/fVvtL4Xp/TT3X9PHRa/rVK/bpL89hs0ez5SnztVG2PXmfMw6XW6W6XWb2UbE7aPdLo6cM362GN0VQW0LKiNgNMcwF+RjH7ukc6Hr7D71oreXtN0NN9ww/IaDz3zmM2F+9913V3/605/Ce2jvu+8+NXz4ug8VnXTSSeryyy9X66+/flSSnxkc6MXFrrcDA7PeXGqhVuPW28A+PcOfZS1KjoOcB71Uyzxn9niu8ePaCj23aujxhR5PL0WZY2p6vKzjyzmTcwd0RwS1DeIKbrKWJbHblxUY5Z1HnLLGqUa9gsUi56LWc0sbP8v2N9tss07B684776zuueceNWzYsKikYujQoWrTTTeNcl253pxdZa43epPdJ629SAsMisiy3WpknXNZ89hsRD/18uxlUS4bc46yLnPRS1lcYyWN76rTcytLrfZV6PHM8ZO2IedMzh3QHRHU1knWYM7Vrl5BmMk1D7ssLR+nXvtYdH7NTvbD3BfXftVy3+X2A/lar7333lv9+c9/jkrXkbK99tpLvfjii2HbJK5ALekNuyjXdlxlWdj94saRcntf4uaRNmZcP5OrTTX2GD9YTX1tQZTLrl7nL03Zx8Mm45e9r1nHTNo3OWdy7oDuqE0+LRatIycdKGQJyOygQvpIme6r113tTPY27bxIGsPVXkh50hjC1cfFbmfLMrbJNWd7vsIuS9uOa1yRNI4uL9JX2O1tdnvNtR1N6tK2K9K2nZf8+IJ8pdfVV1/dEdzKB8OOP/748JYE+dqvOPrN235zdr2hx72Bm23TxnGN4WoT1y9pWyJLP1GLbZhcY9hlrnHsMiHfdfrDf7ytHvjP7aOSzrJu36Tr47ap+7jmaHL1FWa7pDHMOnsuZt5et2WpE7peyvKM6RpDmOW29//6KfXtyRvFfr8w0MoIalEXzz//fJhOmjQpTMnny6exg9pqx8tK7q895ZRT1KmnnhrmzzvvPPXrX/9afeITnwjz8NsOP31Cff9DmxAgBewgsxnJP0T+321vqCe/vlNUAnQv3H4AeESCV9dV2EaR4PWNN95QZ511Vri8+eabBLQt5PT9N1JnBEES/CDnSs4Z0F1xpRbwTD1uLQC0L9z0ilq+eq267PgtopLuqdmv1H7qupdUv1491G+PnhCVAN0PQS3gITOwJaBFrR11+TQ1uF+vbh/YNisJaBcuX63++Mn4+9iB7oCgFgCQSq7YPvrWQvU97rFtGnIPrdxysPv4wVyhBQIEtQCATK5/apb6wT1vq4F9e6pjthup9t1sSPizrNX+8hiykR9WkO+hla/tuvGZ2WpxkJd7aI/bflTUAujeCGoBALnIFcK/TpurHnlroXptznJ+lrVO5JfC5IcV5HtoD9t6OFfMAQtBLQAAALzHV3oBAADAewS1AAAA8B5BLQAAALxHUAsAAADvEdQCAADAewS1AAAA8B5BLQAAALxHUAsAAADv8eMLBb23IlppUhfe9m/1+Q+NiXLd29i+0UoBzX6emxmPQQBlqeZ1HN0HV2oBAADgPYJaAAAAeI+gFgAAAN4jqAUAAID3CGoBAADgPYJaAAAAeI+gFgAAAN4jqAUAAID3+PGFgrJ+Kf9OX30mWlPqiZ9vF611LhdmnSZt7HJXmUvWL7635yH0+EnbSpqba8ws4vqa8zHFzc1W6x9fSJuXPi5J9Bhx+2qSNq5613a1pDoRV2+XC6lzldvy/vhC3DZd2zPLdD/N1dbkmrvZppptVcvclpY0N5FWX5QeN26bcfOMm0O1+5FWX0TcfsSVmXPQdFu7rqw5iiLzNOeV1FfWTXZbzWxntkkbX4vbZtz2bPz4ArLgSm0N6Seu64lsk7qkepFWX5TMz1yqZY9l5s3FrtPMMrNcmOW1Oh7VynIua01vXx+/tDllnXOWNrWQtl37cWG3t+tNkrfr7TamPG2rlTY3V32tFdlG2jxd9WabtP5FZRlLb1sz52GWC7Nc+jVynqa0vmnz1mO72uh8Et3fXDfHAspCUFtj+olsPqE184ntqjfpct0O2V5M68U8j9WcI/M8m2PZeWGWmeX2Y8Wu13R5XL1oluMrss4lbl80qddjSWq3T+tvytM2r2rn1izi9qOsc1AmPRc9t2rUch+KzDNrW3veelumpH0rMjegLAS1NWY+seWJnvRiEFenx0jqC3/V4vymPZaysMeo5ZuUjC3bk8W1nbzHJm6cPLL2L2NbecVtL+9xSpN136SNtM1zLLLMtV772eryHq+s5zHruU7CuUSZCGprSD9Z5Ymvl7zKeNFIY86vHttLk3U+UteML4hJc45TZD/MY5Rlm/Y28vYXjTzesu2s80wiY6TtRyP3M405N31M8pzDamQ5dmVp5H4mMedhz8Wuq9exykIfw7IU3bdmOpdoPQS1NSZPYL2IIk/ioi8eWZlzrPW2skiaj/li2Axz1cx5iaxz0+1NrjIX8xhl2V7SuEljZJ1PM5N90EuWY+UTfe5kaYVzFadW+5k0nuvxYs4jra6R86ynvHOTvF7KPEYAQW2NyBPVfrLaT2yb68lt9uHJv+7FsNnoeRWdn+vxUmvmXOO2nVZfBj22eQyS5pNlLnYbc1+zkP5Z22eZT5n03CR17WfZ8zG35Tomenu6jV5Pk9ZG6uu5n3p7ohbjl6WaeWZtn7WNnoeWNjfJ22V59wFIQlBbI/aTXSQ9cXWdq5/Q5Tz5K1rphVD2xVzKYB+bpMdX1m2WNTcXve96KYNrHCmLOzbVKGvOtqS5ubZZxr4UIXMxF1vaMfdlP7sT87iXdbw5l6g1gtoakiewPGH1osu0pDoXXa/b14M5R3O79r7Jkjb/rOxx4+g5+MC1T0lzT6pLYz5OzO0lnZ+kY1nWeXWRbcaNn2c+ej/1knVfdbs8/fO0rUaWucm6WafL6sWej8meT9w8XfWymOPKulmnyxrBnIeei2bXNWqOSVxzSpq3Xk9qk4f0M8fRZUAZ+PGFgrL++EKj5P3i+1ZW6x9fgBuPQQBl4ccXkAVXagEAAOA9gloAAAB4j6AWAAAA3iOoBQAAgPcIagEAAOA9gloAAAB4j6AWAAAA3iOoBQAAgPf48QUAAAB4jyu1AAAA8B5BLQAAALxHUAsAAADvEdQCAADAewS1AAAA8B5BLQAAALxHUAsAAADvEdQCAADAewS1AAAA8B5BLQAAALxHUAsAAADvEdQCAADAewS1AAAA8B5BLQAAALxHUAsAAADvEdQCAADAewS1AAAA8B5BLQAAALxHUAsAAADvEdQCAADAewS1AAAA8B5BLQAAALxHUAsAAADvEdQCAADAewS1AAAA8B5BLQAAALzX1h6I1ru1pUuXR2sAAADwDVdqAQAA4D2CWgAAAHiPoBYAAADeI6gFAACA9whqAQAA4D2CWgAAAHiPoBYAAADeI6gFAACA9whqAQAA4D2CWgAAAHiPoBYAAADeI6gFAACA9whqAQAA4D2CWgAAAHiPoBYAAADeI6gFAACA99raA9F6t7Z06fJozT8TTn05TF85f2KYtrpjjz06Wqu44YaborUKXW+XNzMf59zqOCfF2ccuLY/qdNfjqfdb8FiC4EptFSSYTFpQPvNFTHOVobHknMQtKF+tjm0tz1erBCFpx75W58bWnQNaUa/jjOZGUFsCuUJqLqgNecGSF2570XVoPnHnC91bKz0OsuxLrfe3uz2v9Ou97Le5AAS1NaADW/tqbZaruGW10Vzt0vrq+qQ29ZYUtOoXM1cbKUvqq+uT2ois4yTRbdLambL0yTumb7IcA+Fqk9Yvrd5F98nbr1HS5lp0X3S/In2TpI1Zi22WwTWnuLIs++Bqk6WfSbdP65PWJssY9eYKYqXMNU89/6R9yNJGuNpk6ZtWj3IQ1NaJHSC6gsa0vMjaRi+aXneVmewyybvaNULSv8Slzqy3X9xcLyhZ82a53UbY9XoxpeVdXH2SxtH1dptmFDdPu9xuE5e3++hFc63bZWY+jt0mS59G0PMy5+eau13vam+Xi7R8GntMve4qM9n1emm0tNcmzZ5rXN5Vbpal5YUrb/cxU5Glj92mUeLmYZ8Lu52rn6uNWabXs/Y1Sd4ss/MoFx8UixT5oJgO9uxbDuxyV7uy24g8Y4k845tljSAvAklvHCb9guF6cdNlrvHsfq5xymojpDyuTZE+Iq5fvel5uNjzNfcnrk6z98/Oi7iypD4ibeykfnZZvWWZq6tN2r5kaSNcY4uieVGkTSPJXPLOX5j9srTRkvplGcfVxjVO0hiNpOequebk2kdh7kO1bURa36R6lIsrtSWQwM9cRFoQaNdLvkjgWOtgs9bjN0rRFxRXP7ssS5ss4vroF1KRZdvNTvbH3Cetmn2p1XHw8fhqrrnbxz3L/tXrGLi2Y5fVay5ZuR7Hpmrmm/dcxdUnzdHVp8hjpB5kHuZcZJ6ufXPN1y6L26ekY6XF9TU16zFsRQS1NRAXCLqCX50KV72tHkGmax5x8/GZfhHUSy3Z26r19pqFvHjbi8nM23WiVsfMtS1Xmc2eT5lzqje9v0X2xeyTp18ry/KYso9b1mNXzbmqRqO2m4fMUS+i3nM0j41eTD4cw1ZCUFsCCTT1IlwBoNnGXoTuY5fXm7l9e2lmeV8sdFv7BbFWzO2YC+LV+xxlYc7FXHxl70OW51AznpdmE3cczWNmLlnY7bOcqzI0aru+MI+PuZjsco5h7RDU1okr0C1y9bPWV0zLmmctpL0Q2C8kafK2L1M1L2qNnHfZ5DjoF3vXManVvrq2VeScVHMeG82ee55j3UqPwbLp45rlGGV9/FRzrmx5+pa53TJlPW5xsvYvsr/22M16DFsVQW3J9BXNtOAwLVBMqs8zThG1Hr8I/ULgejGq9gWuWrJ9cw5Z55g2b7s+bgyzPG3MZhK3P/Xi2lbaG06j59zdybE2j3ezHftmevzY4zbbsapW3P7Y5yDLcajmWGUZD/XDtx9Eyvz2A2HXuYJDu19cAGm2s9tIXdy2XP2ylpnM+kaLe7EwX8h0G9eLm6udTbfJOo4wx5K6LNty1efpo6VtuxFcc9f0HPW6yS6PG8euN8eRMte4Zh9Zt8d29RH22Da7XyPYc3XNXUh50v642mtJ/bS47efNa1LuKtOkztWmkeL2RZhz18x2efqm9Su6LSlPGsdu3yiu/ROu/bHlbaPrXfteZHzXOCgHQW2kSFALxJEXsUa9cDVy2z5IeoOCf3i8A9C4/QCogryh6iCp3hq5baDeeLwDSMOV2ghXalGU6422XleOGrltX+ljxnHyD493AEkIaiMEtaiG+WZb7zfZRm4bqDce7wDiENRGCGoBAAD8xT21AAAA8B5BLQAAALxHUAsAAADvEdQCAADAewS1AAAA8B5BLQAAALxHUAsAAADvEdQCAADAewS1AAAA8B5BLQAAALxHUAsAAADvEdQCAADAewS1AAAA8B5BLQAAALxHUAsAAADvtbUHovVubenS5dFaNhNOfTla6z5eOX9itAYAANBcuFILAAAA73GlFgAAAN7jSi0AAAC8R1ALAAAA7xHUAgAAwHsEtQAAAPAeQS0AAAC8R1ALAAAA7xHUAgAAwHsEtQAAAPAeQS0AAAC8R1ALAAAA7xHUAgAAwHsEtQAAAPAeQS0AAAC8R1ALAAAA7xHUAgAAwHsEtQAAAPAeQS0AAAC8R1ALAAAA7xHUAgAAwHsEtQAAAPAeQS0AAAC8R1ALAAAA7xHUAgAAwHsEtQAAAPAeQS0AAAC8R1ALAAAA7xHUAgAAwHsEtQAAAPAeQS0AAAC8R1ALAAAA77W1B6J1NIkpU6ZEa0rdcsst0RpQXzwOUZZWeCzpfeC5ADQvrtQCAJDADMrNdQDNhSu1Jaj2Rc7+l38rXNVoNVnOcaudKx6H3U/e17KsjwvfH0v2ceH5ADQnrtQCCeTNLOsbfZ62QCvgMQ+gmRDUIqTfnPK8QRXp45Oi+9WqxwMVrf64L6LVj4dcmTUXAM2J2w9KYL6Yl/GCV/Z4WRTZZiPmWS+uN+i0fbT7+H5MWvn8VqO7PO6z7FvWxzyPJQD1wJVawOJ6o87yRmy3sccBWg2PeQDNhKAWSJD3qlLe9oDveMwDaBYEtWi4Zrq6U8Z/k5r9iuxb2cejEce3Ftssc8xGHBNbM8yhu2nkMed8A7XHPbUlMF+syrhqkTSe/cKYZXtx42V9ka22jy3LGGn7Ze+Ta8y0MVzscYuScbL2L+N4mMoaL8+xKHsfRJljVjtWlv6i2jGy7I85jrR3jZv1uNjssfNI6pu1TmTZbp552uPbdP+0MYvUJ207bd4A8uNKLeoq7Q1Gy9pO5GmbpKxxRNY3rLKPR9ntsqjFNsscM89YeeaYR5n7Y6rVfFtB1vNZi2OYZdu12C7Q3RHUom7sF3EJ/MzF1sgX/axBaTXKPh6u+mrGy6IW2yxzzLSxXOOVrRbHqNk025zj5hN33Gs5/7htCh/PNdDMuP2gBOYLk+uFK6+k8ewXwSzbyzK/IvuQp0+eeWdpa7cRWecdp8gxKKrWx6Pa8UTa8aj1NkW1Y6btg1Z0u0ntRNn7I+x2Im0eWeXZN1Nav6T6rPttyrM9kTSm3Vbk3QdRdJtJ7QDkw5Va1F3ai3iRF3mf3xjKPh55x3O9qedVi23mHdOWJ3BIqy9D3jlkPS/1mHuSMh4/ZbLn04hzn2fMZjt+gM8IaksmL1BZl+7C3NdGv4E0g7KPR5Hxqt1uLbZZ9nGRMcoYp6h6nJdG7p8w91E0ej62ZpuP1qzzAnxHUIumZ79xNgOZU9albLUY01cSHOglTtYAgkCjM/tx7FoAoJkQ1KIpEWB0xvGoLwK2fOTx6fNjlOcX0BoIakumX9yzLN2RfaUnaekOXPsdt5TNfAzWYnyXRmxTM4+la2kWjTxGeXXn1zIAzYegFihAv5nHLWgeWYPWZg8g6831uLYXAGgmBLWoK9cbY5alVbn2NcuCbFyBKscRAFoTQS0QMYOc7nDVztzHegV49dymfQ5dgawuc9U1SiPOCwC0AoJaoGTdISD2TZbgkPPWfXHugdZAUOuZvFdufH2xboZ5N9Ox403XTY6LXuCnWr6m8bgAuheCWtRV3jeker8p2W+webdfy/Zxx8Occ9bx8s7TVuttVju/ZtCI84LaBskAmhtBbQsr+mJdpF9Sn7yBYqPfZPLOVzPbJb2x1vp45B0vbxDgUsY2a31ckhQdK0+/vPtTxnlpNUXOk/SJ61dkPADNi6DWc3Ev2HlfrF0Bhbm45OmTNWBJ61cvSftmcpVnmXPZxyNuvras42VRi21mGdNVlrYfrj4irjxJ3BxdY9XiGLW6rMcoiev46XHNRevOxxtoJW3tgWgdBZX94phlPLNNEumfdX5JYxaZh6tP1nmLrHNNaletPPMV5lx036z7kSbLfpY5XtZjXPY+iLLGzDtOGfvs6lfmMco6xyJqNXaWcbMeI+mfdZ5ZxtT908astt6Wtz2AdFyp9VSWF8G8L5RFXlhrtY0ic6mFPPOo5fFrVLssarHNssbMMo60yTM3Uav2ecdtJVn2vchxj+uTVAfAT1ypbRH6X/2+vUj7eLWilnMue+xGHN9abLOsMRtxPFyaZR7NTB8jnx+3AOqLoBYA0O0R1AL+4/YDAEBLkQDVDFLTENACrYGgFgDQMswANU9gC8B/BLUAgJZhX2lNC2wJfIHWwT21AICW4wpWdcAbF8hy6wHgN4JaAEBLynMVloAW8B9BLQCgZaUFtgSzQOsgqAUAAID3+KAYAAAAvEdQCwAAAO8R1AIAAMB7BLUAAADwHkEtAAAAvEdQCwAAAO8R1AIAAMB7BLUAAADwHkEtAAAAvEdQCwAAAO8R1AIAAMB7BLUAAADwXlt7IFpHDrPmzI/WAAAA0GgEtQAAAPAetx8AAADAewS1AAAA8B5BLQAAALxHUAsAAADvEdQCAADAewS1AAAA8B5BLQAAALxHUAsAAADvEdQCAADAewS1AAAA8B5BLQAAALxHUAsAAADvEdQCAADAewS1AAAA8B5BLQAAALzX1h6I1pHTpZdeqh555BG1YsWKqKQ+/jbxZCUnrS1YfE4H9O6pjtpmpPrZlM2DXFe//t1l6u5771cLFy1S8ijt6B+skM+fP/KIw4Nca1uvfz+15YRN1V677RSVdNao52ycOZ+9MFpDEf16KrXvqJ7qKxN6RSWd/eEPf1APPvhgeL7lra4teDKYqWaXd8f6+f85NVgJMlLc5Gn/XgPUfsOPVJ/f5H+DAmCdnmcFonXkcMkll6j77rtPrVq1KszrF4h6pC+OCN6wg1T+dEqljatcp01Wv3LtWvXUjMXq3cUr1cFbDA/3T/vVhZeom/58i1q+vPJmxFL9stWWW6q1a4NjHxz/Vk1XrFylZvx7lloZpBtvtEFQto48Z++99161Zs2a8HiIRqdLd5wSpmFeiqz6Tnnqu9SvXtOuXl3crmatbFd7jAgiXIMEtHfffbdavXp1VIIkK3Z7K1prfqvXrlKvLHlaLVg1R+0ydHJUCnD7QWEPP/xwxwtrvVN5cQ/X7LSy2rVcp5XVruU6rax2LddpZbVruU4rq13LdVpZ7VL+x2dmSa6TO++5L9jftSwlLmuDf0R0l3TaS69Ej6R15Dkrsj7P6pHKWkc+/EN9kfqpM7sGrvfff3+lTcxSeby0qx5rlRq7uJfaIFhk3a6PW1qtfq08d6LUl/w9s/8YnW2ggtsPCvr4xz8erdXfXyeeHPwtp834Pxk5jW0x/1fjQf387+wTpOt84KAjXM3CtG+/vuFVx2HDhoWLmDdvnpo7d6568cWX1IqVK5z9unt6uNx+kKFdq6Sn/ueng5V1GvmcjdNx+4GedxzqU+v/vt96UaYi6Xz3bG9Tk6cPUrvNHKDWX9K7Y+i1wcqM9Vaqh8YuUfevvyjMdxcLvnR/tOaXv+zxRrQGcKW2MPm3QKOW4K/Ki7yZCle5TkWz1xvkilt7eCWhc7rxxuPVlEMOUVtttZUaM2aM6tOnT7jI+qRJk9QhhxysNlh//dj+pJU0vNrR4nmb67nUDEvwV/A0iFKdt1Pq0+stUudaBqzsoU57cow64vWhannPteqmzeapiybNUj/b7t/q2s3nqN5BJHvsq8PUKc+MVv1WVe497Q5L+ByyUvvKaDPWAyaC2oLkSVX2cuWVVzrL7SV8oodv3Oue2L7nbWG9tUycOFHtscceqnfv3lGrriTA3WeffdSGG27oHKNWy9Q7/uIsb6ZlzZp1y1pjvVXzNtdzqcwl6/PXXuTx3742SjPk/77fAHVrsEheUsnn6Z+U1+OWNV49x7dJnb2sFwSpX396jBq3pI+6bIvZ6rztZqh71l+gnhy+RL00eJl6YMwidfZO09X1m81Vmy/op7787GjVFoztGquMpehjphZL5d8NUVr5Swo65ZuyHjAQ1BYkT66yl6zjBn+FbcNUVjPmF571AWe9lC88e7/YejO/8KxKO2nvqne1T6rvlDeYV90kHbDeemqnnSqfaL/jjtvVX//yF/X000+pZ55+Wj3zzNPq6aeeUvfcc7e67dZbwzZ77rlnEOD27jJOrVKRpV2R9IG7/papXVoa/gOiAek3TvlcpnaShm0ztMuS2lzPpbTlqquucpa7lqLbCP4KngbZ8rdNHqh2/v71aqdgkXVJJa/r0/rbeRnDzMt4Zt5uX20+Okix9XH52/Yf2Clv18sfm643l2NfG67GLuutLps4Sz06Ur5VpWsbCZL/MXZB2GaTxX3VwW8PdbYrY4mbZ8MX4x8NOv+3vd7qWPLW/21Poy5qL/Vm+462jv5mvc7resBEUFtQpydYSUuecfUTOksaBqwShAbseinv/5EfdCySTxrHbutqJ6nUySJc9XZqC4MTueIWpXJrgXztjFi6dJmaP3++eurJp9STTz6pnvzXk+qpIKid/s50tXz58rBNr1691MQJE7uMU6tUZGlXJA3HztCuWdM88w/bZmiXJbXJ4yzvkqdfnrbmop8DWfJixB4fUiODRUgq+bj2aXlh5mW8PP3z5u3t2fVxeZFUL6lNl+l02PKeatdZA9W0ocvUYyMXd6m3Uwl6nx6+VH1w+hA1cFXP1PatkJp/ggIj1652+dFItcu5Iyttgz9m/S17vx2W6/owH9V31AX9heSl/O9BKu1lCcuC9pJKXurt7cfNDzAR1BbkekHQ6TXXXNNp0eUiS97Vz0w7PaGjdPH/To7N9//I98MlGqCjXP5Iec8t9lA9JwZLkIZNjHozFbqdpCFHO/ljbtNV3yW1hFcXjWWj8ePDcvkw2MIF87vU62XhwgVqzpw5YdtxG23kbCPLw/fe1mmJqzPLk+qEmY9rl1TnKpd14Sq3y3S5WW/Wua5onn7qFzstSfWu/mbaqa3RX7jKO8qM/p3aRu10fVzebK/LJXVxPZ90aj73dF7oMr0udD87nzSeLjfTYCVKOufvOGBwxyKkXq+b5Xpd99d5XW+O36kuYbyQrrf667zuo9vb8zdTu23IKjf7h+0c/cx1qTfTjv4GKZPHgU53nT0g/EDYE8MXq/ELe6sJC/uqHmuCVx+r3aCVPdSE+X3Vxov6qKeHLgnvsd1hdv8u7SS9+uqrw/MraZZySXW5pPY8s/ZLK4/rb+btNPzHgVwRjRY7P3KvvmrUnn0rc7bqxc7njAjrJRW6XkiZ9Nd1ulza6zGlvZC8PX5SHjAR1BYU98IgqZD7OvUiLya6XpjtzbyI62em5hPafGLH5XtM2EO1BYuw+0m5pIu/u38QCO+v+h7/vU71Zmr3t/NmKuPKdoWr3k5t4X2Rwf6uCRZJ+/atvPDNmjWzUm7Vm/mZM/8dth00aJCz/pH77lATt95BbbHNDmpisAhdL3VheVQved0/7BeU6XrJ6/FF3Phhu5jxzfnp9pJKOynX8zPbJ40vzHpz/HDR61EqPvrpz3csZ/zXlzrqzzjtS53rgrzdX6fSr1PbaBxZN7eh2+u8LHpcWe/UNmgnzO2Y+bT52eQ4uJ5Pkl577bWdnntSLqnQZdJOUv28lFSXS17EjSd5c3s6lce/nZfAbYfvXtuxSF7qZV1IutnHvtGxLovUu/rp8e/8jyGd66K8OYa0E3oe4XrUX8bX+bj56X5mqrejl3CMqN4sl/npcuHqp9dd29HzM+kynY5eVrkX/2OvjVLffnac+q/nNlTnPb6J+uC7Q1WPoEnPYPePeXOEOvup8eq0aRuEbaSt2GBZny7jyTndd999w/MraVy55IXU68eFrtflokg/u1zyejw71WLrg9T805GPUp0Pmxp53X9UELRKftTelddqs31YFuR1nZTvfM5wdes+08NF1m+L0kqvzuN3ykd/zPEBjaC2IPsFwU7XX399tcEGG4Sp0OVaXD6un5l2ekJHad/jvqeWfO+AMC+p5O120QBdyuWPtJeAdsV1Z3QqN1O7v513ptLEzCe0M4VXF+XNKlr0j1z06SP/ipc3sc714ZXIaL1P7z5h2/BYOerFkGHD1ZChlUXoevHSc0+ql6c9GaZC9xe6j/QXenyRdXzdX1LdX+rD7QaLuV3dX9oPjtrrfNz4Eye9zzl+x3qwmHPdYsut1cRgkVToeiFlul7Y/fUirr70wnCR9id88uSwXI+px9ftdVtZhIyn2+rt6XElNeer80KPIe0/Gm3TrLe5nk+afK+pfv5JuaTCfD7az8u456mQ8fSidWkXkz75Px/pWEJBuXnLwWaf+HZlffeDKuUJ/TRpp9vv8L/XdBpPyjsJ+kkAedeBQ8OspGFwmbYdOw2Y2+0Q1HcZQ0T99PzMfp3mmbA9TY5x+LiJ0seHL1az+q5S941eoH49cYa6ZYO5am6f1eqgIKgduryn+kYQ5B44Y6h6YfBS9dsJM8I2U4O20uepIZXbFczxxNixY8PHgKRx5UL3E7rcfOzoflOnTg0fL5KKuH5p473//e9X1113XUc7CXalTOfjUrnA0LHovJWG27DKwzKd121i2uv8yD37qp1+ODxcZF1Iets+74aLOX6nVC/GeIBGUFuQPKHiXhjsejMvzPZmXsT1M9NOT/Ao7TFh9472QvJ2O2H306m077F5NIajXtKwLiHvSsM2CfVmO5Psq7ksXrwoLB81qnLlxK6XRQc9o0aPDtNFCxd2qZdUmOU6r/tP2Go7tXmw6NRu58qLrOObdXp5/MF7Om3XbKfXs44vwa9Zr5fwKma06LyIy+v1uLxel+Ujn/hsx3LWt76qrrn8oo46YbaXerO9WS8kzZI3xzg7GPNqY5tSb5Myeby5UnnDl+X6668PgwFd7uonzNQu1/30mHqxx5FUrjSG59XIi/edfXXHsn2w6Hqh2wuzv9DtdV9dL8ztDQ+CQ3s8Oz98tw925IXkze3oxZyfHt81npm/64PDOvUXur/Q89PjCdf4Zj7Ns0OWqNO3f0NduclM9a9hi9Wfxs1RZ2/3pvrpltPVB2YOUZss6afuGTNf/SYIaP8ZBMDS5oqgrfR5bsjSaJTash8zRel/kJlcZabgSGZKtaLtNcnL1d2Re/VRt39ghtrxh8M6Ugl0ZV23S0oBE0Gth+SpLE9onVbK2lWfY7+rlv3gwDB11etUl0sq7c3yyrq7Xqe6Xud1Km3N+kpNhV1upi7hlUe5uhil77z9ttI/b/r+ffdVffv26VQvaZ+gbJ+gbvDgyn13b78tn7TtPI6kIi4vXnnhmSAwHKYGBcurwXrWfnnbmamQ7entClf/tLzQ5XYavvkHi5mKuLww29t5M732D79XE7aYpDYPluM/dlLYNmkcaafbC10vzHGT8rJNPc5x0TZ1O0nzkKtcsmQJJKTNDTfckNpWjynLAw88EJV25XoGhFclo+WpMz8alVbY7c28tNcfJHs66udqf89BlSv8Imk8CTrvDtpKaio6P6Hzur/MN0nW8WzyGEhb5B9Ab/VbpvYNgtr3+q1U14yr3N6UZYnbhl1u5s11V508TuSqqyyy7mpnLna5md97773Df6TJIutmO9ciFxeypHobZrm44wPvhXlJhdleAlTJ60DV1X/kHpX/YZN0xB6VW0Xsdq4UMPGLYgUdffTR0VpXN910U7RWsddee4VvbGLGjBnqoYceCtc1PVZSP9Pfwl8Uc1txzkGq77duj3IVUmbTbda+8ohadeOZ4brofczZHffCCnO8PG2Ttulit99+VyNgaAsCvoGD1Ec/9nE19b571fjxG6tNNt1UPXj//erZZ58J69/3vu3VnnvtHXUIXlCDh/VVV/xBLVmypPJLRMajfOGCuer1l6ZFuQq9vYXzg7qX19VtOnFrNXhYEAAE/Z118t//wfhP/d8D68awxt90i6DdkEoQYY8R9gn6L5zXuVzo8Z56bF1AJGVJ40vb7XcL+pnP6mj/Dzn08Eo+INVS/MMz/1t9++wfB/n2IN9m5JV69cVp6oarL5XmoWM/+mk1IbpFQPfXXg7a3mi0PSZoq29ZkDE1GfsVa1zxrbPP7di+Ftc26/zOMcYSWZ+zcc9Xs7+0t8czy+znedxzWX5RLDo9HeY+ert6+qwTo1zw2D7rqvDKpbj34JFq8q2zw/ayvl+wrvvPCfo9Y/TbLug3Iugn9bNj6sw+MpY5vqa3oyXNT5j7Y89JyPj2fITehr09e/72/PT2pJ/pmGOOidaSjVzRW/3omc3UQyMWqos3rQRdWcg5fvDBB6Pcuu3Z5RJQmo8ns04U6Zelj7jxxhvDNMuxmP+lqcGxbAuOZeW1wE7vnFz5rILpwH+MCetnP7xSPXn6/KhUqR1+MFSN3LNP2G/Wwyu61IUfBjPG1e3Ncex2calrXui+CGoLSnuDlDcxzX4zkxcik/nCZbL7ac6fyY1SCTwrgea68rWvPBqknVVuV+hab5a7xpO85tqO7m+20+z2ZrrSCmrft8u646dJ0Lr1Ntuom2+6Mfww0IIF614oN9xwnDrs8COinFKPPvyQ+te/nohyXS1cMC9aU+qNl5/vtD2zbvCQylVTLa5Oyu28lmcMk65ztU8aw96edrAR1GqvvPR8eKVTc+U1s9wlrq2r3CwTrvK0tiJum+JHZ30zWqtIes6az72456tZ7gpqpZ3ZJmlMreNnci0SDGoSfGpSrvPmuhbXTySNKaQsbsw827GZbYVun1TuGlO3j9ueHdQeddRR4dcAyltcUjp0ZS91/jMT1P0j5qtLN3kvtb2Zvvde5aqkkKuraeWS2q/zRfrJ4ymt3BzPLnel8/9zquuluSOd/dDKLuVy64Cr3iyXdPYjQV2UD6/IRuW6n2scu11cevf+s4IVoIKgtqAjjzwy9gXi5ptvTqyvNv3bFkFQ63qCa44nfrPXr/rRwcHKOtvutO4KsGmvvd+vdtix8iMMf/7TH9X0d94J1yWoPfzIo9Ty5cvUvf/4h3rt1VfC8jjPPrEu6N548y3VoJhAsJUcPOVw52lp1fS871Y+TKVJkJPl+ZWWyvNbftwjS6CQls456bfBhNflgxXyBfNTp1TupdfkfGclQe2qHu3qm9u8GpV0Pwu+tO4DjT65+wCCWqzDPbVVkBdSVypveCKuvtpU3rHDNTutrHYt12lltWu5TiurXct1WlntWq7TymrXcp1WVruWh391JvdFhveBGveDSvrg/VPVVVdcpp6f9lx4pVbXL5g/Xz3z9FPqyssvU6++8lJsf52O32wLNX7zyjJw8JAu9Wn9fazvdI9tN8jbsj6/0lJ5fstVtKztk1JZI19O3hbedxnUZUnvHDVXvd1veeb2rZrKc8e3FDAR1BbUp0/lewvliWWnY8aMcZaXlcoTueNNvAXS9Xp3fRjKd8yGvwylF2kfpXPnzFV33XG7WjBvfke9BLj33nO3WrZsWef2ejH6Szpg4GA1YEBlcdWn9fexPvz+Vr20eL5fv+i7Mg3ynJXjkPV5FpeW+fyWxz/56vN9He9k/ftXfjBBpKV/Hz1b/W789MztWzUN/5XgUbpez4GVFSBCUFuQfNl11heKslN5QodrUdb3/PE7dv2qmcOmyE9/yhtWZQkDYEdKfY76IACoBANR2sL5XXasfC2aSZ6zIuvzrB6prJGvPn/Ahv3CMtN++1V+8jvLIl8JtrRH5dtVuutSec3onIZfneYob5b6/xh7XHS2gYqeZwWideSw2267hT/H+s4776jVq1dHpfXx4vCdg7+DF6Lo7+gl3rv8gD491cd3Had+d+z7whLTvu/fWy1YuEC98eZb4dVXeREL/goXWdd5vU59ev1mE7bslG/FZeCA9dTee+yijjy064eJ9HN2+vTpdX/Oxlm606HRGoro17NNHbxRf/Wt7YdEJevssssuasGCBeFrtP7xFsRbsetb0VqgLViCl5AOTZZfr/dANWXDj6uvTzovKgEq+KAYAAAAvMftBwAAAPAeQS0AAAC8R1ALAAAA7xHUAgAAwHsEtQAAAPAeQS0AAAC8R1ALAAAA7xHUAgAAwHsEtQAAAPAeQS0AAAC8R1ALAAAA7xHUAgAAwHsEtQAAAPAeQS0AAAC8R1ALAAAA7xHUAgAAwHNK/X8NjJdwZ5zjOAAAAABJRU5ErkJggg==;" parent="1" vertex="1">
          <mxGeometry x="630.46" y="-360" width="381.08" height="270" as="geometry" />
        </mxCell>
        <mxCell id="4v4AGWWlLgVqddMLJCEB-67" style="edgeStyle=orthogonalEdgeStyle;rounded=0;orthogonalLoop=1;jettySize=auto;html=1;entryX=0.5;entryY=0;entryDx=0;entryDy=0;" parent="1" source="4v4AGWWlLgVqddMLJCEB-63" target="4v4AGWWlLgVqddMLJCEB-4" edge="1">
          <mxGeometry relative="1" as="geometry" />
        </mxCell>
        <mxCell id="4v4AGWWlLgVqddMLJCEB-68" style="edgeStyle=orthogonalEdgeStyle;rounded=0;orthogonalLoop=1;jettySize=auto;html=1;" parent="1" source="4v4AGWWlLgVqddMLJCEB-63" target="4v4AGWWlLgVqddMLJCEB-10" edge="1">
          <mxGeometry relative="1" as="geometry" />
        </mxCell>
        <mxCell id="4v4AGWWlLgVqddMLJCEB-63" value="auth controller" style="rhombus;whiteSpace=wrap;html=1;fillColor=#d5e8d4;strokeColor=#82b366;" parent="1" vertex="1">
          <mxGeometry x="250" y="380" width="174" height="120" as="geometry" />
        </mxCell>
        <mxCell id="4v4AGWWlLgVqddMLJCEB-72" value="" style="edgeStyle=orthogonalEdgeStyle;rounded=0;orthogonalLoop=1;jettySize=auto;html=1;entryX=0.442;entryY=0;entryDx=0;entryDy=0;entryPerimeter=0;" parent="1" source="4v4AGWWlLgVqddMLJCEB-69" target="kTSnjcyp7PbZxTP0yt8h-8" edge="1">
          <mxGeometry relative="1" as="geometry" />
        </mxCell>
        <mxCell id="kTSnjcyp7PbZxTP0yt8h-12" value="" style="edgeStyle=orthogonalEdgeStyle;rounded=0;orthogonalLoop=1;jettySize=auto;html=1;" edge="1" parent="1" source="4v4AGWWlLgVqddMLJCEB-69" target="kTSnjcyp7PbZxTP0yt8h-10">
          <mxGeometry relative="1" as="geometry" />
        </mxCell>
        <mxCell id="kTSnjcyp7PbZxTP0yt8h-20" style="edgeStyle=orthogonalEdgeStyle;rounded=0;orthogonalLoop=1;jettySize=auto;html=1;entryX=0.5;entryY=0;entryDx=0;entryDy=0;" edge="1" parent="1" source="4v4AGWWlLgVqddMLJCEB-69" target="kTSnjcyp7PbZxTP0yt8h-19">
          <mxGeometry relative="1" as="geometry" />
        </mxCell>
        <mxCell id="4v4AGWWlLgVqddMLJCEB-69" value="history controller" style="rhombus;whiteSpace=wrap;html=1;fillColor=#d5e8d4;strokeColor=#82b366;" parent="1" vertex="1">
          <mxGeometry x="870" y="380" width="174" height="120" as="geometry" />
        </mxCell>
        <mxCell id="9jWAlJ0byO7zGb7Tsrd4-2" value="" style="edgeStyle=orthogonalEdgeStyle;rounded=0;orthogonalLoop=1;jettySize=auto;html=1;" parent="1" source="4v4AGWWlLgVqddMLJCEB-71" target="9jWAlJ0byO7zGb7Tsrd4-1" edge="1">
          <mxGeometry relative="1" as="geometry" />
        </mxCell>
        <mxCell id="4v4AGWWlLgVqddMLJCEB-71" value="&lt;div&gt;Request&lt;/div&gt;&lt;div&gt;&lt;br&gt;&lt;/div&gt;&lt;div&gt;method: GET&lt;/div&gt;&lt;div&gt;&lt;span style=&quot;color: rgb(51, 51, 255); background-color: initial;&quot;&gt;url/api/v1/history&lt;/span&gt;?&lt;font color=&quot;#ff0000&quot;&gt;${city}&lt;/font&gt;&lt;br&gt;&lt;/div&gt;" style="whiteSpace=wrap;html=1;" parent="1" vertex="1">
          <mxGeometry x="660" y="680" width="150" height="72" as="geometry" />
        </mxCell>
        <mxCell id="4v4AGWWlLgVqddMLJCEB-74" value="" style="shape=image;verticalLabelPosition=bottom;labelBackgroundColor=default;verticalAlign=top;aspect=fixed;imageAspect=0;image=data:image/png,iVBORw0KGgoAAAANSUhEUgAAAUIAAAB1CAYAAAA7peg9AAAAAXNSR0IArs4c6QAAAARnQU1BAACxjwv8YQUAAAAJcEhZcwAADsMAAA7DAcdvqGQAABeJSURBVHhe7Z0HeBVVGob/hNBCQjCBhN5DIBQNKNhQUGBlFXBFUBSkKSIqqCggyyooKghSdRWkigILggoWWAFxrfQeOhggtEBCSUggIex8585JJpO5NfcmczP/+zzzZOZMO7fMd/92TgLS09NvEMMwjIUJVP8yDMNYFhZChmEsDwshwzCWh2OEJiErK4uuXbtGV69eJeUzEX8zMzPVvQzD+BIWwiIkICCAzp8/TykpKRQUFERly5YVS5kyZcRftDEM43tYCIuI69evU2JiIoWFhVFkZKQQRYZhigYWwiLgwoULdPHiRapVq5aw/hiGKVpYCAsRWH3Hjx+nkJAQqly5strKMExRw1njQkKKYHh4OIsgw5gMFsJCAgkRWIIQQoZhzAULYSGAxAhigmwJMow58ThG+M0331CXLl3ULXNy8uRJmj17Nv3444+0efNmqlChAjVu3Jhuvvlm6t+/PzVq1Egc16pVK9qwYYNY9zZwiRMSEqhmzZpeTYxAWJctW0bx8fFiOzY2lrp27Sqy0AzDuIfbFiGKfHv16kW//PKL2mJORo8eTW3bthX9ff/99+nQoUO0b98+GjJkiNj/0EMP0ciRI+nGjRu0c+dO0eYLUCcIcfJ2dnjJkiWiCHvo0KFiwetEG8Mw7uOWRXjlyhV6+OGH6b777qMRI0aoreYCbmjv3r2pYsWKNHHiRLtFyadPn6ZHH31UWGpfffWVGM3hCw4fPiysNW/XCQ4ePJhGjRolahDBqVOnaMKECTRp0iSxzTCM67hsESYlJdH9999Pjz/+uGlFEEAgqlevTlOmTHE4MgPxujVr1qhbvgEWG/rgi2JpDMGTIgiqVKlCaWlp6pZ3GT58uLpmPoz65qi/vvgstGiv7+t7Md7DJYvw2LFj1LFjR+FuduvWTW01H7t27aJHHnlEuLoYomaPmJgY8ZokpUuXFkXO3gYWdGpqqrA6vcH27duF9Qpr1hEQ+c6dO1OLFi3UloIBYRk/fry6ZYzRMa6cVxA8uSfECeEQX+Hr6zO+walFuGPHDuEKT5061dQiCGbOnEnPPPOMQxEE+/fvF66wXHwhgiAjI8NpX9xh4cKF1LNnT5oxY4bD5cknn6SVK1eqZzEM4wyHQoiESKdOnWjBggXUrl07tdW8bNmyhdq3b69uFT0QQm9niqOjo9Ut+zRo0EDEDL0NrC25aJHb2n2utMltLUb77B2nx6gNFppcjNDu1x9jdI7RMUbnAm2bXHd2vNE+uW1vv8ReOzA6V9umbQdyW7/P6NhiAVxje0tERARsfI8WxR00vKYvl+Dg4BuXL1823OdsiYuLM2wvyBIfH38jMzNT8ZS8w4ABA9Q157hzrDOGDRsmFi3OtoHRMdo2o20jjNpdacP3UI+2TX5XJUbbepwdr9+W6PcB/bYWd8919VoS/TU92S5OOLQIFy1aRJUqVaJ169blcSVdWeB+Fjb4pbp06ZK65Tpnz54VpTX+COKiWHyNt2J92uu4ek1P7o3vgvL9Vrfsoz3GleP1uHO+J9eXeHquo/fBWd/1bZ72wR9wKIStW7cWsSbUDfo6w+oNateu7ZEoIAnhisvpLkjC4EfBl8ydO5fmzZunbvk3EDy9W2wE9uvF0ajN35BuJxZXkMe5ejxjH6fJEozCgEWIQuSlS5eqreYE8UFPioq3bdsmRN/bID6IOKEv6du3rxglU1yAmElBtBIQM1hccnGGlay1wsCpEAKUf6xfv14U686ZM0dtNR/PPvssffHFF3T06FG1xTmovYNV1b17d7XFe0AIfW0RNm3aVBRs+wtagXNV7JydY+86rlhK2mOMji/o/qJA3w97/TJj34sKl4QQIFa4du1aWrx4MY0bN05tNRdwjfv06SOGnKHg2BVg6UJMWrZsqbZ4j8Jwjc0EBEkvSvo2vfurdWdlOxZHbq7RPn2btJDwgMtFj/4YoLWs9Pv1Vpez/e6Ac+V1sLiCPMfRffV9lNfWtwNH1ynuuD3pAsa09uvXj6pWrerwy1pUYDQHrDvM/bd8+XKqUaOGuicvmBYLo1CSk5NFfZ6vJis4cuSImNxBftkKAgraUSPoLJ6JxA9+sHC8mXAmcK5gdA1vXNdfwffKygLmLTyafQZv/Oeffy6SKGYkOzubpk+fLorAUQeJyRfatGkj+r1161YxE838+fPpxRdfpIEDB3pFpOwBoS1RogRFRUWpLZ6DOkmMLMFwR0dgZAnGhMfFxakt5qCggsUimBcWQe/h8TRc/gDKYjANF6yjAwcOiDbE03r06CGSDBEREaLNl+DLiuF8sEy9PQONv2Fl0fIm8oebRdB7FGshNAv4wmJOwoYNG6otDMOYCZeTJYzn4BccU/T7YtgbwzAFh4WwkEAyBrPRYKJWhmHMBQthIQH3GPMkYqYbtgwZxlywEBYiUgwDAwNFiYuvR50wDOManCwpIvAvBRITE4XLjGJ1iCPDMEUDC2ERg8JuLKg1xCSuKLHBXyyO/tUAwzDeg4XQJMBCxLBALHCZsWAUD8MwvoeFkGEYy8OBKYZhLE9AWloaW4QMw1iagKSkJBZChmEsTcANHrnNMIzF4RghwzCWh4WQYRjLw0LIMIzlYSFkGMbysBAyDGN5WAgZhrE8LIQMw1geFkKGYSwPCyHDMJaHhZBhGMvDQsgwjOVhIWQYxvKwEDIMY3lYCBmGsTwshAzDWB4WQoZhLA8LIcMwlqfYzVB96XIW/ffnc3TgSBodS0ynIwnpVLJkADWOCaWYeuWoXq1ganNnuHo0wzBMMRLC/YfT6Id1SUIEk85fU1uNaRQdQv/oGCUWhmGYYiGEny1NpNmLTtCV9OtqC9E9t4dT7eplqYFiBWZmZtP2PZdo36E0IZgSCOJT3apRu9YRagvDMFbE74Vw+Nj9tO638+oW5Vh6EDkj9h5Mpa9+OCMWyXsjY1gMGcbC+LUQzvz8OH36xXGxXjmyNI0eWp9aNAsT286AIM79TyL9pIooiyHDWBe/FcIN2y7QCyPjxfotjcvTpxObiHV3yLiaTS+9EU9bdl4S2/OmNKPGMcaWJMMwxRe/K5+BeCEhMnriIbEdFBTgkQiCMqUDFSsymhrULSe2l648Jf56g+vXb1DCiXSKP5BKFy5lqq352bb7Ej07bLdYEMM0E3gNg0bsEX1b/HXue4NY7NerztCfWy9Q8Ui1MVbHbyzC1LTr9PH8Y/Tzn8l0Jumq2ko0bFBd6tapsrrlGet+PU/D39kv1pfOjKPaNcqKdU/4dUMKfb36DP2x5QJdu5atthJFVixF990dQf0er043hZVUW4lW/ZRE/3r/oFifNLohtW5lntKeq0r/7+7yp1h/qH0kvflKfbE+Qnmv1irvGXj39QbU/p6KYp1h/BW/sAgP/XWFnnh+Oy1RLDYpglWiSlOLZuULLIIAAoUaQzBn8Qk6l+y4/MaIi5ey6PmRe+jl0Xvp5z+S84ggOHvumrCqug3YJkTSnzl5JveHKPFUhrrGMP6L6YUQotTjue10Sn34IHyLPr6FVsxrQZ+M98wlNqLDvTarBrWInXpvoUGv7xHJGFdIu3KdnhqykzZuu6i2EMU2CKFnnqxBPbtWpZtjQ6lUSdtbDcF86Y299D/FsvVX+j5WTSSn4pqUp7+1qaS2Moz/YnohHDX+gLpGNPrVaOEK168drLZ4jzturaCuEWVl3aBN2y+KjPSLo2wJGUdM/PgonTxts4wqhpeiaWNjaf7UZjSgZw0a8nRtmvVBU1q96Da689abxDEVwoKoXHAJse6PtL0rglbOb0EzJzQRljnD+DumFkJYZDKji/KWB+/Pb33Abe7+bK7F6CnRdcrRph/upOWzm9PIwfWodSubaP2puLFtum4Q60YgwfHtmrNiPbhsCZozuSnd0SJXVCUh5UrQlLca0YgX6tKST+JcLvNhGLMTGnW3WPwZUydLer6wQ4wE6dO9Gj3ft5bamstfx9Op/9BdYnwxkhGzJjb1qoXyw09J9IaayHiscxV69bk6Yl3L6+8doDX/OyfWIXJdH3QvZukoWZKdfYP2HEilZd+eplNnbUJfXxHsXoq7DddUy/rfk8X4aogx3HE9cMUh2qVLB1LvbtXUVhspFzPp+7VJ4hgkcpo0DFWsvnCqpFi3d6nJki5/i6JRL9UT67v3X6bfN9ninLgX7gkQA72UmkV1awWLmkxkxDHqB9lnfC4d76skSp304BuI7PqX6uusp1j8cLvvuf0mSlA+45+U1wYQFkH/8OOHBBd45O9RVD4kiJYq5yI0ge/B009Up1Xrz9HVq9lUoXwQdVc+Oz3HT2aIMAjAD1fTRqFivSixJyaXz/yqrtmO0W7bQ17L6FhHooXjXekHcLW/RhgdY9RXgP329nkL0wohBBBCCBAT1LvDEMEBr+0WD7EED8Hcyc3EX8m8JYl0WHlwxrwWTYEBaqMbTFDc3iUrbKUjbynXwMMsuZaZTW0f3SgSIxCDtUtainIed7AnhOdTMmmw4pZD3PSUKBFA/XtUFzFIyatv7RNJGsQif1txu9qai8z0Bijd2/j9nWorCWv2rUmH8pXBBCpvFoT93WmHxXbnDpH0r5dtWeNZC4/TjAW2+OmSGbdQnZq2z6bdYxtFDPT25hVE8mm+IoJa0O9ximWvnfTCVsu5V7H8c+OrkupVylD7eyvS3MUnxDas7aaKSC/77jSN+/CIaEMYYqbSF4iz5Ou5zenDOQm05hebWC6bFUc1q+WtBHhn6mFRAgSMvl9FgdEDr29zVRTkcc6Od+WeRuAY4OxcV65v71rA0T5vgXuY1jXGQw0QS9N/SfHQfvLZsTwiCCAe2gTHIsVC+WhughCbNycc9Kjm7TXFCmx5i82N3bg978N6PjkzJzsMS8ddEbQHLMFhY/fliCAEPLpOMFVRrUBYWHidH807JrY9BRbi25MP57wvqKtEkif8ppKiD+M/somNu8C604sgQL/HTDooxFIy9dO/8oggfsQwPBKCfuJUhrAoHQErVCuCoeWCqFrlMoqlmGuZL/8+dzglwGe2er3NGkQBvRlE0BFSDMyGkTihzZX+6o9x9TxfYVohjFAeRhBVKb+rC6sG9Wt6IJrSfYMITppxVKwDiOHYKXktH9Qm9nt5F/2x2XE5S6TahyMJV8RfSYamRKZ8qPeSH8u+O0M7420PN0RhxfwWtPDft4i//x7XWLlXkNgHkXA2044j8P5A8MDDD0TR2qUtRZJn9cLb6IM3Gypi5Jmwwz2GK/ye8hn99GUr+vCdWKqqiBPAey5jqnBxv1SsOwCLevLoRvTdglvps2nNlPNaCncc4umI3zenCDd6+azm9PPyVjRjgq2S4Nabw3LCB9+tSRIJMAkK8tMzbJ+dP8xA5K41BEHxpQXlDVzpX2EJI/piWiEMvynXvXUXWDpwn/Rs2HZRFGQDPJDPjdhNu/ZdpqFj9tKmHfldMwkyweDIsbxCiPiTRGvlFBTpskEcpoxplOfH4DblAR81xCb2ELHv1tosG3dBPSZieKBZbKhIEMkSH4DZewb0rKluuQfcaohau3sqiiRRK8VVHjcy94cL80SCVWqMDgwdWIfuVhNUoFSpQPqn8jphCTuiUkQpmvp2I6pRrYx4v+Tx+LHsrtaYYmSPtlzpm9U2IS5bJjCnbMqMeEMIPLW0cI52KQjuXEu/v7AE3bRCWEv5YgNYYZhCyx0a1i8nptfS0/6eCGpzR7gYIgYRlEPaMhVrAXEqe/eRD27VKFufJGHlS+aUwcQfTBV/CwosVukSw22Dm6rn3jsjcuKdO+Pde28kB4/kijpED8Kh5zY1JABUw9El6tYsKxIeWmLqh4gYIZAZ/sMaCxuJET3oU/Ommuy6QR+QlClbxtga79whKueeGO0D8FnKz/nB+yPtnltUaAUDIuCpEGiv4wny3gXpg0R/HXvXK+h9CoJphRCZR8SrwLc/emb12AMPwrnkvPFFxI2QeTVyxaSbikC9FohRyzhbqQwswl82FLxIOktz/9CQXItTC+4bqrrHyJhrybYTCJXXtcmCsq1RtjD1Wnq0Fq8UXkfIWxuJN84PU68n3dJsNbIACzIk2LgP8hyBQR/kd8QInCtnFEIZFIrzv15lswZB14cKPirJ2+hFw120Aqq9jqeC6Atc6Yt8HYWFaYUQyC/xN8qvOb7I3gKFzTLxoKXLA7kWhASusxxyd1fL/FaLNsb07rQjdFotc7HHhq0X8kwgq6dkUIAiQDYhQbbbCCSJpCseWdH2OpAkAIiFJafkn+RBxjel/MkYLDh01Pg+p5M8jz+6QkS4rQ9w8aXVrcfZ+ynjpfaQSROINEIOK/9rE0J/SJJ4C18ICq5pJGjOBMxZX+xd15fgfqYWwu6dqojxxADlEu66yAUFDw5KdADiaG0N/tcJatAQtwMQzD4v7VTcTuNZZDCL9gv/jKd+r+xy+IA3V18zZq/Bj4AWGHIffJKbBGoZZ7u3tn5ylZoRlWCWGNTNaYmpWy4nJojXiXtpgTjNXuTaEENPaaap3Zs+JyEncSNB1hj1gI4o4cRUbd60PNWqbiudmbs4MWcmIH/+Nw14cPWLbC9MpGhpF2dCJynsvjoCfTa1EKL499WBdcV64ukMGvR6PG02qDfzBajtQ62ZzDb2eDh/kbLk3ZENRMkGQAlP7yE7xdDA/6w4JdxlzJqD7DRKfsDRY+l2rTDw1KO58c2xUw6LMha47d/+eJaeG76bVqvigFKTv6t1jRjPLIGoTJudIGbCwbmvvLlX3YO4m004kIxAMTLALDO9XtwhhPq3TSki0dT/ld1Os+kFBYkKaf3+ujGFnlF+dFYoFhv6PWvhCXpi0PZ8k1fo0WmnIVL0UPcJzJokcUVEcIzRot1nhDvt9o41Qt5TLnrstWnb9cc42+8LTC2EoH6d4JzCYfzvkaxM2zdfPtBatCUSgQavTBv/07vAQLs/6XyuxeZs9mo8zCg7kcPmkHyBWGEM8iuj94kZbeBiA7hyyARrM6R64Lb1fby6ukVixMVrb++jMZMO0dZdNqsY1tyYV6OFoAFkZuUMOngfFnyZKGbCwbkllWPrqFOLaevnBz9dW1hMAHE7CDWSRrC+UZsXXiF/rM+bIMuLMh38BYjFvj35kOj3jAXHRJ+M4o3ugjIcbUYcRfFmS5IwRYvphRBg8gKMDpDjfwF0sElM3uQFYm9yiit9YgP8qlg7Mj7XpGH+ILscKid57qmatGRGnEMRlCAwjxq/gco5Ml6nBcXWeCC//DQuzwQP9hjUuyZNezs2x2LSEqeI1/LZcaJWTstkRWCxTwv6Mn1sLNWrYxNJrfwjHomRGUavDyU709+JVbd8B0IOM95vklOipKVTh0jq0z33B8FTUMKjfV/cHQbJFH/8ZmJWI5AAgPBhGiwJ3J5eqmuJ0Sko2tVaenAhYT3BhUVtmb4gGWOK82QqPQCxrh2KdQMXODUtSxQTN29S3tC6QeJDJjKi65YT42a1wJ3bezCN9h5IFZnixg1CnE4ce1Bxu7fsuChiYxAAjBg5ejydklOuiQwtCpD1YMgixjVjfkFYgh3aVBR9kaM+IiNKi1o9gPgmQhUAPzjSKt2197LoL8RbXz4DYBXD1S0fWjJffSCs6N3K/j37Uynj6nUx3hlD9fD5yEQKisthPeKz++u47T2LqRcihM4R6RnXqd1jm8S9cQ0UbDOMFr8WQoZxBfzHQjlmGoXj/pwoYXyDX7jGDFMQVmhGkjzQlv+tAJMfFkKmWIOyIDkpwwNtOUnCGMNCyBRrtP/In11ixh4shEyxBTWGmHAWYCgeEiUMYwQnSxiGsTxsETIMY3lYCBmGsTwshAzDWB4WQoZhLA8LIcMwloeFkGEYy8NCyDCM5WEhZBjG8rAQMgxjeVgIGYaxPCyEDMNYHhZChmEsDwshwzCWh4WQYRjLw0LIMIzlYSFkGMbysBAyDGN5WAgZhrE8LIQMw1iegLCo+vw/SxiGsTSKEEazEDIMY2kCwiqzEDIMY20CKlRuwELIMIylCahQJYaFkGEYS8NZY4ZhLA8LIcMwloeFkGEYy8NCyDCMxSH6P1wYs7J8CAtBAAAAAElFTkSuQmCC;" parent="1" vertex="1">
          <mxGeometry x="680" y="-530" width="322" height="117" as="geometry" />
        </mxCell>
        <mxCell id="4v4AGWWlLgVqddMLJCEB-75" value="user_chapter" style="swimlane;fontStyle=0;childLayout=stackLayout;horizontal=1;startSize=30;horizontalStack=0;resizeParent=1;resizeParentMax=0;resizeLast=0;collapsible=1;marginBottom=0;whiteSpace=wrap;html=1;" parent="1" vertex="1">
          <mxGeometry x="1870" y="-250" width="190" height="150" as="geometry" />
        </mxCell>
        <mxCell id="4v4AGWWlLgVqddMLJCEB-76" value="id: PK" style="text;strokeColor=none;fillColor=none;align=left;verticalAlign=middle;spacingLeft=4;spacingRight=4;overflow=hidden;points=[[0,0.5],[1,0.5]];portConstraint=eastwest;rotatable=0;whiteSpace=wrap;html=1;" parent="4v4AGWWlLgVqddMLJCEB-75" vertex="1">
          <mxGeometry y="30" width="190" height="30" as="geometry" />
        </mxCell>
        <mxCell id="4v4AGWWlLgVqddMLJCEB-77" value="user_id" style="text;strokeColor=none;fillColor=none;align=left;verticalAlign=middle;spacingLeft=4;spacingRight=4;overflow=hidden;points=[[0,0.5],[1,0.5]];portConstraint=eastwest;rotatable=0;whiteSpace=wrap;html=1;" parent="4v4AGWWlLgVqddMLJCEB-75" vertex="1">
          <mxGeometry y="60" width="190" height="30" as="geometry" />
        </mxCell>
        <mxCell id="4v4AGWWlLgVqddMLJCEB-78" value="chapter_id" style="text;strokeColor=none;fillColor=none;align=left;verticalAlign=middle;spacingLeft=4;spacingRight=4;overflow=hidden;points=[[0,0.5],[1,0.5]];portConstraint=eastwest;rotatable=0;whiteSpace=wrap;html=1;" parent="4v4AGWWlLgVqddMLJCEB-75" vertex="1">
          <mxGeometry y="90" width="190" height="30" as="geometry" />
        </mxCell>
        <mxCell id="4v4AGWWlLgVqddMLJCEB-61" value="complete: BOOLEAN" style="text;strokeColor=none;fillColor=none;align=left;verticalAlign=middle;spacingLeft=4;spacingRight=4;overflow=hidden;points=[[0,0.5],[1,0.5]];portConstraint=eastwest;rotatable=0;whiteSpace=wrap;html=1;" parent="4v4AGWWlLgVqddMLJCEB-75" vertex="1">
          <mxGeometry y="120" width="190" height="30" as="geometry" />
        </mxCell>
        <mxCell id="9jWAlJ0byO7zGb7Tsrd4-4" value="" style="edgeStyle=orthogonalEdgeStyle;rounded=0;orthogonalLoop=1;jettySize=auto;html=1;" parent="1" source="9jWAlJ0byO7zGb7Tsrd4-1" target="9jWAlJ0byO7zGb7Tsrd4-3" edge="1">
          <mxGeometry relative="1" as="geometry">
            <Array as="points">
              <mxPoint x="735" y="1060" />
            </Array>
          </mxGeometry>
        </mxCell>
        <mxCell id="9jWAlJ0byO7zGb7Tsrd4-1" value="&lt;div&gt;Response&lt;/div&gt;&lt;div&gt;&lt;br&gt;&lt;/div&gt;&lt;div&gt;LIst&amp;lt;History&amp;gt;&lt;br&gt;&lt;/div&gt;" style="whiteSpace=wrap;html=1;" parent="1" vertex="1">
          <mxGeometry x="675" y="840" width="120" height="60" as="geometry" />
        </mxCell>
        <mxCell id="9jWAlJ0byO7zGb7Tsrd4-3" value="&lt;div&gt;history{&lt;/div&gt;&lt;div&gt;id,&lt;/div&gt;&lt;div&gt;title,&lt;/div&gt;&lt;div&gt;synopsis,&lt;/div&gt;&lt;div&gt;&lt;span style=&quot;text-align: left;&quot;&gt;publish,&lt;/span&gt;&lt;/div&gt;&lt;div&gt;&lt;span style=&quot;text-align: left;&quot;&gt;img&lt;/span&gt;&lt;/div&gt;&lt;div&gt;List&amp;lt;chapters&amp;gt; [&lt;/div&gt;&lt;div&gt;id,&lt;/div&gt;&lt;div&gt;title,&lt;/div&gt;&lt;div&gt;synopsis,&lt;/div&gt;&lt;div&gt;img,&lt;/div&gt;&lt;div&gt;latidude,&lt;/div&gt;&lt;div&gt;longitude&lt;/div&gt;&lt;div&gt;],&lt;/div&gt;&lt;div&gt;}&lt;br&gt;&lt;/div&gt;" style="rounded=0;whiteSpace=wrap;html=1;" parent="1" vertex="1">
          <mxGeometry x="830" y="920" width="187" height="220" as="geometry" />
        </mxCell>
        <mxCell id="kTSnjcyp7PbZxTP0yt8h-7" value="&lt;div&gt;Request&lt;/div&gt;&lt;div&gt;&lt;br&gt;&lt;/div&gt;&lt;div&gt;method: PUT&lt;/div&gt;&lt;div&gt;&lt;span style=&quot;background-color: initial;&quot;&gt;&lt;font color=&quot;#3333ff&quot;&gt;url/api/v1/history&lt;/font&gt;&lt;/span&gt;?&lt;font color=&quot;#ff0000&quot;&gt;${id_history}&lt;/font&gt;&lt;br&gt;&lt;/div&gt;&lt;div&gt;&lt;font color=&quot;#ff0000&quot;&gt;&lt;br&gt;&lt;/font&gt;&lt;/div&gt;&lt;div&gt;body&amp;nbsp; {&lt;/div&gt;&lt;div&gt;&lt;div&gt;title,&lt;/div&gt;&lt;div&gt;synopsis&lt;/div&gt;&lt;/div&gt;&lt;div&gt;}&lt;/div&gt;" style="whiteSpace=wrap;html=1;" vertex="1" parent="1">
          <mxGeometry x="894" y="680" width="196" height="190" as="geometry" />
        </mxCell>
        <mxCell id="kTSnjcyp7PbZxTP0yt8h-11" value="" style="edgeStyle=orthogonalEdgeStyle;rounded=0;orthogonalLoop=1;jettySize=auto;html=1;" edge="1" parent="1" source="kTSnjcyp7PbZxTP0yt8h-8" target="4v4AGWWlLgVqddMLJCEB-71">
          <mxGeometry relative="1" as="geometry" />
        </mxCell>
        <mxCell id="kTSnjcyp7PbZxTP0yt8h-8" value="obtener historias por la ciudad" style="whiteSpace=wrap;html=1;fillColor=#ffe6cc;strokeColor=#d79b00;" vertex="1" parent="1">
          <mxGeometry x="635" y="560" width="190" height="60" as="geometry" />
        </mxCell>
        <mxCell id="kTSnjcyp7PbZxTP0yt8h-18" value="" style="edgeStyle=orthogonalEdgeStyle;rounded=0;orthogonalLoop=1;jettySize=auto;html=1;" edge="1" parent="1" source="kTSnjcyp7PbZxTP0yt8h-10" target="kTSnjcyp7PbZxTP0yt8h-7">
          <mxGeometry relative="1" as="geometry" />
        </mxCell>
        <mxCell id="kTSnjcyp7PbZxTP0yt8h-10" value="modificar historia&amp;nbsp;" style="whiteSpace=wrap;html=1;fillColor=#ffe6cc;strokeColor=#d79b00;" vertex="1" parent="1">
          <mxGeometry x="897" y="560" width="120" height="60" as="geometry" />
        </mxCell>
        <mxCell id="kTSnjcyp7PbZxTP0yt8h-22" value="" style="edgeStyle=orthogonalEdgeStyle;rounded=0;orthogonalLoop=1;jettySize=auto;html=1;" edge="1" parent="1" source="kTSnjcyp7PbZxTP0yt8h-19" target="kTSnjcyp7PbZxTP0yt8h-21">
          <mxGeometry relative="1" as="geometry" />
        </mxCell>
        <mxCell id="kTSnjcyp7PbZxTP0yt8h-19" value="crear historia&amp;nbsp;" style="whiteSpace=wrap;html=1;fillColor=#ffe6cc;strokeColor=#d79b00;" vertex="1" parent="1">
          <mxGeometry x="1140" y="555" width="120" height="60" as="geometry" />
        </mxCell>
        <mxCell id="kTSnjcyp7PbZxTP0yt8h-21" value="&lt;div&gt;Request&lt;/div&gt;&lt;div&gt;&lt;br&gt;&lt;/div&gt;&lt;div&gt;method: POST&lt;/div&gt;&lt;div&gt;&lt;span style=&quot;color: rgb(51, 51, 255);&quot;&gt;url/api/v1/history&lt;/span&gt;&lt;/div&gt;&lt;div&gt;&lt;font color=&quot;#ff0000&quot;&gt;&lt;br&gt;&lt;/font&gt;&lt;/div&gt;&lt;div&gt;body&amp;nbsp; {&lt;/div&gt;&lt;div&gt;&lt;div&gt;title,&lt;/div&gt;&lt;div&gt;synopsis&lt;/div&gt;&lt;/div&gt;&lt;div&gt;}&lt;/div&gt;" style="whiteSpace=wrap;html=1;" vertex="1" parent="1">
          <mxGeometry x="1125" y="680" width="150" height="190" as="geometry" />
        </mxCell>
        <mxCell id="kTSnjcyp7PbZxTP0yt8h-31" value="" style="edgeStyle=orthogonalEdgeStyle;rounded=0;orthogonalLoop=1;jettySize=auto;html=1;" edge="1" parent="1" source="kTSnjcyp7PbZxTP0yt8h-24" target="kTSnjcyp7PbZxTP0yt8h-26">
          <mxGeometry relative="1" as="geometry" />
        </mxCell>
        <mxCell id="kTSnjcyp7PbZxTP0yt8h-24" value="publicar historia&amp;nbsp;" style="whiteSpace=wrap;html=1;fillColor=#ffe6cc;strokeColor=#d79b00;" vertex="1" parent="1">
          <mxGeometry x="1330" y="555" width="120" height="60" as="geometry" />
        </mxCell>
        <mxCell id="kTSnjcyp7PbZxTP0yt8h-25" style="edgeStyle=orthogonalEdgeStyle;rounded=0;orthogonalLoop=1;jettySize=auto;html=1;exitX=1;exitY=0.5;exitDx=0;exitDy=0;entryX=0.6;entryY=0.017;entryDx=0;entryDy=0;entryPerimeter=0;" edge="1" parent="1" source="4v4AGWWlLgVqddMLJCEB-69" target="kTSnjcyp7PbZxTP0yt8h-24">
          <mxGeometry relative="1" as="geometry">
            <Array as="points">
              <mxPoint x="1402" y="440" />
            </Array>
          </mxGeometry>
        </mxCell>
        <mxCell id="kTSnjcyp7PbZxTP0yt8h-34" style="edgeStyle=orthogonalEdgeStyle;rounded=0;orthogonalLoop=1;jettySize=auto;html=1;entryX=1;entryY=0.75;entryDx=0;entryDy=0;" edge="1" parent="1" source="kTSnjcyp7PbZxTP0yt8h-26" target="9jWAlJ0byO7zGb7Tsrd4-3">
          <mxGeometry relative="1" as="geometry">
            <Array as="points">
              <mxPoint x="1430" y="1113" />
            </Array>
          </mxGeometry>
        </mxCell>
        <mxCell id="kTSnjcyp7PbZxTP0yt8h-26" value="&lt;div&gt;Request&lt;/div&gt;&lt;div&gt;&lt;br&gt;&lt;/div&gt;&lt;div&gt;method: PATCH&lt;/div&gt;&lt;div&gt;&lt;span style=&quot;color: rgb(51, 51, 255);&quot;&gt;url/api/v1/history&lt;/span&gt;&lt;span style=&quot;background-color: initial;&quot;&gt;?&lt;/span&gt;&lt;font style=&quot;background-color: initial;&quot; color=&quot;#ff0000&quot;&gt;${id_history}&lt;/font&gt;&lt;/div&gt;&lt;div&gt;&lt;br&gt;&lt;/div&gt;" style="whiteSpace=wrap;html=1;" vertex="1" parent="1">
          <mxGeometry x="1330" y="675" width="190" height="190" as="geometry" />
        </mxCell>
        <mxCell id="kTSnjcyp7PbZxTP0yt8h-32" style="edgeStyle=orthogonalEdgeStyle;rounded=0;orthogonalLoop=1;jettySize=auto;html=1;entryX=1.006;entryY=0.7;entryDx=0;entryDy=0;entryPerimeter=0;" edge="1" parent="1" source="kTSnjcyp7PbZxTP0yt8h-7" target="9jWAlJ0byO7zGb7Tsrd4-3">
          <mxGeometry relative="1" as="geometry">
            <Array as="points">
              <mxPoint x="1070" y="1105" />
              <mxPoint x="1018" y="1105" />
            </Array>
          </mxGeometry>
        </mxCell>
        <mxCell id="kTSnjcyp7PbZxTP0yt8h-38" value="" style="edgeStyle=orthogonalEdgeStyle;rounded=0;orthogonalLoop=1;jettySize=auto;html=1;" edge="1" parent="1" source="kTSnjcyp7PbZxTP0yt8h-35" target="kTSnjcyp7PbZxTP0yt8h-37">
          <mxGeometry relative="1" as="geometry" />
        </mxCell>
        <mxCell id="kTSnjcyp7PbZxTP0yt8h-35" value="eliminar historia&amp;nbsp;" style="whiteSpace=wrap;html=1;fillColor=#ffe6cc;strokeColor=#d79b00;" vertex="1" parent="1">
          <mxGeometry x="1654" y="560" width="120" height="60" as="geometry" />
        </mxCell>
        <mxCell id="kTSnjcyp7PbZxTP0yt8h-36" style="edgeStyle=orthogonalEdgeStyle;rounded=0;orthogonalLoop=1;jettySize=auto;html=1;entryX=0.575;entryY=-0.017;entryDx=0;entryDy=0;entryPerimeter=0;" edge="1" parent="1" source="4v4AGWWlLgVqddMLJCEB-69" target="kTSnjcyp7PbZxTP0yt8h-35">
          <mxGeometry relative="1" as="geometry" />
        </mxCell>
        <mxCell id="kTSnjcyp7PbZxTP0yt8h-40" value="" style="edgeStyle=orthogonalEdgeStyle;rounded=0;orthogonalLoop=1;jettySize=auto;html=1;" edge="1" parent="1" source="kTSnjcyp7PbZxTP0yt8h-37" target="kTSnjcyp7PbZxTP0yt8h-39">
          <mxGeometry relative="1" as="geometry" />
        </mxCell>
        <mxCell id="kTSnjcyp7PbZxTP0yt8h-37" value="&lt;div&gt;Request&lt;/div&gt;&lt;div&gt;&lt;br&gt;&lt;/div&gt;&lt;div&gt;method: DELETE&lt;/div&gt;&lt;div&gt;&lt;span style=&quot;color: rgb(51, 51, 255);&quot;&gt;url/api/v1/history&lt;/span&gt;&lt;span style=&quot;background-color: initial;&quot;&gt;?&lt;/span&gt;&lt;font style=&quot;background-color: initial;&quot; color=&quot;#ff0000&quot;&gt;${id_history}&lt;/font&gt;&lt;/div&gt;&lt;div&gt;&lt;br&gt;&lt;/div&gt;" style="whiteSpace=wrap;html=1;" vertex="1" parent="1">
          <mxGeometry x="1650" y="680" width="190" height="190" as="geometry" />
        </mxCell>
        <mxCell id="kTSnjcyp7PbZxTP0yt8h-39" value="Response 204" style="whiteSpace=wrap;html=1;" vertex="1" parent="1">
          <mxGeometry x="1685" y="1015" width="120" height="60" as="geometry" />
        </mxCell>
        <mxCell id="kTSnjcyp7PbZxTP0yt8h-54" style="edgeStyle=orthogonalEdgeStyle;rounded=0;orthogonalLoop=1;jettySize=auto;html=1;" edge="1" parent="1" source="kTSnjcyp7PbZxTP0yt8h-41" target="kTSnjcyp7PbZxTP0yt8h-47">
          <mxGeometry relative="1" as="geometry" />
        </mxCell>
        <mxCell id="kTSnjcyp7PbZxTP0yt8h-66" style="edgeStyle=orthogonalEdgeStyle;rounded=0;orthogonalLoop=1;jettySize=auto;html=1;" edge="1" parent="1" source="kTSnjcyp7PbZxTP0yt8h-41" target="kTSnjcyp7PbZxTP0yt8h-60">
          <mxGeometry relative="1" as="geometry" />
        </mxCell>
        <mxCell id="kTSnjcyp7PbZxTP0yt8h-41" value="chapter controller" style="rhombus;whiteSpace=wrap;html=1;fillColor=#d5e8d4;strokeColor=#82b366;" vertex="1" parent="1">
          <mxGeometry x="2420" y="370" width="174" height="120" as="geometry" />
        </mxCell>
        <mxCell id="kTSnjcyp7PbZxTP0yt8h-45" value="" style="edgeStyle=orthogonalEdgeStyle;rounded=0;orthogonalLoop=1;jettySize=auto;html=1;" edge="1" parent="1" source="kTSnjcyp7PbZxTP0yt8h-43" target="kTSnjcyp7PbZxTP0yt8h-44">
          <mxGeometry relative="1" as="geometry" />
        </mxCell>
        <mxCell id="kTSnjcyp7PbZxTP0yt8h-43" value="obtener historias por user" style="whiteSpace=wrap;html=1;fillColor=#ffe6cc;strokeColor=#d79b00;" vertex="1" parent="1">
          <mxGeometry x="440" y="560" width="150" height="60" as="geometry" />
        </mxCell>
        <mxCell id="kTSnjcyp7PbZxTP0yt8h-46" style="edgeStyle=orthogonalEdgeStyle;rounded=0;orthogonalLoop=1;jettySize=auto;html=1;entryX=0;entryY=0.75;entryDx=0;entryDy=0;" edge="1" parent="1" source="kTSnjcyp7PbZxTP0yt8h-44" target="9jWAlJ0byO7zGb7Tsrd4-1">
          <mxGeometry relative="1" as="geometry">
            <Array as="points">
              <mxPoint x="525" y="885" />
            </Array>
          </mxGeometry>
        </mxCell>
        <mxCell id="kTSnjcyp7PbZxTP0yt8h-44" value="&lt;div&gt;Request&lt;/div&gt;&lt;div&gt;&lt;br&gt;&lt;/div&gt;&lt;div&gt;method: GET&lt;/div&gt;&lt;div&gt;&lt;span style=&quot;color: rgb(51, 51, 255); background-color: initial;&quot;&gt;url/api/v1/history&lt;/span&gt;&lt;span style=&quot;background-color: initial;&quot;&gt;/&lt;font color=&quot;#cc00cc&quot;&gt;user&lt;/font&gt;/?&lt;/span&gt;&lt;font color=&quot;#ff0000&quot;&gt;${user_id}&lt;/font&gt;&lt;br&gt;&lt;/div&gt;" style="whiteSpace=wrap;html=1;" vertex="1" parent="1">
          <mxGeometry x="420" y="680" width="210" height="72" as="geometry" />
        </mxCell>
        <mxCell id="kTSnjcyp7PbZxTP0yt8h-50" value="" style="edgeStyle=orthogonalEdgeStyle;rounded=0;orthogonalLoop=1;jettySize=auto;html=1;" edge="1" parent="1" source="kTSnjcyp7PbZxTP0yt8h-47" target="kTSnjcyp7PbZxTP0yt8h-49">
          <mxGeometry relative="1" as="geometry" />
        </mxCell>
        <mxCell id="kTSnjcyp7PbZxTP0yt8h-47" value="crear chapter" style="whiteSpace=wrap;html=1;fillColor=#ffe6cc;strokeColor=#d79b00;" vertex="1" parent="1">
          <mxGeometry x="2080" y="560" width="120" height="60" as="geometry" />
        </mxCell>
        <mxCell id="kTSnjcyp7PbZxTP0yt8h-52" style="edgeStyle=orthogonalEdgeStyle;rounded=0;orthogonalLoop=1;jettySize=auto;html=1;" edge="1" parent="1" source="kTSnjcyp7PbZxTP0yt8h-49" target="kTSnjcyp7PbZxTP0yt8h-51">
          <mxGeometry relative="1" as="geometry">
            <Array as="points">
              <mxPoint x="2145" y="1010" />
            </Array>
          </mxGeometry>
        </mxCell>
        <mxCell id="kTSnjcyp7PbZxTP0yt8h-49" value="&lt;div&gt;Request&lt;/div&gt;&lt;div&gt;&lt;br&gt;&lt;/div&gt;&lt;div&gt;method: POST&lt;/div&gt;&lt;div&gt;&lt;span style=&quot;color: rgb(51, 51, 255);&quot;&gt;url/api/v1/chapter&lt;/span&gt;&lt;/div&gt;&lt;div&gt;&lt;span style=&quot;color: rgb(51, 51, 255);&quot;&gt;&lt;br&gt;&lt;/span&gt;&lt;/div&gt;&lt;div&gt;body {&lt;/div&gt;&lt;div&gt;&lt;span style=&quot;text-align: left;&quot;&gt;history_id,&lt;/span&gt;&lt;/div&gt;&lt;div&gt;&lt;span style=&quot;text-align: left;&quot;&gt;title,&lt;/span&gt;&lt;span style=&quot;text-align: left;&quot;&gt;&lt;/span&gt;&lt;/div&gt;&lt;div&gt;&lt;span style=&quot;text-align: left;&quot;&gt;description,&lt;/span&gt;&lt;/div&gt;&lt;div&gt;&lt;span style=&quot;text-align: left;&quot;&gt;latitude,&lt;/span&gt;&lt;/div&gt;&lt;div style=&quot;text-align: left;&quot;&gt;&lt;span style=&quot;background-color: initial;&quot;&gt;&amp;nbsp; &amp;nbsp; &amp;nbsp; &amp;nbsp; &amp;nbsp;latitude,&lt;/span&gt;&lt;/div&gt;&lt;div style=&quot;text-align: left;&quot;&gt;&lt;span style=&quot;background-color: initial;&quot;&gt;&amp;nbsp; &amp;nbsp; &amp;nbsp; &amp;nbsp; &amp;nbsp; img&lt;/span&gt;&lt;/div&gt;&lt;div style=&quot;text-align: left;&quot;&gt;&lt;span style=&quot;background-color: initial;&quot;&gt;}&lt;/span&gt;&lt;/div&gt;" style="whiteSpace=wrap;html=1;" vertex="1" parent="1">
          <mxGeometry x="2040" y="675" width="200" height="215" as="geometry" />
        </mxCell>
        <mxCell id="kTSnjcyp7PbZxTP0yt8h-51" value="&lt;div&gt;Response&lt;/div&gt;&lt;div&gt;&lt;br&gt;&lt;/div&gt;&lt;div&gt;&lt;span style=&quot;color: rgb(51, 51, 255);&quot;&gt;&lt;br&gt;&lt;/span&gt;&lt;/div&gt;&lt;div&gt;body {&lt;/div&gt;&lt;div&gt;id,&lt;/div&gt;&lt;div&gt;&lt;span style=&quot;text-align: left;&quot;&gt;history_id,&lt;/span&gt;&lt;/div&gt;&lt;div&gt;&lt;span style=&quot;text-align: left;&quot;&gt;title,&lt;/span&gt;&lt;span style=&quot;text-align: left;&quot;&gt;&lt;/span&gt;&lt;/div&gt;&lt;div&gt;&lt;span style=&quot;text-align: left;&quot;&gt;description,&lt;/span&gt;&lt;/div&gt;&lt;div&gt;&lt;span style=&quot;text-align: left;&quot;&gt;latitude,&lt;/span&gt;&lt;/div&gt;&lt;div style=&quot;text-align: left;&quot;&gt;&lt;span style=&quot;background-color: initial;&quot;&gt;&amp;nbsp; &amp;nbsp; longitude&lt;/span&gt;&lt;/div&gt;&lt;div style=&quot;text-align: left;&quot;&gt;&lt;span style=&quot;background-color: initial;&quot;&gt;}&lt;/span&gt;&lt;/div&gt;" style="whiteSpace=wrap;html=1;" vertex="1" parent="1">
          <mxGeometry x="2310" y="979" width="190" height="190" as="geometry" />
        </mxCell>
        <mxCell id="kTSnjcyp7PbZxTP0yt8h-57" value="" style="edgeStyle=orthogonalEdgeStyle;rounded=0;orthogonalLoop=1;jettySize=auto;html=1;" edge="1" parent="1" source="kTSnjcyp7PbZxTP0yt8h-53" target="kTSnjcyp7PbZxTP0yt8h-56">
          <mxGeometry relative="1" as="geometry" />
        </mxCell>
        <mxCell id="kTSnjcyp7PbZxTP0yt8h-53" value="modificar chapter" style="whiteSpace=wrap;html=1;fillColor=#ffe6cc;strokeColor=#d79b00;" vertex="1" parent="1">
          <mxGeometry x="2361" y="560" width="120" height="60" as="geometry" />
        </mxCell>
        <mxCell id="kTSnjcyp7PbZxTP0yt8h-55" style="edgeStyle=orthogonalEdgeStyle;rounded=0;orthogonalLoop=1;jettySize=auto;html=1;exitX=0.5;exitY=1;exitDx=0;exitDy=0;entryX=0.589;entryY=0.033;entryDx=0;entryDy=0;entryPerimeter=0;" edge="1" parent="1" source="kTSnjcyp7PbZxTP0yt8h-41" target="kTSnjcyp7PbZxTP0yt8h-53">
          <mxGeometry relative="1" as="geometry" />
        </mxCell>
        <mxCell id="kTSnjcyp7PbZxTP0yt8h-65" value="" style="edgeStyle=orthogonalEdgeStyle;rounded=0;orthogonalLoop=1;jettySize=auto;html=1;" edge="1" parent="1" source="kTSnjcyp7PbZxTP0yt8h-56" target="kTSnjcyp7PbZxTP0yt8h-51">
          <mxGeometry relative="1" as="geometry" />
        </mxCell>
        <mxCell id="kTSnjcyp7PbZxTP0yt8h-56" value="&lt;div&gt;Request&lt;/div&gt;&lt;div&gt;&lt;br&gt;&lt;/div&gt;&lt;div&gt;method: PUT&lt;/div&gt;&lt;div&gt;&lt;span style=&quot;color: rgb(51, 51, 255);&quot;&gt;url/api/v1/chapter&lt;/span&gt;&lt;span style=&quot;background-color: initial;&quot;&gt;?&lt;/span&gt;&lt;font style=&quot;background-color: initial;&quot; color=&quot;#ff0000&quot;&gt;${id_chapter}&lt;/font&gt;&lt;/div&gt;&lt;div&gt;&lt;br&gt;&lt;/div&gt;&lt;div&gt;&lt;span style=&quot;color: rgb(51, 51, 255);&quot;&gt;&lt;br&gt;&lt;/span&gt;&lt;/div&gt;&lt;div&gt;body {&lt;/div&gt;&lt;div&gt;&lt;span style=&quot;text-align: left;&quot;&gt;title,&lt;/span&gt;&lt;span style=&quot;text-align: left;&quot;&gt;&lt;/span&gt;&lt;/div&gt;&lt;div&gt;&lt;span style=&quot;text-align: left;&quot;&gt;description,&lt;/span&gt;&lt;/div&gt;&lt;div&gt;&lt;span style=&quot;text-align: left;&quot;&gt;latitude,&lt;/span&gt;&lt;/div&gt;&lt;div style=&quot;text-align: left;&quot;&gt;&lt;span style=&quot;background-color: initial;&quot;&gt;&amp;nbsp; &amp;nbsp; &amp;nbsp; &amp;nbsp; &amp;nbsp;latitude&lt;/span&gt;&lt;/div&gt;" style="whiteSpace=wrap;html=1;" vertex="1" parent="1">
          <mxGeometry x="2326" y="670" width="194" height="200" as="geometry" />
        </mxCell>
        <mxCell id="kTSnjcyp7PbZxTP0yt8h-68" value="" style="edgeStyle=orthogonalEdgeStyle;rounded=0;orthogonalLoop=1;jettySize=auto;html=1;" edge="1" parent="1" source="kTSnjcyp7PbZxTP0yt8h-60" target="kTSnjcyp7PbZxTP0yt8h-67">
          <mxGeometry relative="1" as="geometry" />
        </mxCell>
        <mxCell id="kTSnjcyp7PbZxTP0yt8h-60" value="eliminar chapter" style="whiteSpace=wrap;html=1;fillColor=#ffe6cc;strokeColor=#d79b00;" vertex="1" parent="1">
          <mxGeometry x="2660" y="560" width="120" height="60" as="geometry" />
        </mxCell>
        <UserObject label="https://github.com/Jesway/Flutter-Translate/tree/master/example" link="https://github.com/Jesway/Flutter-Translate/tree/master/example" id="kTSnjcyp7PbZxTP0yt8h-61">
          <mxCell style="text;whiteSpace=wrap;" vertex="1" parent="1">
            <mxGeometry x="380" y="-760" width="380" height="40" as="geometry" />
          </mxCell>
        </UserObject>
        <mxCell id="kTSnjcyp7PbZxTP0yt8h-62" value="" style="shape=image;verticalLabelPosition=bottom;labelBackgroundColor=default;verticalAlign=top;aspect=fixed;imageAspect=0;image=data:image/png,iVBORw0KGgoAAAANSUhEUgAAAm8AAAF9CAYAAABSwI+FAAAAAXNSR0IArs4c6QAAAARnQU1BAACxjwv8YQUAAAAJcEhZcwAADsMAAA7DAcdvqGQAAEqXSURBVHhe7d0JvB1FnejxOje5W3KTmx0CCYRNEVAQURZBAiiERYNsjjxFRRz1zWdmHug482ZGBZ0RdMagw4wDz4A66lMBEVQQEJBFBceHyyCLyyCQhD1kvcnNXd/59+m6t26luru6T5+lz/l986lPuqurq6ur+5zzv72WxssUAAAACqEj/B8AAAAFQPAGAABQIARvAAAABULwBgAAUCAEbwAAAAVC8AYAAFAgBG8AAAAFQvAGAABQIARvAAAABULwBgAAUCAEbwAAAAVC8AYAAFAgBG8AAAAFQvAGAABQIARvAAAABULwBgAAUCAEbwAAAAVC8AYAAFAgBG8AAAAFQvAGAABQIARvAAAABULwBgAAUCCl8bJwuG2ceuqp4dCkm2++OfjfnKbzgCJjn24fcd9tAFpHWx15ky8215cbAJj0d0Utvi9qUXdcfXkvC0DjtU3wxpcXAB+1/K6oRd2+dUo5vgeB1tA2p03tL62oUwlmuXqebsiy3Ea1tRHaaV3zVu++K/K2Mtuu5bEOrnpFtXXb9brq8ykDoFja4sgbX14AGiUqcKuW7/eanV+r9gCon7a725TADYBL3kGN1OcbYKWVtl4COKC18KgQAKiDWv3h6FtvrZafZGhoyCuNjY2FcwBI0hbXvJl/ZSZ9gaUpm6csy62mrVF/eVezzq468+rDPLaLb/tq0Tei2v7J2q60fVft+qddnqnaZWdlt7madTDpesw68qg7ax3mfKKadUsiwdgLL7ygRkdHw5x48+bNUz09PeEYgDgtG7zZX1Jx0nyxZvnSjJonSxuzrpfmO3/curnWJ6reuHqSZF3XrO3zXV7cOqVZtsm3zjhRdbja5FLNcnznFdXMH9f+rOxlyzJ8+yyLaut2tTeNWq6baXBwUL300kuqt7dXTZ8+PcyN5lsOAKdN24r9pR+nVmUbwad9je6bqHK1apetXstxaeSybbUMZmqhmdurjwvI0bRZs2YlJgI3wB/BW5tw/ejJF7+ZbD4/lGYZuz5XnfXm074i9U1SPT7tstVq/X00ctnCrMu1LGRXKpWm/D88PKw2bNig1q9fn5i2bt0azAPAjWveLElls3zZ+8xTq3q1PMua0zXfNmeVtf2a7zz17ps09WWtx6cOXSZuGSJNXSKP+rQ0ZX2Y9QmzzryXZaq27kbP70ufNtXXsj377LNBIJd0hE1+kuQGhjlz5qgZM2aEuQBMHHlrA2m/rM0y5rxRavkDkAffdW5039j1+dSv6fanWZ7Jd16zTJr2uZjz13vZNp/lIx19XED/LzcwdHV1qfnz58cmCdqE740OQDsieAMaKC5oIKConbSBIwA0E4K3Fpf3EQpbs//wZWmf9JkrpZV332RpQxb2euuUp7zrS8NcNoEbgCIieGsz5o9xXGpHSeveiL6xgwvdhlq0I6neWi1X6LqTEgCA4A0e2uFH015HCZrs1ChRy84zqGnm9Y+SZb3NeZpxnQDAB8Eb2p79gx71o97IICZp2bIOWYIZUYT1zwOBG4BWQfDWRvSPb5bUqrIGPI2StF3Srk8zrL+9TmlSVrLecckUN63Rmq09AOqD4K2N8EUfr5pgoFGqDWJMjVp/9st0qg1aARQfwVuNNfrLsogBSTMrwo9fLduYV93sl41X623Q3d2tFixYEPwPIF8Eb1Vo5b9iZd1aef1cmm199TbwaVceP8RF2N6+/eEifeSbTHHTtFr0nW+deZfLS0dHR/BQXvkfQL74VNVQvb8so5g/OD5tMss0yzo0g0b2RdKyzelRAUa18l7/VtgvpR26LXm1yadOexsnLdueXqt9BEB9ELyl5PulmfRlGifLvGnmkbK+7W7GL/ks/RPFZ3vG9Vct1WNfq/X6p5kvbjl2fjPulyJrP8WJqjPr/tGovpP3mo6MjKgtW7bEpoGBgYnyANx4Mb3Fp2zUl6SL1OG7/Lh6s7TFnidNu4XPMuPWJ2++65qlfb59I/XF1V/tsl3z+LZNy9Im32XI/NXWF9c+H1HLzJPPOgq77T5tS6o7bZ3N2H8uGzduVNu2bQvH4smpVnnPaWdnZ5gDwMSRtwx8v/wa9SUZJU17mq3tteazvo3qE9/lSrmsbWzk+qept1ZtyKoW7Ulbp295KdfI/pMXzi9cuDC4iSEp7bLLLgRuQIy2OPJWS66/eqv9gsxSZ9p5ov5ab+SXu69a9LlWy7rzUOvtlvf6p62v1uvX6pp9/wWQD4I3AACAAuG0KQAAQIEQvAEAABQIwRsAAECBcM0baiLqwvM0uNAaAICdceQNAACgQAjeAAAACoTTpgAAAAXCkTcAAIACIXgDAAAoEII3AACAAiF4AwAAKBCCNwAAgAIheAMAACgQgjcAAIACIXgDAAAoEII3AACAAiF4AwAAKBCCNwAAgAIheAMAACgQgjcAAIACIXgDAAAoEII3AACAAiF4AwAAKBCCNwAAgAIheAMAACgQgjcAAIACKY2XhcMAgDqRb96B4VH14Jqt6nuPrlc/eWKz+v2L29XmwVE1MsbXci1N7yip2T3T1H4LetXrl81Wb37FfPWapX1qZuc0VSqFhYAmRvAGAHUkX7gDO0bVj8vB2lUPPKOe3TykznjlAvWGvfvV/ot6VX/P9EpB1NSmwRH12PPb1b2Pb1I3PPSi2nV2l3r/EYvV0eVgbmZ3OYgLywHNiOANAOpEvmyf3zqs/u0nT6tvlwOGj71pD/W2gxdWJqKhvvXrF9QnfviUOrMcSP/Z63dTi/o6CeDQtAjeAKAOdOD2T3evVU9v3qE+cdKeat/5vZWJaAp/WL9dfey2J9Vus7vVXy1fQgCHpsUNCx5OPfXUICWxy/nOp6Utn1Yt624Wte7DVtfxkfuChPzJqVI54iaB27++dV8CtyYk20S2jWwj2VayzdB4+nupXb6bfH7HWjZ40yvvSvV08803h0PF4OovSc2oWdtVdGOfOSYcQl7k/IZc4yanSuWI27xermtrVrJtZBvJtpJtlse5qTy/R2v5vZdH3T5Blm8w5iqTNI8tap30NnGlImj5I28SPJlJ1GvjFC1w0+w+K+p6tLM777xTHXjggeqKK65Qq1atUgcddJC64447wqnRCNxqQ+4qlZsT5Bo3jrg1P9lGsq1km8m2gx+fwCpt8CXfSWYSvnXIb33S75frt64IAVzbnTZN2pBJ8ojMfepIKqOnV1vG5FsuimtZccvX06Kmaz5lXJLmS1uvLl9tnT71VOOxxx5TF110kfrqV7+q1q1bpzZs2KC+/OUvqz//8z9XjzzySFgqHfmy1ClK0vS0fJaZhk99acqYkuaRx4HIXaVRNyfo+ZPqyVM9l1UrZvvj1iXLesq2km0m266eqvl+8Jk3S91pyvv8AehTJmqb+cxbjbgYwdV3Oi+pj+wyvvOZzHna/pq3qI6z82WDmnm6A+PYZZLGhc9yksaFT5k4vuV1ObO8DOukmcPCNe4q78oT5nQzXyT1YdK4iz3dVd5VZ9J8rjJZPfzww2rBggXqggsuUJ/85CfVoYceqi677LJg+LDDDlOXXnppME3KSFkX+cK0vzR9xs08c9yeJnzyXNM1u6wWlS/s/Kj5TWZ99v9CT7fzXOQ5bvI4kDj6yIIku94s4uaXaeayisJuq7S/lmSbybarF5/vC/2/b1nNnsc1rv935Sfx3Y/SbLO4svXab81+sdl5UeO+5eLsVEbuNm1Fp5xySpBsdr6rjLDLuMrZeXY517gtrrxWizIuej47xXGVicrTXNNFUhk7z54uXPMJn/miRJW367TL+ZQRrjyTni+p3B//+MfxY445JhyLdvTRRwdlXUp/dW+QNHtcs8vY4qbLuCtPs6cJe56oMi72vJpdX1wZ1/SoPJcjrvjl+ANPbg7HduaazzcvSl5lo6almSePOoRPed/54urSZJvJtovi+9n0LWNzzedbTph5SdOFq4yIyjeZ/enTt1ImrlzStKRlJLVZprvK2Pm+5bSkebPM55qn5Y+8SbRqJlHtqVPTTtFwArt8lrb4zFNNvfK/TiLtOoqk5UdNj1tWUp1ppNkOvsu1y7nmi6orar3T9P3IyIjauHFjODbV5Zdfrq666qpg+KWXXgrK+vL5S9n3iIjPX8u+f5mbdSXV66rTzsvSZt+2ypsT5AG8aUjdetnyvyQzT9PTzHw9bOe7yHTXeuh59TJ1PVH5wjXNHNfs/Lhpmh7W0/WwScZddZr0tKRyQraZbDuXLN+LcXy/Z6L4zJ/me8+UVE73ZxFJn5hJ5NUvUbLMZ8/Tdjcs2B3gyzVf2rp0eXtHScucv5p6XOx1ytpfzSzLdjDL+pTPi2//P//88+rMM89Uq1evDsbvuusudd99lR+lL3zhC0H+W9/61mD86quvVmeddZZav97vdJD+gTOTSX9pR00XZp6U1z+cQv63v/h1PTrZXD8UrrxmIa+8qvbNCXr9zL7TJM9cf7OsmW+K6luTWY8pKl/Y01xlhD3dbIs5TeebeXrYZpYRUetnl4si20y2nUstvhur+Z6x57Xnz/K95yNpH2p20i928mX2ZZo+zTKfXb7tr3mrN3sH8dloNrMOM8Gf3W9x20FPs+epF728uOUODw+rzZvlsQaV5xrMnDlTnXvuueqjH/2ouvLKK9W9996rFi1aFEwrlUpB2aGhoWA8ifzAuZLJznf9EPsyf6zNOl2K/sPhS/pA1lWnPJh9a9fpWoZugy0qPw3dDqHr0ykrs05N15dH/cLns+mr2u8Zcz4zmez8LL8/Uew+rbZvRdY6ZL3sda8Fsz/NlMQ1j6Q4dlmCNwfXDu2bF8cun7SxfKVtR5S86qlGXn0SJ8t2qHW7kupPmr777rsHd5S+733vC8YPP/xwdeONNwZB2z333KPmz58f5Au5aeErX/mKWrx4cZiTjv2Fao+7fjTT8qlDl8n6Be87Xx7rIy9Bl3dppmG2T4alHTrlyVVf1DJc+bpteanHupr1xy1Dtplsuzh5fjfkWZf9PVer3x+7L3V/6v9rpdb1Z5H1NzTLfARvZb4d5yqX54fNl6sddl7SeJSs86VVr+XUk6yDuR6udarleu+zzz5q3rx54ZhSr3nNa4LAbe7cuWFOxZw5c9Ree+0VjiVzBTmuvCSuH/ks9biY9Uqddr1J48KnTFb7LegNXoKeVq1+oLKsW579YZO6815X3zrj1ku2mWy7IvD5vslC6qi2HunjpP3HLqO3nT1fUj31lLXPs8xnT2/Zd5vqFfUJruxOkXkkT8+rh13lTPYy7XERV4ervJD8uDqEax4Xu5zNp26Tq812e4Wdl7QcV73CrMesw86Lm0+Y8wq7vM0ur7mWo8m0pOWKpGX7ksd/LF++XL3sZS9TH/nIR9TKlSvDKRU33XST+vSnP61+//vfq7vvvjt4iK9NfzHawZDN/lG0y0RNd+XbecK1TOFTb1yeKaouky4TVaerDjtPfPj7j6td+rqC92W6JLUvqW2uZQo9n6udpqT5RVR77PyocXvY5jNN6OmSl6ZOVx3CzLfJe2if2zqk/vm0vcOcbKK+P0TS94OIKpP2u8UuEzddT9N5dtk4Uf0dl+cqI8xtpcVtM2mvT1t91yuunNlfmlkuat4s89nz8GJ6oIbkA+f60NeSPKRXArevf/3rQcAm5GaGs88+Oxg/4IADgjyXqC/QZiXtLUJb7/nvTepvbvmjuv/PDwlz2ltRttuRV/xKXXbKXurYffrDHKA5cNoUyIEEaa6/phph//33V3//938fHIWbNm1akI4++uggLy5w04oSuBXJa5b2qV1nd6lv/fqFMAfNTraVbDPZdkCz4cgbkBNX8Fbvo24meRSIvlFBhuV6OLnTNEqRjrqZp1KK0F75lr3tdxvUh773uLrpPQe0/ftNm/3I2x/Wb1crv/SI+uyb91YnvWxu+XMTTgCaBEfeMOHBBx/k/wz/a3agZo/71pMX8w5TGY4L3LSiHHWTdupUBNL1Ry+brc585QL1sdueVC9tT3fnaatp5u0m20a2kWwr2WYEbmhGHHkDgDqQL9rntw4HF8E/vXmH+sRJe7b9EbhmI0fcJHDbbXZ3cHPJor5OReyGZsSRNwCoAwkCJBiQoECCNjktxzVwzUO2hWwT2TYEbmh2HHkDgDqSL9yBHaPqx09sVlc98Ix6dvOQOuOVC9Qb9u4P3qVZ7Wu04EcewCvPcbv38U3qhodeDG5OeP8Ri4NTpTO7pxG4oakRvAFAA8g378DwqHpwzVb1vUfXq5+Ugzl5Cbq8S3NkjK/lWpreUQrenCAP4H19OVh78yvmB3eVzuwsB21EbSgAgjcAAIAC4Zo3AACAAiF4AwAAKBCCNwAAgAIheAMAACgQgjcAAIACIXgDAAAoEII3AACAAmnJ57w9uyMcaFJX3fqcev+KXcKx9rZrdziQQbNv52bGPgig1qr5fkc8jrwBAAAUCMEbAABAgRC8AQAAFAjBGwAAQIEQvAEAABQIwRsAAECBELwBAAAUCMEbAABAgbT1Q3oP/cuHwiGlfvH5V4ZDU/OFOU2TMna+K8/F9wGpdjuErj9uWXFtc9XpI2pesz2mqLbZav2Q3qR26X6Jo+uIWleTlHFNdy1Xi5smoqbb+UKmufJtaR/SG7VM1/LMPD2f5iprcrXdLFPNsqplLkuLa5tImp6Vqy2aOS2qzT7T5X8RN381ouoXUe0SUcvW00XUvCJqeVpU/WlFrUNUnjktaV4ZNtllNbOcWSapfi1qmVHLs/GQ3tpp2yNvekd07Zg2mRY3XSRNz0raZ6Zq2XWZ42ayp2lmnpkvzPxa9Ue1fLZlrenl6/5LapNvm33K1ELScu39wi5vTzfJuD3dLmNKU7ZaSW1zTW+ErMuVNtv0OtVSlvbG9bVrWtL0PPjUpZftkjSv3Wa7vK7bVUaPx9Hzm8NmXWistj5tqndMcwfVzB3VNd2k83U5+H051Iu5HavZRuZ2Nuuyx4WZZ+bb+4o9XdP5UdNFs/Sv8G1L1LpoMl3XJf/b5ZPmN6Upm1a1bau3rPuKrJO5PZpR1LaQ/KhpjaDbkqYffcva65R2vbO0DY3V1sGbuaPKjhu3c0dN03XEzYviqsX2TdqXfNh11PJLV+qW5UlyLSdt30TVk4bv/HksK62o5aXtp7zksVy9Tnmvg+/2kTJS1re8SGprs20nW9p2+PaNb//FaZY+amdtG7zpnU92ZJ3SyuNDkMRsXz2Wl8S3PTKtGT/gcW2OkmU9zD7yWaa9jLTzi0b2tyzbt51xpI6k9WjkeiYx26b7JM02rJVqto9ep3r0u8/2z4O5DN03zbCdbLptecnat83cR+2q7U+b6iSy7JRZPwy+zDbWelk+4tpjfriboa2a2S7h2zZd3uTKczH7yGd5cfXG1eHbnmYm66CTT18Vid52koq6rXS7i9p+H7XaTnH1Sb5Mb5S0bZNxnfLsI2TTlsGb7Hj2zmfvqDbXzmrOw848+eFuNrpdWdvn2l9qzWxr1LKTpudB1232QVx7fNpilzHX1YfM71vepz150m2T/13rWe/2mKpZvu7vWrTf7C+9HJNepi6jh5PElZFp5nJN1fRTFL08kbZ+3/K+ZXQ7tKS2ybidl3YdkL+2DN7snVfE7Yh6mms+ofPZmSta6YMt62KmPNh9E7d/+S4zr7a56HXXKQ+ueiQvqm+qkVebbXFtcy0zj3WpN2mzXpda9aMPWbaZbHH7TTtsJ81cn7zWo9X6qFW09TVvsgPqpPO0uGkuerouXw9mG83l2usmKan9vux6o+g2FIFrneLaHjctibmfmMuL2z5xfZnXdnWRZUbVn6Y9ej118l1XXS7N/GnKVsOnbTJsTtN5eTHr1vUnsZdvt1GSLuOqU5evF7M9Nt0Os706Ccl3TZNk1inD5jSd10xc7THbLMleJxFXJg2Zz6xH56Fx2vohvY2S9gGprazWD+mFG/sggFrjIb2109Y3LAAAABQNwRsAAECBELwBAAAUCMEbAABAgRC8AQAAFAjBGwAAQIEQvAEAABQIwRsAAECBtORDegEAAFoVR94AAAAKhOANAACgQAjeAAAACoTgDQAAoEAI3gAAAAqE4A0AAKBACN4AAAAKhOANAACgQAjeAAAACoTgDQAAoEAI3gAAAAqE4A0AAKBACN4AAAAKhOANAACgQAjeAAAACoTgDQAAoEAI3gAAAAqE4A0AAKBACN4AAAAKhOANAACgQAjeAAAACoTgDQAAoEAI3gAAAAqE4A0AAKBACN4AAAAKhOANAACgQErjZeFw09q2bTAcAgAAaG8ceQMAACgQgjcAAIACIXgDAAAoEII3AACAAiF4AwAAKBCCNwAAgAIheAMAACgQgjcAAIACIXgDAAAoEII3AACAAiF4AwAAKBCCNwAAgAIheAMAACgQgjcAAIACIXgDAAAoEII3AACAAiF4AwAAKJDSeFk43LS2bRsMh4pn34t+H/z/h1X7Bf+3urPPPjMcqrjuum+HQxV6up3frIrW3nbANsnG7rekcVSnXftTr7dgX6qdlj3yJkFTXEL+zA+t5spD48j2iErIX636tlbbq1V+bJP6vVbbxdbOgZuoVz+3o5Y/bSpHvMyE2pAPqHxR2UlPQ3OJ2lZoX620D/isS63Xt90+U/p7XtbbTKiNtrvmTQdw9tE3n6NyeZXRXOWS5tXT48rUW1xwpj+8rjKSFzevnh5XRvjWE0VPjytj85knbZ1F49MHwlUmab6k6S56nrTzNUpSW7Osi54n7XxJkuqsxTLz4GpTVJ7POrjK+Mxn0uWT5kkq41NHvbmCNclztVO3P24d0pQxZZ2vSLhhocwOhFzBUdK48C2jk6aHXXkmO0/GXeUaIe4vLJlmTrc/zK4Pke+4mW+XEfZ0nTR7HnvcxTVPXD16ul2mGUW10863y0SN2/PopLmG7TxzPIpdxmeeRtDtMtvnars93VU+Kl+zx5NE1efKM9nTdWq0pO8kzW5r1Lgr38xLGheucXse83/hM49dplGi2mFvC7ucaz5XGZ1n/29yzWeScTPPHi+Klr1hQQc19qlSO99VLu8yIk1dIk39Zl4jyI4f90Vp0h8S14dZ57nqs+dz1ZO2jGu6kPyoOrLMI6LmqzfdDhe7veb6RE3T7PWzx0VUXtw8IqnuuPnsvHrzaaurTNK6JI0LV70i67jIUqaRpC1p2y/M+XzKaHHz+dTjKuOqJ66ORtJt1Vxtcq2jMNchqUzcdJFUd9z0omj5I28S4JhJJAU79nQZzxIg1TqoqnX9jZL1Q+Saz85LGvcRNY/+4hB5LKfRZH3MddKqWZda9UMR+1dztd3u96T1q9f6u5Zj59WrLb5c+7CpmvbmtZ3i2uiaJ+1y60XaYbZF2ulaN1d77byodYrrKxE1n6lZ+y+Ntr3mzeYK8vT/wjXdVo9gytWOqPYUmf7Q61Qr9nJquaxmIl9WdjKZ4/Y0Uas+cy3LlWez25Nnm+pNr2/adTHL+87T6nz2J7vffPsu63aqVqOWm4a0USdRzzaa/aKTqQj956Ot7jYVrkDHLGMnoeex8+vNXL6dmlnaD4gua38B1IK5DDMhWj23jy+zLWYqKnsdkj4/zbhNmk1UH5p9ZiYfdvmk7ZSXRi23CMy+MZPJzi9i/3HDQpkroMtyNKvWR8DyamctJO389ocnSdryeanmQ9yoNteC9IP+cnP1Sa3W1bWsLNukmu3YaHbbffu6lfa/vOk+9ekj330n63ZySTNvnsvNk2+/RfGdP+362vU2a/+l1VbBmz5ClRQEJQVEcdPT1JNFrevPQu/8rg9ftR/oasnyzTbY7cnSZt86zPykOptJ1PrUi2tZSV+wjW5zO5N+Nvu62fq9mfYdu95m66tqRa2PvQ18+iFrX/nU1Qra7m5TYU9zBUH2fFGBklnOLiPTopblms83z2ROb7SoD4j5wdVlXB9mVzmbLuNbjzDrkmlmGddyzPldy0maR4tbbqO42q7pNuphk50fVY893axH8lz1mvPIsF23ax5h122z52sEu62utgvJj1sfV3nNrtsWtey045rku/I0meYq00hR6yLMtmtmuTTzJs2XdVmSH1ePXb5RXOsnXOtjS1NGT3Otd5a6XfU0O95tirYjH9xGfFgbtdyiiPtCRrGwrwO1xTVvaFnyA6IDgnpq1HKBemNfBxqDI29oaa4flnocEWjUcotM9xn9VCzs60D9Ebyh5Zk/LvX8UWnUcoF6Y18H6ovgDQAAoEC45g0AAKBACN4AAAAKhOANAACgQAjeAAAACoTgDQAAoEAI3gAAAAqE4A0AAKBACN4AAAAKhOANAACgQAjeAAAACoTgDQAAoEAI3gAAAAqE4A0AAKBACN4AAAAKpDReFg43rW3bBsMhP/te9PtwqH38YdV+4RAAAGhlHHkDAAAokEIceQMAAEAFR94AAAAKhOANAACgQAjeAAAACoTgDQAAoEAI3gAAAAqE4A0AAKBACN4AAAAKhOANAACgQAjeAAAACoTgDQAAoEAI3gAAAAqE4A0AAKBACN4AAAAKhOANAACgQAjeAAAACoTgDQAAoEAI3gAAAAqE4A0AAKBACN4AAAAKhOANAACgQAjeAAAACoTgDQAAoEAI3gAAAAqE4A0AAKBACN4AAAAKhOANAACgQAjeAAAACoTgDQAAoEAI3gAAAAqkNF4WDrekpzaPq6/9Zkj9dN2oWrN5TI3VeG07SkrtM6dDHbvHdPWOgzrV/N5yBgAAQE5aOni79tFh9bH7dqgdI41ZxQUzOtRly3vUCcumhTkAAADVadng7du/HVEfvnN7ONZYX33LDHX0EgI4AABQvZYM3p4bGFdHfGVrONZ4fV0l9bN396kZ08MMAACAjFryhoXVvx4Kh5rD1qFxdf1jw+EYAABAdi0ZvN371Gg41Dxu+cNIOAQAAJBdSwZvzw6MhUPN42dPj6gL7xhUg8RwAACgCi0ZvA03X+wWuPF3w+rUawfU/eua78ggAAAohpYM3qY18aPVHt84ps69aZv63M+b67o8AABQDC0ZvBXB53++Q739pu3qiU0t+5g9AABQAwRvDfTAuhF12rUDwdsfAAAAfBC8xVj5sk51wrLaPpxtYHhc/cXtg+EYAABAPIK3CIv7OtTn3tijVp/Sq7qn1/Yiujk9vP8UAAD4IXiLMN3omVq+g2K/edPUlSt6wjEAAIB4BG8eSjU6MHbW/p3q++fMUPvOZTMAAAA/Lflu01eu3hq8ksrXhw/vVqfs26mGRsfV8KhSY+VZ+3tKas/ZlajtvzeMqYHhcqRbHu2eXu60ct43HhlW12R8DZfUfenyHnXy3rzsFAAApEPwVnbnuTPV3nPSHf368dpR9c7vbgvH/B2zdLq69LgetXsf17kBAID0CN7KFs7oUIfs0qGO2H26Ov9Vner5bePqI3cNVm5UkGrK/11xYo/qKsd3q/5zSD3y4qj6+TOjavMO/2VM6yipDx/epT7w6q4wBwAAID2CN8PcnpL6xfl9amhUqZdftSXMVaqnHMQ9+qd9wfBeX5jMT2OvOR3qrnNnhmMAAADZcKW8YcPguFqzeVx1TVPq3a+aPEL2ocO7g/9/9nT2h+l21OquBwAA0FYI3ixXhzch/OVrKwFb57SSOu+VncHwNb8eDv7PYljuggAAAKgSwZvlq78ZVs9sHVdzyrHb59/UGzykV651+6/nx9Ttf8wevL20neANAABUj2veHGZ3l9RPz+tTMysH3NRzA+PqiK9srYxEkJsejlk6LXhm2/zeUnCDgu5ZeQSJ5J3Eo0EAAECVCN4MEnAt6+9QJyybpj70uu7g2jexfvu4+uzPhtR9a0bUuq3j5aBssu595k5THzy0S7153+kT5QEAAGqF4K3sT1/dpVbs3amWzCqphTMmbyz4ydrR4KG8h+06GZU9OzCunto8pq74f0NqZmdJ/euJPVNepQUAAFBLBG9lPz6vb8pDc3+6blRd9+iwuvF3lWvc3n5AlzrnFZ3Bs+B86aXnfY+p1CtbTN72AAAA2g/BW5mcKj1s8TT1wrZx9ciLY+X/x8IpU+02qyM4MicP2l3huH5NXpn14zWj6g8bxtT2kfEgwKpF8CY3rsoDhPfqL6mjlkxXbysHlr1cTgcAQFsgeMvgnnf0qT3C956KXz0/FryR4fcvZX8OXDV2LweVn1reo96wtBgX3V173XVq8+bNavXqq9WmTZvC3GSXXHKxOufss8MxAM1k/qVrwqGKZXOnqwc/sDgcA5AnrtZK6XNv6p0SuD384pg649vbGha4iXVbxtS7vrdN/ejJxrXBx/33P6BOPGmF+vjHL1af/eyqVIGbWLpkaTgEoNlIsAagPgjeUpjX26FW7jf5BTUyptQFt2yfcvdpI33w1u1q845wpMncdttt6vz3vletWTP1r3MArWFOz9Sfk2VzCOaAWmnJ4G20RrHU8j2mnpa8/rfD6tmt7uvjGmFHecWv+a/KGyKaiZwi/fjFl4RjFUcddWRwGvTRRx7eKX3oQxepFStOCktOWrp0STgEoNnYwRuA2mnJT1utnre2//ypFd/++Eg41DzufKL52iTXuJmnSM855xx19erVkdevXfDe95annROONa+HH3lErVp1uXrFAQcGSdYzi7zqaVW/fnZYfeLuTcE1VZL+41cD4RQ0kz2tI239TRLMsf+gFbVk8LZkVm1Wa17v1HtH125pvns91mxpniOB2q233hYOVXzoogvDoWK7//771RfLQajWP3t2OJROXvW0qnueGFSfv39zONY8QQHiNcuROPYftKKW3IvfuKw211rYz1aT1141m6EmvGdh7dq14ZBSBx54oJrtEZy4TpEuWdLcp01nz+4Ph6qTVz2titNzzako17ix/6AVtORefP6ruoLnoOVNnq9mmpb/IqrWbG2S693MU6YSvLWqvK7J49q+eFwIj2qw/6AVtGTwNrtbqStX9IZjaCQJ3ky+pwR9js412uZNU9ctq7zqaVUbB5vvUgAka5YjXOw/aEUte/xY7gz96ltmBA+wzYvczYl01qyZPGUqZve3TvC2yQpMs57WzaueVmX/+O45pxgPo243drDWrMEb+w9aQcsGb+LoJdPUHW+fqT5+TI86ca9Ote+8aWrp7A61Z39H8Eos37RHOS2a2aHm99TmnKS07dR9O8MxAACAaC35eqw4ct1aqRyDpQnDpIPkgbydVqh7wv8dUI9vrO6Q/IcP71Z/9pquYPiG346oD925PRjOqq+rpB66oC8cqy95xIW8PSGra66+Wh155BHhmAoem6EtXbpU3X7breHYzs46+xz18MMPh2MqeE7c5atWhWPJzGUJedacPLLEJG+HyPqQYXl+nZZXPUnkwchr1q51voZMHtci19bZ6+gib8Z4OFyuvBlDrlu8/rprg3Ehjzq59trrymkyT7bXOeecrZYuWaJOOmnnZ/bFec2Vz6gnNmR75M36/z31LRz3PLFD/frZyrMPL/nRRnXI4i5157t3CcaFPEbiK7/aqr7yy61hTuVNAe86pC949MXK/ScvvzDrkjsY7/7jYDDs8vHj5gT//8URs4L/k0g7pE4h7ZH1f/zCJarf+INRHnEhR5FkPWx/eeTs4EiX7/JMetk3PbZN/eoZ93Mipd9W7j8jGI5ahrTvwh+8FI5V+iCuPbXqzzz3nzg3PbZdPblxRH3+gc1q4/apvwPvenVfcG1dlu0B+GjpI28uWV4WL+XtwC0v572yEriJM14+Xc0qB1+okADAV791OjbtHZv2sopw2jaKBFsSzP6vCy+KfA2ZBFoy7YgjjwqCvDhr1q4JykoS5t3Dq8sB91lnnT0lcBMSnEr5L5YDx0aSH1cJdnTA80R5XPuXB7ao47/07JTATcgPv5T/l/KPsiZlz/jG8xN1xQUaQpfb53PrvJ8rpufRgcevwsBG5pd6JDCS6S7yKAy9PAkqfJ1/4/qgD2TeqMBNyLSgTNimatWjP2tFgs4TvvycOv87LwZtsgM3IfuUbm+a7QH4arvgrZkctliCtXAkdOwe7XsnVDV3WS5p4veepglC4/jUI8GUvIbMPAoZRwI7CfJkvij2HcIyj9yIIvPogC7KUUceGQ7VnuvdmgfvOvUDJj+0mwbHg+BBflzjHLusJxzKftG7LE+CLllenIN33fmyCTkaJUGCzO8KEFyknAQVPgGD1H3To9vCMT+HWP2ZVa37Mwufd7PqoDMu0DXp7VGL9qK9td1p0zxVe9r0r4/sVh94dZdat2Vc7RhVau85JfWd342oi+7I/pdaI0+bushRIAkmNNfpyCjm6UUJXOJOm8rrt8yjP2mWI+xTmfLqrqg3QGhp2hcnr3pcwdT7LrhAnbTiJHXgAQeEOZVtcu111+708OTPXb7KeYpTArXDj5gahEn/JgVuIqrONMzTYPID++AHFgfDPiRQ2/vyqTfNyCm4pMBNXPPWBROnTc/85gvBaVT9mImo02H6FKQ+9Wm66z27OoM0Le503/K9eoJg0l6uHIWS0532kas5vR3qFx/YbcppV5MdvK58xYzgtKh5mliTZUiwJctZtWJe5DpIOd/TpvXoT62a/cdk95mQ09XSb2Y75MictNcOjM39CagWR94aSD9M+OsPD6svhe8kPX7P6Wqa/TRgJGr0s9HyOs2atR657swMpiQIvP7669RFF104JXATcl2hXA8oAapJAmD70S5C2mQf9TOXJQGiLMt+P60csTsy5yNvae9glODFPqJi/gDLj68EAXKtk04SdMg1XsuNI2/f/pOF5cBlbhBkRAUaQn7EZboECBJwmeQHPY59lFBI2294+6Jg+a7lnnfIzGCaviZMkyM+UcuTgFau09Lk+qxrTp8fGVjIMmTZcq2gT7Dkox796ZL1DlgJIs39RraL7DcfW96/U58cu6w76M/LT54X5lRcdOtLQd8DeSB4a5B95naofctJPLBuRP3wj5W/DPu7lTp8N25lr7dqgy/7mrusstZj3yhy+eWrdgrabHJkUW7s0OR0aNR7VV3BcVyAKEc95aaGvK8dzPLj63ooa9yPrw5Uoo5a+frY8qkBlRy5imOvmz5KJMFAEmmzHdxEXZ8m+eZp2LxOhdZa2v50yRq8SeBluub0BYmBrAS9ckRTiwuogbQI3qpQkttWM9JH3eTvsEfWj6nnBsbU1uEgS51Qo9d7IVpewVcjSMBlXuMmd5ImBW7aOWefEw5V2KdSNdc1hZdcfLH3chrJfmG6iDv9lxepX05favLjHXfkxQ4yXUFnHPMaPSE3a7jY+VmvP6u3tP2ZFzkdbF7jJkcqffcduWvZlCXgBFwI3qowVsXlgseHAdrP1o2qHSOVeu5+svKlWqt3s7Yy+whPtUd8ljbxDRA2+25ReUSHL/PRLEKCQNepU/vNGHLEzp63WdlHW+RoiM/RrDzYy65loGQHb1HLsl/MLkeDinI6r579qdkBlx2QxbH3MwkCOXWKPBC8ZXTlL4fUU5uzfQgXzOhQr1tcOTV6xxOTfwXfFQZve8wuqf3nc+q02bmCnCyqqUfm/elP7w/HKneGpj0aZl/PJs+Gs9lvxsj7WrY41f5A2z/45rVszSTrKT3N90idrL95BEsu5j/+y8+Wg5TWfKRFNfuPBFrmzSByLWTaI7b2NZfm42qArAjeUnpm67h69/e3q0/fv0ON2m+q9ySv7tLecVCXuuHMmeo75fRnh05ee/LGvTj61uxcz0/Lopp67r9/MnATaV/8L3ee2prtXavm9VnNRu4slLsQJckz0+ZfumZKirp71MU+IpaW7zV6Uu4vj5gajEs75ZEW8viQRj5HLc/+1KrZf+5+YupdvK6bSuLI+tjqcbQQrY/gLYXbHh9Rp147oO55qrq/nMxr2pb1l9Srd+lQh5ST3MSgcd1bOvbRq7yOijU7+yiZPC5F3hbhm+QxLuYjUqLkfeNBPVV7RMsmP8g6sDAfNOvzzLS492rm3c64+uQGB7l2yyan9eRxH7JuEkA9uXE0nFI7terPPNjXB8rDd3Ug6ZNkfbIEnEASgjcPcoDtb+/eoT5w63a1ocrrFXqml9QxSyuB2f97dlS96/vb1XturqR3fHe7uuOJypflIYs61OI+No/WLsFYWvaL//NgnyJFhZxCkyBDfpDTPty2EZKCQXlUh/2IEZMEUIf++9Pqols31CSIK0J/1uIUZ95BOtoTe1GC328YU2++bpv6xiP5vBbmtH2nq5nhJRPXPTqs7n1qJLhRQdJP1o6orzw0uZyz9q/t3XD1sHlz408tItlRRx0ZPJtNkryPFFNJoHHGN91BhgRAkuR5bObz4iTZ1zs1GzkCJ+9QlefdRZGjTRLE5XlNXKv2ZxR5jIter7R3EQMuBG8JPnjrdvXIi/n91Tm/d/K6lJ+u27neXz47mTenyudMNYNNVRwx8zmdF6XZrtuqFwm+zIfl+qarV68Ons0mqcinSGvlwltf2umVSPIQVgkoJACSVK87WPMm18DJ8+5kXYLgIiJAkmvi8roerqj9Kf2jA8k0ST9kWVK1zw8EBMFbgg3x70tO7Yu/GlYf+dGg+qu7BtXazTtfuDowPK4+cOug+ui9O9Rn7t/5Ylf4qSZo9NXfP/ny+2pOX1ZTj/3wXN93mqbVyNPWU+6MzHAaq9oLxOWaLPsIkTzgVx7CmkatjxrlcWpTggt5MLAc9bIf+ivkejjf5UT1e737s5r9xz5KlteL+YFqEbwluOLEHjWrK7+/lOTZcHK69PrHwifyOtz2+LD62m+G1I5RngeU1dq12Y/aCZ/TveYRqmqCm2rqsU9xuu4eLTrzGqFG3Kkn79Y0ySnGWjzgN+qhuo0gR73kaJG8j9MMfoTvg2ajg7f69KdWzf5jP+DZbjvQKARvCY7afZq65W0z1euX1PavZlTHPtVX7YX8PkfuzGXKNXlZA7hq6pGXvptH7mT+qFdcFdWUH986PVXfZP9g2w/DbWXyvlN5G4Up6uiTb2BU7/6sZv+R9bff6tDIR6kAGsGbhyWzSuprb+lVHz68mNe0NJNqrkVb63h4rGa/AUCul6v1qT77lKXr4bY+qq3nggveGw5VrFp1eWxfFY199KPeDzm1g5KiXHCe11FKO4DZVGW99e7Pavcf+5l4l9y9sSZ33wJpELyl8Gev6VLfPH2G2m9e8779oNnOtNoBlO+1aGmDD9cT/2+1XhuVN/sVWvYDc31VW4+8YN4++va/Lrwo1wCukTeA2D/uaU9dVRvE2I92SHPdk9n2pOd9VdtOOyjJK3iz+T6oNmr59epPrdr9R16HZR99O//GFwng0FAEbykdvts09f2zZzTtYzw623SLyqlH+zVPq1df7XX0TU4zmq+YEj7zHXjg1NdQyfKyBEzV1iPrfsnFHw/HKuTGhfPfe8FO7z3Nqh43gESxg4XPP7A51Q9ntUGMfeTG95ovecit+WqlopL1MN9S4HukLOoIXb37s9r9R+4O3enU8TNDlUedtOgrxdD8CN4y6Jqm1D8d36Net5vfl1g97dbCD/ZNCiDsF7LLqdOzzj5Hrb766jBnklzYL/lHHHmU+vjHLw5z03FdbyYBk2t5cfKoR+qQx4SYZP3lCJzug6iAUAI8mS6nWy+8aGodUWp9Strkuu5IfjjlxzyLtMGc/SJyuVPyzG++4PzhljsppV37fG5d8JBbWy2P1viul7T7NVc+E7RTUtQ1YFJOHtBrrofc4bly/xnh2FS+pyPr3Z957D9ShzwmxGS+UkzqimqLrJdM/8Td5c/1jevDXKA6pfGycBgpffmhYXXJfc31l/X7DulSf3tU81ybJ0HBZz+7KhyTAOucnY4SuTz8yCPqrLOmBmPXlOs68sgjwrGdSUAhgUqW58PJUTtzPt922usX5X0XXKAuuujCcGxnedUjgZgEbFlF1S9B3a23Th7Fk0BRnglXL/Lj5/rxtsmdi/LMMpP8YJqPppAfYXkkRhp2Hb7kRebm88zkkRhRd1bKj/vn758MiuVRHXLHpy+5kF4e5aFJoCWP/bDZy0lDHiES9fw1CfTkgb6arPud794lHJuqHv1pqmb/MUkgJgFbVkn1A7448laFc17RqfpyfIxIHi4oB2/NJOu1Ulnmk9OH11y9OtXL2aWsBIUfsgIW3zdDSAAjAU+SpFdO5VWPHIH74e23BcFnFkusmye0eh5pc5FgS374ktjXU4lqL7AX15w+32v52spXzFC/+OBuOx2lijs6ZR85S3uE0Ld8lhs+JBCMC9xc4tpTj/40VbP/mOQInLTD9V5YH76nnIEkBG9VmFH+HP77it5wrPFWvbFXLZrRXMGkfaqzmuevrfGYd8mSJer6665Vl1xycWQwtGJF5RTj9ddfF5SVo3lLrOvl0gQrcqRK6pI6zdOfmrTDdUOFLa96pA/kqKG8OUHqiqpPkwBWl5ObH5qVHLGQIy1y5Mw8DabJj3MtHzthLt9Fli/T5HVTEpzIS9PtYCDNs9zSBm++Dtm1K2hnVD9qErBJGXnWmxzBSwrc0j6nrt79mdf+I+2Q98LKmxOkrqj6NDlaqMulfRAxEIXTpjm468lR9dc/GlQvbqvNl20Sedn9Pxzbo858OX/VAQDQ6gjecvLS4Lj66m+G1T1Pjqj/3jimxmrcqx0lpfaY3aGOWjJNvfOgruBZdAAAoPURvAEAABRI9Il6AAAANB2CNwAAgAIheAMAACgQgjcAAIACIXgDAAAoEII3AACAAiF4AwAAKBCCNwAAgAIheAMAACgQgjcAAIACIXgDAAAoEII3AACAAiF4AwAAKBCCNwAAgAIheAMAACgQgjcAAIACIXgDAAAoEII3AACAAiF4AwAAKBCCNwAAgAIheAMAACgQgjcAAIACIXgDAAAoEII3AACAAiF4AwAAKBCCNwAAgAIheAMAACgQgjcAAIACIXgDAAAoEII3AACAAiF4AwAAKBCCNwAAgAIheAMAACgQgjcAAIACIXgDAAAoEII3AACAAimNl4XDLeW6665T9913n9q8eXOYUx9X7rsuHGpupZlz1LRDTlHTj3tPmDNVo/qv0b633/vCoWJYOLNLvfOQRervlu8Z5kzVKtvxqnlnh0P1UerrVh2HL1XTT315mDNVUfv1e++6KhwqtoVdJfXOxR3q7/aeHuYA7WXaxWXhcMv45je/qW655Ra1Y8eOMKd+TptXjC/z8aFBNfbUQ0oNb1fT9j4szK1oZP812m/nHRoOFcPA0Ki6/6nN5f/H1HF7zwlzK1ppO57We0A4VB/jQyNq7PGXlNoxqjr2XxjmVhS5X3978GnhULENjI6r+zeOlf9X6rh5nEBC+2nJvV7+IpYDiqTkNPKr28Jem0T/FS9949fPhVtvEtux+jTyn0+FvTmJfm2e9I2nR8KtArSXlgze5FSG64NO2jmNDWwMe20S/Ve89MLAzkeB2I7Vp7Gt9GszpxeGxsKtArSXlgzeXB9yUnSyucqQmj/ZXGVI6ZPNVYbUuAS0I4I3z/S1r33Nmd8KyeYqQ3KnTR8/1pnfiGRzlUlKrbyfZ002Vxmf1Mp9u+lNM535USlt+bgEtCOCN88kxsbGnNPySrMuuduZbyafMpKknE6u6WayucrY6etf/3qQXNNaLW2+ePlOSfLHhrZ795eeJ2o8j2RzldEpatude+65zvxmTH1XnB4k37ykZM5jJpurjE76c2EmyR8eHk6cVyc9T9R43mnziX2pxu00NuK/bjrNum3LxHBS/UkJaEcEb55JjIyMOKdVmyQonP2Je4JluKZLkum6zFMbtzvL6CTlrn/7QeqW8w4O/pdxVzmdbK4yZtI/RMI1vdWS6PmTf5ySxga3qrENzwbTXPOYaWxb5Q5kM0+M7dg2Ja/aZHOV0UnIdrTzn3nmGTU4OLhTfjMmzZW3sbx9ZPw3Lz6hbnjzR4O8x8//krr9jE+pb536v4Mk9LCkqD/ObK4yOok3vOENU9LQ0JDaunVrMM01j5n0HaxmnnBtqzzS6PNrgvr1+NjWyjWwY4OT+2Ywvmn9xPhOaWDn/TspjTz0EzX64tPBsBjbXtleWRLQjloyeIvzjW98Y0oyJY3Ls51c8yXp/+S94VCFPT7nH+5Tt7/7kHDM7ckPH5lYxnTY7rPU6/fsV69bMjvMyY/0w4oVK9Sxxx4b22dRw0LGdTJVk6+n2eOmuGlxpu31ajX9ZUdOpFL3zHDKpK2fOD4cqtDjA/+0MvhfxnUSA5ed6pzHLCP0sJ1fCz/60Y9Ud3d3OJbP9jBFTYvKTyLB2Ox/OyMYlv9vPv0TwbB24Pw9VX9XZVst6O1XRyzeX5287LVBEsfsftDEeKlUCvKqtcsuu6jdd999InV2doZTJrnWX3z7298O/rf7Q3/3mOwyQg/b+VFK/QtUzye/rbauqHxPDJy5VPV++vtqYOUuwbjky3Q1a+7EuE62qGkSYNnTtn94heqYv3hifOD0yWHNngfApLY78ibe9KY3qeOPPz74q1i+4CR/dHQ0mKbL2eNCz6eDFj0tLv33+m3BvHp8x0il3tHwr3wJ5H7yvkPVkv6uIF+Xs1N/z/RyIDYrtoykbUOVW+fnlMvL+OzuacG45NtldbK5yphJzJw5U3V1TbZZjlo8/fTTE+MbNmyYGDZPGUm/St8tX75cHXfcceqNb3zjRF/qfOljmaaPNki+bCvJk6TLb9tW6Vudr7eLrlvq0WXN5Uo68cQTJ6YlJTFw6SkTwdPEtPI/IcOj66cewRhdv3ZivOe8y4Phnnf/i+p9/xdV719UflR73vW5IG9s+5ag/6TunnMvK5dfFSS9LBFMK5cNjvqNuI/C2FxldIqaLuRIkQzr/rL3eflftofky3Sdr48u6e1hTpM6ZVjXdfLJJwf51W6XvWfvGvyvx/foqzyTbUpZYzuZyZXnSjZXGZ2E+UeemS9kWD/YV08zx6V/hHwu5A+kt7zlLcH4CSecEOTJkTnZV6Ru6UcpL0kvS8iwlJVtJP2rl+NKqrMcqEsqC8bFbvsE/02M9/UH/0kQ1XPZ98rp+6rnH24Ixiv1BJMr+Z+5uRzsXT8xbWzLRjVwcn85/5YgCOxd/YuJesc2vqB6/+PhYLjnn36gej57e3Dkb2x4qLKsT91USf9yt7GsnRPQjtoyeOvr61MLFy4MktBfcMIuaw739vYG8yxatCgY9zmVsfvsLnXdnxwYHF2T8UWX/kT99E9freRvfMm77V2vUq9Y2Fv+Qt55+a5UKRRdbmikcuu8mScGh6Ov17O5yuikT+tMnz496A8h+cIM5m699dbgx1geaGqeCtqyZUswfPfddwdHee64445gXJeRfOnjuXMrf+nLj76QoxnS7xI0Ct0esWDBgmCaPmIkw5L0kRQpt2nTpmBY6pd0++23B+O6nrgkusuBVve7Px+k0ZfWhdOCSVPK6WFzvDRvSTDcseQAVVq4lyrNrux3Mix5qntm+Yescgp28P/+jRr8j4uCJHQ9Pef/W7n8MtWx7+HliqZNWY5ONlcZnaKm63wJEMScOXOC7SH9f/rppweXDoh7771X3XXXXUFfCnN+e3tIvg5QZB6pS6ZJfrXbpb9rhvrB6Z9U/V84U92y8hNqt5nzgnxXWZ88V7K5yugkJJiSYEuS7O/mNNewOT5rVuUPtPnz56v+/v6Jz9js2bODPDmKNzAwEOTdc889QX9KEroe+SNTyi9evDj4DJjLcSU1u/JZC4bF3MpRt4nxWfMmhgf/5s3ldJoa/PvK0U59ulOU9j9MdRz0elXa+1XBuOSPPvVYMDz4kVNU6dXHTalL/i8t2D0YLi07QHW84nVKzZitxp4M5/nblZX0F8uDcSnvSkA7asvgTb4AZXjatMpRKf2DJMxywhyXgEWGdVCgj1DEpc6OkprfW3mFi4yLpbO7J46QnfSV/1LzPvUTddAVPw/G5/7jj3eqw0zClW8mu4w9biebq4xO3/nOd4Iy3/rWt9R3v/vdiWGZpoM3M8ATOgCTMnI9ldBHDCTAkyMMsi3kSIH88Eh9N9xwg+ro6JioS/8I9fT0BOO6PUJP08sTMq63rwzby5WjFqeccspEPXFJlPp3UaW5S4KkZsyZMq0yHAxO5E+Z5jjyY4+PD1SOVAZBoqR3/LPqfu+/T5RVs+aXo+PeqfNYyeYqo1PUdJ2vPxOyTXW+DOvtoftR0tFHHz1RRujtoU8X6mHZvnLE7dprr1U33nhjkF/tdpH/9dG3ReXt0lEKv9LKk11ld87bOd9ONlcZnYT8gSF/IErSQaqeFjUsXNNc012fIfnc6LLyGdHfVT5JzS7vW2VjA5VAurwBg//GhirLkYBL35TQ/c+3TaSuT16vxrcPTOzfcgQvqLNcXgR1z+xXXf/4HdX9f36utp82T21/27JKfjh9cnhyfGzj80HexHJk/qt/OTHdTkA7asvgzR7XFyoLe5o5LFzTktKS2V3q5nccFARpP3jnK9WMzg41OjYeDOv03f9xYFDnj84/eGI+KW/WI0nYeZJ02c5pk0ebdBJd5TjGzDOTzVVGkj4ao0+LSZIfWyHT5Qda8uSHWU73yA+XBGa33XabOvPMMyfqEXIUQZIc1ZGjdPKDL0drJECQU2dCB8dCz2uPm8NJ40IvV5Ylrzgyy0YlMS7XuPXOqqTOnqnTXMMx0ybG5Z+VV9r9gEra41Vqx9UfnCxrlItKNlcZnaKm63y9rc1pEnTpMrofJf34x5N/cAg9bI5LQCNlZVj2EZ2vy+i6Um+X8r+Fvf3qrjMuU0v7FkzJnyhXyZoYn8h35LmSzVVGJyGBk+zHkuQPCHOaazjNNDNP95l8hn74wx9Glk1MfXNV18XXqsGz91TdX3ooyOu68gE1ePququuS68oBmJyyDKpWpf1fO5GGPnqWUv1Gn+v6wnHZh0pL9lOlfV8d5HV9+uYg3y5vDlfGK99hejkdBx+rdry3UocrAe2oLYM3uSZFp2OOOWbiiI0cQdD5119/fZBnzidHg8z59FGJpDSvd7oaGq38GEogJ3kSwL12976JtKy/corplYtmBNO3DFaOfOg65l/60yCJg7/wYDCsp70wMHlkq7scvH3n7QdMlJck4z3TOybK28nmKiNJ/8WvfzQkyekZIdOlH+UUtJBAToK37dsrj9PQR2MkT67H0f0oaeXKlcGRHunzm2++OTh1JmXktLT0sRyx0WXlgm452qDbJPSwPa7JsCxXgkJzuXIaUJeNS7qOnfIlhdPkVGbne/5VDX7qxCDtuLLywv+gbKk87X/888Q0yet85+Vqx2ffOjEuR/M6z/vcRBlJXRfeUJkW1ONug5lsrjI6CTmKavaHzpf/JegwPw+SZDvJdpV938yXQN2sVw+b47LvyPIkUJfT5bJNJT+v7XLwgr3U9HI/2/mSTrzx74K8eVedMyVfmONRyeYqo1PcdD1NPgtySlWv7w9+8IMp0+QPIj1N8vQfRHpcPhOSp8tIkm1jLiNNUtOmq/He8HKEWXMrefromR7v6FCdn/mBGjxt3kTqun5NcHQumF6m83esXKg6V1Uuhxjb9KLa8bZlauj9r1NDf32q6rzs+xPl5X9JUq+UkXmDvP75quvffjpRn6Sua5+cKG8noB2Vyjt/y+39cpQnivz4y2kGIX8ZyjU9+vSOXHAt16jIuHxByrUlct2IeP755ydOw0mAIkGLPoVnunLfdeHQVH/cMKie2Dioli/rD76gbU9v2VEOwkbUwbtWvkSf2TKkHntxmzpur8rLxjeWg7nfrd+utg2NqunTOlRXOUh77W59QV2/LZfbUs4/bLfK9TLPDwyr3zw3oPq6p6mtO0bVQeWAcFFf5ZSmy8JPPxAOVUT1n9yEID+2M2bMCHMqX8DSN/PmzQv6bePGjUGb5HodIfNIv5lBnvSxvolB/peyEvi9+OKLE9tCxiVf6pLtIDcnyGlU2WayLKlTAkMJCvT1cbL9ZLpellxPJfVJeyVflquvb5Tlyra3t+H39ntfODRp7PEHVWnpgarUObXs+ItPBT98pbm7qfHRYTW+7tFyZjlI7yj/MTC9KyhfWrBHOau8zDUPlct2qtL0blXadV81vuk5Nb7h6eBUU2nu7qo0oz8YH98mp67KH8kd24J6JY098ztVmrVAlfoqP6hRhi5bEQ5VxH0OnnvuuaBPTHIER7aX/kxIH0kfyjaQfpNtL9tETp3K9pD5dR0yr+TJ0VKZX5jjUq8My3bV20jq890uV807OxyadNfaX6tjdjtQdUp/G+5d9xt1yMK91eyuGeqRl55SzwxsKP/x0qlePmeJWtA7eefij9b+l3rtLi9TfdZ2tS344p+EQxVJ/Sp/1Og/CDW55k/2XzmVKuu8fn3l0RuSJ/uy/oxI3gsvvBCMyzTZt2X/lyR5+lSs7Ov6yLT0mT5NK/0sfaevlbN9711XhUNTja/9fXl/Xqc6DgmvLyu3cfwXd5b3+5ep0i57VvJ2lP8QW/cHNS6nU2U/H9iiSgcdqZTcQPO7BytHpUV53tJ+h6hSV48ae/Q/y/tyeb6e8ndGuZxc21bqm6PGHvu5Ki3eK7jbdfz5NWr86ceV6u5Vpd33CU61KmnP4EBQlxrYrEr7HqxKcyrXitqG3rIgHALaR0sGb2ecUbmY1kWOnsVNlx8R+XLVQYRNvijlx8z+ctaigrd6k9OyW8sBXV9X+YehY+dg0bToMz8Lhyri+icvstvJ0TbpR+lPTfpX/3CZZJvItrHLp6WXG7V9XcGbr+CjtKP8gyMBWTlQyyKoY2hbcH1bSV+/5Wn40yeHQxV5bEdpj2wT6Xd7m0g/Sp6dHyVuGyZtF1fwVi8LV789HKqodb/60n2W5jMRFbylMS7Xv40MqVJP5Q9NTQI+JdfNzZhd3v8rf+iKoLwEcDNmpfrsjpf3FTW0XZV6+8Ict+GV7qAOaGXZvjWanHypRaUjjjjCma+TfJHKl6FrmiSZJsGFa1ozJYnX5DEh8r9ruplsrjJ5JyF9Kcx8/UNk5kmSPFf5tEnEbd9qUkCujevIXn+gS45s7twHScnmKpM2CQmoXNtEPgeu/KgUtw1FrbZLtcnmKpM2iah+9U0ij89E2iRHm1V35fKOKfnldVF9c4JTrFPypXw5cEvbTqlHlQNE1zQzAe2oJYM3ud3e9SGXJKfcXPntmuR0nS2u/0jNmRbM2Pm0ONux+lSaSb82c1rQ6X8kD2glLRm8mRe020n+2nXlt2vqfe1pYa9Nius/UnOm8w6rPEvOxHasPvW+vvLAWhP92jzpvD3d1/YBrW7axWXhcMs45JBDgmtB1q5dO3GHZL2cNq/yMNJm19E3V8064d1q1sn/M8yZ1Mj+a7Tfzjs0HCqGRX3d6m+O30998uSXhTmTWmk7ntZ7QDhUHx2zelTfqQepvjMPDnMmFblff3vwzn+sFdGi7g71Ny/vU588IP56OKBVteQNCwAAAK2qJU+bAgAAtCqCNwAAgAIheAMAACgQgjcAAIACIXgDAAAoEII3AACAAiF4AwAAKBCCNwAAgAIheAMAACgQgjcAAIACIXgDAAAoEII3AACAAiF4AwAAKBCCNwAAgAIheAMAACgMpf4/8keCwvjP2+MAAAAASUVORK5CYII=;" vertex="1" parent="1">
          <mxGeometry x="772.23" y="-791" width="369.55" height="226" as="geometry" />
        </mxCell>
        <UserObject label="https://pub.dev/packages/google_maps_custom_tooltip" link="https://pub.dev/packages/google_maps_custom_tooltip" id="kTSnjcyp7PbZxTP0yt8h-63">
          <mxCell style="text;whiteSpace=wrap;" vertex="1" parent="1">
            <mxGeometry x="420" y="-970" width="340" height="40" as="geometry" />
          </mxCell>
        </UserObject>
        <mxCell id="kTSnjcyp7PbZxTP0yt8h-64" value="" style="shape=image;verticalLabelPosition=bottom;labelBackgroundColor=default;verticalAlign=top;aspect=fixed;imageAspect=0;image=data:image/png,iVBORw0KGgoAAAANSUhEUgAAA38AAAHUCAYAAACK85GLAAAAAXNSR0IArs4c6QAAAARnQU1BAACxjwv8YQUAAAAJcEhZcwAADsMAAA7DAcdvqGQAADrfSURBVHhe7d0J/CVXXSD66s7SSchGdrKwBggoYQ0iyBIEnqTZN1lEZRnGhTcz8mbmqaMCjhB1CAwDCD4BCQgIkZ0WEFAUEQERFRGR3UBWEkKWTkhC+vWpvpVUKlW3TtWturfuPd/v53PT9a8653d+59z1l7rLluNPuteubER7HXTz7OaPeFZ2yIOflGW7dmWXf+bPsgve8D+zXddcPWsBAADA2EYr/vY6+LDs5qc9Izv4AY/Ntu67bbZ3j52f/2R2zqv+nyy79prZHgAAAMY0ePG392FHZTd/+O6i78celW3ZZ9/Z3ptSAAIAACzPYMXf3ocdkx32yGdlB933EdmWvfae7Z1PAQgAALAcW2f/9rbPUSdkRz3rBdmtTn93dvD9HxNd+AUH3OVHs2N/8YzdleM+sz2b4w9f/dLs7C9+Jnv1y06f7Vm+01/wK3kO73rL62Z7AACAVC1U/F23dVv2o0/9xezgy6/Ltnzsg1n20R2dLxd/9bxs6/2fuTvawnUoAAAADRaquC4/6uTs0qNvm/3bPgdmH/vCt7O//JdzO1++evZF2dkXZ9l3bvvwbNeWvWaRAQAAGFLv4m/X1n2yy4744Xz7kHvcJzvulJOzXbuuy//u4/sHHb+7ADxtd9z4t40CAAAQp3fxd9mRd8myvfbNsi17Qhz8Q3fNjrvvKQsVgFcfeGx24W23KwABAAAGttfBRxz7gtl2tHDW7+JbP3R36bh3dvu73C777l43y/dvO/yIbNuBB2SXfvNb2ZYtW/J9XV2374HZVbuLwAMu+Vq2ZYFCMvjhO90xu91tb53tum5Xdtnll2d777VXdueT7pDd9z6nZD/+wB/Ljj/umN3F6q7soou/O+txY3c7+Yey29zqlvlcLr30stnem/rRe98zO+G4Y7Orrvp+tvPKK/N9jz7tYdntbnOr7Etf/lq240Mfzfbaa2t2pzuemN3nlHtmD3nQ/bNbHn9ctnV33Au/c1Hevq87n3T77Md+9N75fI69xdH5HC/+7nfzeYVxTv7hO2XfPve87G3vfO+sx40df9wtslMfcL+87R1OvE128EEHZeedf2F23XU3rP2+++6b3fued8vneM0112ZXXLFzdqTeXe58Uj73A/bfv3FtAQCA5er1Uw+XHXm37NJjfyTfPu2pD8u+ts+R+Xbhsm98I/vWx/66dwEY7HPFBdkRX9+Rbf3B1bM93YVvubzX3U/Ofudlr8r++Ytfyl52+guyIw4/bHb0Bv9+9rez5/7XX8s+90//PNuzx19+4B3ZbW99y+wVr3l99rsvf/Vs741t3bo1++YXPpVv/6f//uvZu973wXz79a86I3vogx+QveO9f5q95e3vzl75kt/KbnHMUfmxsnPOOz/7b7/2W9lffeJvZ3vihHm94n/9Vl68VYWC8j//99/IHvygH8ue/dNPyT7z9/+YPe5pz54d3ePww26e/fYLfzX7iYc8aLbnBqGIPetd78te+Dsvy77//avz6/GTH31vdtwtjsnes+ND+Vo1OeigA7PPffxD2bZt+2bPf/EZ2evf9MezIwAAwCp1fttneEvmZUedPPur3kG3vnV23KkPzM8+9XXNzY7KLrzdI7Pr9to229PfCccfl732FS/JC7+Lv3tJXqC99o1vzb781a/nx295wnHZWW/8/exH7nX3/O8h7bvPvtmZr3lZXvhdfsXO7P0f/Ej2B2e+JS9Gg2OPOTp74++/PD/zFiucaXz7ma+5vvD713/7Sj6fd7//g9l3L/leduQRh2evfdVLskMOOig/XhXm+/63n5kXftf+4AfZRz728ew1r3tT9r4PfDj73qWXZvvtty17+lOekL31da/K24fr8cw3n5Vv/8RDTs0LvCaPe+TD88Lv6quvzt6+u4AEAACmoXPxd8Vhd8p27b3/7K/dZp/5qzr4Vidkxz/4QQsVgNfuf0R2zYE3PbPV1VOf+Ji8IHnVH7whO+VB2/MzdC88/aXZgx/xpOyZv/C8vOAJx8OZtAMP3PMW1qE88uEPyWP+4R+9LbvXAx6e/fwv/Ur2m7/9suzhj/up7MnP+IXsOxddnL8l9OW/+8Ls6KNufAa1ziEHH5yfRdxnn33yQvYZP/+87KGPfko+n//7v/16du9Tt2e/99oz87dcPvGxj5j1ukE4U/nql56eF45f+vJXswed9oQ8xote8n+yX3jer2anPHB7frYyOOWed8se+8ifyLf/+B3vyQvFsE6PecSefXWe9qTH5v+++/0fyi6//Ip8GwAAWL1OxV/4KYbLjrrr7K+ZObXdQbc8fk8BOK/RiMpvO/3fv/fa7Ldf+qr8jFTZh//i49mTfubnsmuvvTY/O/dzz/yp2ZHFbNl6w9hnvuWs7Dde9JLsip03/qzcJ/72M9ljn/rs7Mqrrso/a/effi783uF8z/nZp2ZHHXlE/nbMJzz9OflZu7Lwls3Tz3hl9sr/7w2zPTdeh1AIh88BhjGfsbvw/ea/f2t2ZI+w/5d++QXZxz/56fzv5z7nGfm/4YziB/7sz/PtJz/uUfm/VeEzlne64+3z7Te97R35vwAAwDR0Kv52Hnr77Lp9bnxmbFfL5/ryAvDUUAAuX3HWMZwhe/mrX5dv1/mXf/1y9rZ37nmL4uMfvT3/d1HhS2aCUEyFYqzJN/797PysYPCYR/xf+Re2zPOE2dm8t5z1ruvftlrnjFf8fn5GMyiffS3OBn7wwx/Lzv7WOfl2VWj/6te+Md++w4m3zU683W3y7Te//V35v6F4DF/oUvXkJzw6//ffvvK17B/+6Qv5NgAAMA2dir8rD731bKsk4ktd9hSAD1zR+b8s+/Cf/1V+Zm+ej/7lX+f/Hn/sLfK3TA7l45/41E3O+FV95C/2nL0LZ/+OOfqmXwpTCJ+1C58RDD700b/M/20S5hvOapaFt4re4653ybcPOuhm2fOe+5zGywPuu+cLfYKTbn+7/N9wpvLr3zw7337aTz4u/7cQ3g4aPu8X+JIXAACYnk7FX/1PL8SFuL4AXOAzgF0Vb3e8IOLnFMo/uXD0UUfMtvor3vYZM/a5518w28pqvxG0UP5M4AUXfme21ez8Cy7M/y3W4egjb5hX+IKZX/rF/9B4+blnPX3WMsvfZlp489vfmf/7+Eedlu299w2/x3jawx6cF6fhTOc73/uB2V4AAGAqOhV/B1zyldlWWXwxd/1nAJdYAAZbS5+/i1EUS13zvG72Vs+y8GUubcKXsBTmjlk6tlfL20ODctyg/Nt9Lzj9jPyzjjGXP/2zj856Zdnb3/m+/ItfDrv5odlDT73hG0qf/Pg9b/n8k3fvyAtAAABgWjoVf/tf8rXsZhd+fvbXHrsavu2zSSgAjzv1AUstAG91wvGzrWbh9/wK4UfRgyLHvfZuLrSOafiGzmJ6Xcf+1jnnzrZu6tvn7MkriIkbfqA+KOYRzhYWBeAVV1yZffLTn426hB99L4QvfvnTD+0pBn/y8Xu++CV8c2j4+YngDW9+e/4vAAAwLd0qt90OPedvspt9Z7Ev8zh4d1Fy/APvd/2XooylKHoeurvYvPmhh+TbTR6zfc/PF4Qfeg/fpBkUZ7BucfSez9nVud99TpltVc4wzsYORVH4HOE8j33Ens/KhW/eLBdaVSGfz3/hi/n24x99Wv5vkzDfH9+9xmXhjF34wffgcY/aM+Y84fcC6/zR2/a89fPU+983PwP41Cc8Jj9b+vf/+Pn8y14AAIDp6Vz8BYd++69LBWC3t1QWDrrNbbJj73fK7hqp7nOEwwpfRnLGi59/k7dBFsJv2Z36gPvm23/8J+/J/w2Kn0G4973uVvslMOEtnc95xtNmf9W/7TMURf/7d17Y+C2eD37A/a4vxMJv6RVCruFtleF3Ast9i2/cfPhDT82P1Ql9w5jhC16qwreEBqEonfd7fc/66Sdnn/6L92cvfv4v3+izfUE4Gxi++CWM85TdhV9xBvBNb/XzDgAAMFW9ir+gKACvvvL7sz3dHXKHO2bH/cg9llIAhkLqd3/zf2T77bdttmePR532sOxlp78w3/67z/3T7gLsvfl28NGP7fkG0ONucUz22lf+r+yIww/L/w5udsAB2avOeHF20h1OnO1p9iP3unv2yjNelPcpCwXna17+2/l2+NmGPzjzLfl28CvPe272+t97afZ7Lz09e9HuAqzw1t3FaTg7Gfyf3/2fNykAw/zOePFv5EVlnfBlLB//m0/l2y87/fl5kVf+XGIoVn/qJx+XPf+Xn5cXfSFe3Telvumtf5L/+19+4dn5F8KEn5V43wc/nO8DAACmZ8vxJ91rofdenvCzv5ldcvKDZn/1873PfTo75x+/tLvwuGktesQ3PpRt+943Zn918663vC67191Pzs+W/cRDHpQdftjN88+sfenLX82Ph2LuxNvu+fmKcCbryT/789k5552f/x2EQmjHWWdmd/mhO+V//+AH12X/+uWvZJdddnle9B16yMG7i7F3Z6fe/37ZMUcfmT33v/5a9p4dH8rbvv5VZ2QPffAD8i9ICWfZTjj+2OzyK3Zm//wv/5ofD32LwvE7F12cPf6n/kP2tW/8e/538LpXviR72I8/MN/+28/8ffbEn/6P+XYQitG3veHV2a1uuedzf1/ZXTh+5+Lv5ttFXuHto+GLWp759Cfnb/V83NOenR8Pwjr80Wtfkf8oe3DueRdk3zx7z1nO8FMStzzhuHw7jPsz//G/ZDuvvDL/uyx8s+c/ffIj15+VfO0b35q98PSX5tsAAMD09D7zV/jWmc/Psk/s+QxYX4fc/d7ZcXc9Kdu287xsv53n3uiyJVv8rGD4rNxpj3969pGPfTz/LNx9TrlHfikKvz/9sz/PHvWTP3ujwi8Inxl8zn/+f68vysIZsh866Q5533322Tv/IfVffcGeM3dNwhmxRz35Gdn7P/iR7GYH7H/92EXh9+d/9YnstCc8/UaFX/CaP/yj7Kqrvp+fdXvF7//hbO8e4QtpHvPUZ+V5B+FH2Iu4hxx8UPahj34se8STfuZGP19RdtHuQvFxT3129paz3p1dc801+c9LFP1D4RfWK5yFfMozf7G28AtCAfz+D9xwpu/MN5812wIAAKZo4TN/hSOe/Lzs0Ic8ZfZXP2e/8GnZ98/+t9lfiyvO/L3xrX+S/Y/f/J18Xzizde973T0/e3bOeeflb/U8+1vn5MeahLc/hreN3umOt8+uvvrq7Itf+kr2N5/6u84/aRC+QCUvsI4/Ljvv/Auyf/j8F7Kvfv2bs6P9hLN/97jrD++e1zH5N4V+6u/+fu6XxlSFs4DhbanhzOTVV1+Tf87x05/9XH6WEgAA2ByDFX/BUT/z69nB99/z5R99DF38vfutr8/uebe7ZG/643dkv/rC+WfoAAAANtnCb/ssu+BNL8ou/fgNX5gCAADANAxa/GXXXacABAAAmKBhi79AAQgAADA5g37m70a2bs32O/GutT/f0OT73/hidt33h/uiEZ/5AwAA2GO84g8AAIDJGP5tnwAAAEyO4g8AACABij8AAIAEKP4AAAASoPgDAABIgOIPAAAgAYo/AACABCj+AAAAEqD4AwAASMCWXbvNtgEAANhQzvwBAAAkQPEHAACQAMUfAABAAhR/AAAACVD8AQAAJEDxBwAAkADFHwAAQAIUfwAAAAlQ/AEAACRA8QcAAJAAxR8AAEACFH8AAAAJUPwBAAAkQPEHAACQAMUfAABAAhR/AAAACVD8AQAAJEDxBwAAkADFHwAAQAIUfwAAAAlQ/AEAACRA8QcAAJAAxR8AAEACFH8AAAAJUPwBAAAkQPEHAACQAMUfAABAAhR/AAAACVD8AQAAJEDxBwAAkADFHwAAQAIUfwAAAAlQ/AEAACRA8QcAAJAAxR8AAEACFH8AAAAJUPwBAAAkQPEHAACQAMUfAABAAhR/AAAACVD8AQAAJEDxBwAAkADFHwAAQAIUfwAAAAlQ/AEAACRA8QcAAJAAxR8AAEACFH8AAAAJUPwBAAAkQPEHAACQAMUfAABAAhR/AAAACVD8AQAAJEDxBwAAkADFHwAAQAIUfwAAAAlQ/AEAACRA8QcAAJAAxR8AAEACFH8AAAAJUPwBAAAkQPEHAACQAMUfAABAAhR/AAAACVD8AQAAJEDxBwAAkADFHwAAQAIUfwAAAAlQ/AEAACRA8QcAAJAAxR8AAEACFH8AAAAJUPwBAAAkQPEHAACQAMUfAABAAhR/AAAACVD8AQAAJEDxBwAAkIAtu3abbcPG2L59+2wry3bs2DHbAlhvYzy2lWMGU3/MrOYbLCvnZY9dN17geQ3oy5k/AGDyQiHUVAzNOzaEVYw9L+ZYYwKbT/EHAExabKEzRlG0irG7jAnQhbd9spHKT4jeHkMK3Obrbdq6xM6n67yL9lNco/JcgrocY9r0sYqxVzlfYPM58wcAiQvFwxQLiNgip7q/2q+PVYzdd0yAWIo/AGByYguhwiqKsMJQY5fjtI1ZtshcgbQo/gCASYsthLoUTLGWPXaIExNrjLm2ufrqq6Mu11133awHMDU+8zdhdf8nb9EH+6b/O7hI3GXF7BKv3D+23xjziNFlrkOuS9mic1w0r2CZ67/MsWItmlO5/5TWvi52U9wubWNNbV0WjRk7n0Xm3UXdfIYar+8cqjn1yWeVY3fRN8+uQjF34YUXZj/4wQ9me+Y77LDDsv3222/2FzAlir8Jqj551Cke5GMf+GNiBos8yTUZOmbM3GPXJRhjHlV1+bSNWx4vJsd5+Q0xxz5zCObFDIbILdaiY9WtQZu2PovkFNs3GHrssro5tsUux4zJoy2HsqmsS9lQMctxqm0XmXds3OJYzFhtc5mnGr9rrHnzabPKsbtYNM8urrrqquziiy/O9t9//2zvvfee7W0W2w5YPm/7nJjqg3mT2HZB17Yx7VcZs8vYbbrOYyhd1iN23KZ2XfIeo+28dmPlVmeZY8VaZU5dxx4616JNbNwu4y+i6zxj2o8Rc5Vi8xtqHmMWNW1WOXYXY+dZnCcIZ/MOOuig1ovCD6bLmb8JqXuirD6gz3syrXvwj4kZxLYLVhWzrk1hXtuhx2yKN09T7m3jhePz5lLXviwm/5g2QV27wlAx+7ZpM1Q+5eOxeczrEzO3eW2qx+Zp6xczdhDbLqi2rZtLeV9M+xhN+dQpx6zrVzdmbLtg6JjldtXjdTGazOvbJW5M27p5tJmXT4xF+q9y7BhDrXEXxZm/4u2c11xzTXb55ZdHfbZv27Zt2YEHHjj7C1g1Z/4mKjyQ1z2YN+2P1dR3SjFDv7q+TfuHsKoxq6r72l5EzGsflI+H7aYYdftjdIlZ94KlrCmHpv191eVW6JrzkPrMv5hLtU15f93xqqbjbf3mqetb3bfo7btJ6Fdcysr7645XNR1v6zfPGDELIUZxKSvvrzveR1Ocuv3LvB9torB+5UvVENdnVxdddFH+xS5twvmFSy+9NNu5c+dsD7Bqir+J6PrkGPNgX43Z1ifmCXsZMdvEzL1NecyYeOU2XfOtM2/MumNd25eF421tgnKbmDl2jVnVZR2LOcSMWbWK21eMZc2/qjpuW8zq8UVvG3XHurYfwxjrsoy1XoWY6ySmDYtb1joXbxIr/g1n/Pbdd9/s8MMPn3s59NBD8/axXxQDjE/xN0FjPJjHxuwy9ipjsv5WcV13uc0Wl7GsYv5VXdYjJWOsi7VmDFP9HwTAdCn+JqDvg/e8FwljPCFMKeYiL5BW/WTZNfchXwyGuddduuqb07yx+uTRZoyYY1lGrssYY5W3775Sv+11McZ9n/nCmlcvZdYW6ELxNzHVB/UhpBwzRnjijLmss7Y5jDnHeddr9ViRxxi5rOr2Nc8y5181xfWYgjHWJdW1dhsbT91jB0AMxR9zjfGEsglPUus0h2qu4UVD9bJKTeOHvIvLJlvH+W/6ddLXGOtirWmy6sduYD0p/mCDlV84ziv05h1bhrbxwzw2+UVw6vMHAJZD8cdcYxQEY8Tsq3jR3ecydetYLLSt8aYXQOsy/7rcGGddrPVqb/dTf8wp3z42/fERGIbib2LGePBOOWabVJ4sV/kCcpE1DnkPlfs6XtdDzr8qldt+V2OsS6prveh9v69F13uVYwOMTfE3AX2faOY9yYzxgnFKMVf1omKTdVnTvus/xNp3GXvV1/Uit9MmbvvDG2NdNnWtV3nf72OV10OfscP6dlnjMR5j6mzbti074ogj8n+B9ab4m6AxHsxjY47xpDNGzFUIubXlN9X8p5hXsZ4xucW8iIqJE7sOMbnFxmoSM0ZhrBewsXNYdK7LMGSOY6zLJq31KqzDdTLk2F1iFcYsdLdu3Zr/qHv4F1hv7sUT0fVBO+aJoRqz65NNXU7LiNkmZu5tymPGxCu3qWsf9hX7Y+JNTZ+cY/rExm1rVz5edxssjtfFWfQ221eXOF1y6np/qVp0PRYdf2ghvyLHtrnMM8a6bNpaF2LWOaZNm7HWL7Qr2jbFXOXYhUWPA9RR/E1U+QmirGl/rKa+U4oZ+tX1bdo/hHmxq/tjXpCNlWcXMS9e5s07RlP/uv3VfGJfXDXtbxLTPnasMXMea/5B1z5Djr1q83KewrqMEbPNGLFDzLq4dfurt/Uu+t5PuozZFHMVYy9jzCFs2bIlu/baa7PLLrts7uWKK664vj0wDVt27TbbZgKaHujrhAf7cvumB/8uMQttTySrjtk295h1CbrOoylWNU7ffApDto+dY+gXG6fats28OXSJE7TNr2msRccpdJ13uX1dzKHyCubFqvbrOm4Qsybz8isM2b46j7p48+baFi9G2xyGjDlvLar6zrvtWJf5tOUYq8uYwbxxq7HaclzF2EOOOYZLLrkk27lz5+yv+cJbRQ8//PBsn332me0BVsmZv4mJfQDv8kDftW1M+1XG7DJ2m67zaDJkTkOLya1P/rF92tp1iVPXdqg8yua1HXq8Lu1i28boEmvosYc0dF5jrMsYMVcpNr8h59FlzLa2XfNaxdhDjjmGQw89NDvyyCPzL4Fpuxx99NEKP5gQZ/4mrO7//FUf5MttYp4Amv5v4iJPHsuKuejc24wxjymJWdN55q33orELy7oOhhpnqHkXVpXXstZ91aawLqtY667zrir3r/ZbNHYfqxizkNp8gc2j+Ftz856UN13Kc18F6w1pct8H2Bze9gkAAJAAxd9EhP+zWlxibcr/jU157gAAsCyKvwmKKYK6FErrJOW5AwDAmBR/E1E9exUKnKYip7p/3c98pTx3AABYFl/4MjFNRc88m1IApTz3dVC+fqw7pMN9H2BzOPM3MV2eWEPbTXoiTnnuAAAwNmf+JqzpTFgKRU/KcwcAgDEo/gAAABLgbZ8AAAAJUPwBAAAkQPEHAACQAMUfAABAAhR/AAAACVD8AQAAJEDxBwAAkADFHwAAQAIUfwAAAAlQ/AEAACRA8QcAAJAAxR8AAEACFH8AAAAJUPwBAAAkQPEHAACQAMUfAABAAhR/AAAACVD8AQAAJEDxBwAAkADFHwAAQAIUfwAAAAlQ/AEAACRgy67dZttsgO3bt+f/7tixI/+3SbVdbL+hhPEWGWvZ+fZV5Bk05RrTBgAAFuXM3wSEF/9Nl2VSeAyn7vqr+7utDQAADEXxNyGh+CpfgmUVAwq/4dVdn1V1bRSAAACMQfE3YU0FQ6y6M0tdFTHmxVlmmzpDxB2qTZuib1OMrtd5XT51+wrFsabjQezxRWIAALB8ir810vRiuro/FBDlfTEvxOvatP0djNmmrl1ZzDzb/g6GalPWVMSV988r9ObFL46V24Tt4lIobwcxf1f7x/Qpq/ap/g0AwAqFL3xhtU477bT8UlXdX9cmqLapa1fdV23X9neh2qaq2q/6d6Frm6qYPk3Hq22a2hVi2sSoxmzSNF6h7njTvkLd8aDapmroGAAArI4zfxNSnCUpny2Zd3aoq65nYOrGjj1zVRbTrqlN15zLFsmvui82VpNF5hGrLceYOVTz7LMObTEAAFgNxd+EhBfJ1Usfdf36xmoTXuiXL1MzVH7VOF1iFW3Hug5iVfMv8ioU+TUdD8rH6trExAAAYDUUf/RWvLAPL/iLy5QMmV85RvnSppxD1bILo2ruxaWsur+aY/l4+VJW3b/seQIAUE/xt+bqXljH7uujrhgY06Lx+/ZvW6+Y9Sza9Mlh7HUNqnPoc90OEQMAgOVQ/K2Z6ovrJnXtur4Qb3thHysmzlBj9dEnv2BejsWxpjUv9seMPZSuc6gzRAwAAFZjS/jWl9k2K1K8eO5zpiX0CfvKxUSxr6wauzpm9e+gGiNoilPVFifoOlZZXb5B2D/G2H3zq9N17KqiTzVOXc5dx6q2aTsedI0BAMBqKP4AAAAS4G2fAAAACVD8AQAAJEDxx1r67Gc/6981/BcAgNXxmT8AAIAEOPMHAACQAMUfAABAAhR/AAAACVD8AQAAJEDxBwAAkADFHwAAQAIUfwAAAAlQ/AEAACRA8QcAAJAAxR8AAEACFH8AAAAJ2LJrt9k2K7Bz51WzLVidAw7Yb7YFAMCmcuYPAAAgAYo/AACABCj+AAAAEqD4AwAASIDiDwAAIAGKPwAAgAQo/piERz/6kfllk2zinAAAUvHtc87PvnPRd2d/bQa/87diMb/zVy4g3vOe9822YL7idhNzm/E7fwAANzjn3POzc8+/MNuye/vku9wp23uvvfYcWHOKvxWLLf6qL+C7FIRNbZviFvvK/QrV/oV5fQqhTdOYhbpjMfuC6tjzxinUxQmKtn3z6dK/UD1WxAiq+2PaBfPGK1P8AQDsEc74nXfBhbO/suxuJ98522vrZrxh0ts+11Dxgr64lF/8V3VpW6fcN1wKTXHL++r+rqqLU82x+vc8bbHKx8Oljy759BXGKOfZNGZsOwAA2p1z3gU3Kvz222/bxhR+geJvgxWFQdmUCoSm/Or0ybkp1hAUWQAAm+W88y/Mzt1d/JUdeMABs63NoPjbAF2LnDGKoqFjlourRWKHvl0LtaIoberblk9b/z7axizEtgMA4Abfufi72bfPPX/21w2uvuaa/Gxg9fL9q6+etYi3ffv22ssyKf7WUFFUFJcxlccpjzVmDnUFTDHeoso5LxJvqHyaxK7vmNcDAMAmKhdx1157bb7ve9+7LP+36tLLLs/PBlYvX/v62bMW3ezYseMml2VS/K2p8KK/uIz5or88TriUlfevS+FRzjlcpqyc57z1jW0HAEB2oyLummt/kO/r+h2YO6+8crYVZ9ln+Joo/tZMeHFffYHf9UX/ogXCEDnME+KEeFV9xujbPvxb3q5Tl0+X/k3KfQtNY8W0AwBgOlZZCCr+1kxdUTTvxX5dwbCorjnMs4xCpS7feUL78qWrIfpX1a1TbDsAAIa1bd99Z1vdFIXfKj7vF/idvxUb4nf+gqYio61omBdnkb5BON62L2aMmLhBTKyqtrGCol84Vtem2Bfbv6roU+1fbdu1XVBt28Tv/AEAqfjsP/zzbCvL7nzSidn+++2XfeVr38y+d2n95/7qHH/sMdnRRx0x+ytOKPbKn/Erir9lfu5P8bdiscVfIeaFPATF7UbxBwBwg0WLv61btmR3vcudsq0D/P5ftSAcm+JvxWKKPxib4g8ASMWixd+RRxyW3fL4Y2d/LWbZxZ/P/AEAAETq+nbPIBR5xds8C9W/l0HxBwAAJGpL/t+9994r/7fNIQcf1PvLXoKi4FtF4Rco/gAAgKQde4ujs/22bZv9VW/ffffJTjjuFrO/uqn7opdgmW/5DHzmb8V85o8p8Jk/AIDN58wfAABAAhR/AAAACVD8AQAAJMBn/gAAABLgzB8AAEACFH8AAAAJUPwBAAAkQPEHAACQAMUfAABAAhR/AAAACVD8AQAAJEDxBwAAkADFHwAAQAIUfwAAAAlQ/AEAACRA8QcAAJAAxR8AAEACFH8AAAAJUPwBAAAkQPEHAACQAMUfAABAAhR/AAAACVD8AQAAJEDxBwAAkADFHwAAQAIUfwAAAAlQ/AEAACRA8QcAAJAAxR8AAEACFH8AAAAJUPwBAAAkQPEHAACQAMUfAABAAhR/AAAACVD8AQAAJEDxBwAAkADFHwAAQAIUfwAAAAlQ/AEAACRA8QcAAJAAxR8AAEACFH8AAAAJ2LJrt9k2K7J9+/bZ1g127Ngx2wIAAFicM38AAAAJcOYPAAAgAc78AQAAJEDxBwAAkADFHwAAQAIUfwAAAAlQ/AEAACRA8QcAAJAAxR8AAEACFH8AAAAJUPwBAAAkQPEHAACQgC27dpttM4CdO6+abQEAAHRzwAH7zbaG58wfAABAAhR/AAAACVD8AQAAJEDxBwAAkADFHwAAQAIUfwAAAAlQ/AEAACRA8QcAAJAAxR8AAEACFH8AAAAJUPwBAAAkQPEHAACQAMUfAABAAhR/AAAACVD8AQAAJEDxBwAAkADFHwAAQAK27Nptts0Adu68arbFUE583pfzf7/y0tvn/1a1HefGnvjEx8+29jjrrHfMtsZVjNs2Xmy7PkLsZc13aFNYv1WY2nw2bX2XZax1a4vr+urGeuE2MA0HHLDfbGt4zvxNQCheigKGadm066Z4UC+r27dqnnQWsy7rF257TZcyt4d+6tZyCGPEXETT7aPIc93uD03ajg/F/e0GxZrXXcYyZuxYbgObTfEHiQhPKOEBvXopjk1FkRP9rOP6lW+PxaVQ3oaqebeP6m1p6mJyHXs+67Rey1TclopLMKXnzSG5DWw+xd+aKc5EzTsbFdOmKrZPbNzYeIWu7WPExIxp0yS2X9/4Q5r3JNX0RBb+Li7z1LVp69d2vE7Rp0u/2D6x7cra+rQdL9S1aevXdrxO0adrv6mKnU9dm7Z+bcfrFH269luVtlz7zKXo06VfTJ+YNlWxfbrGXYa6fJr2xeRf1yamX1nRfl6f2OOLxJiKRQukMedZxJ4XP6ZNVWyftjYxcdqOsxif+RtYn8/8FYVB22fWmgqIcr+6NmPFDWLaBPNyaItdHG+KUXd8kXyr45aFY31jl48vW3gQ7fJkVfegW+5fxIt5cC4Xl019qrGDun1V5TZVsX3a8qkTO4ey6vHwd1OOZUW/eX3qxq7bV1Vuswp1uVbFzqd6PPzdNO+yot+8PnVj1+2rKrdZhWquTXPsMpemvnX96uK2jVU+HgwVNyjahONhu9quOvaqFPmVVffVzbF6vDrH6t9lRd/ieNtYQRGvLm65f1AXI3aMVSryqsujmHt1u6yuTRGzUO7XdCwmflDtH1T7tbUpjrfFDYo2RR7Vdn3HrqrGScGYn/lT/A1srOKvrk11X0ybqiHjxu4ri+nTNUbfmGP0C8r7V6V4YI5R17Z4QC72V/8OmvbN6xOU2wTVdrH9yvqOVVgkdl3fap+6GE375vUJym2CarvYfqtQ5FanKf+Y+dS1adoXEzdoajevX3XfssXkWtembS5tfwd1cYPy3137FMp9h+gTNPVbhXKuQTW3plzL/WLaFOb1a4tTd7xrjOp2oW7fss3LPZiXf1DeXxeraV81Vmz8un5BuU0wL/4QfYK+ceYdT4kvfKFWtagIfw9RaMTEKY6Xi5w6ffIZYg5VMTFDm0XyrVuLMeYytkUeZPv2LZ4UmjTFndcvNpc+Odf1Kfb1iVfo23eM9Zuyvuu0yHUzzzqvb13u1bzb1q3Pusb2qWvXN58hHi+Wpe99OsZQ129TjnXtY/LtmtcyhdzKl2CI/IacY2ysunZtfZuOV6+zsj7jBNWYMX3oRvG3ZkKBUb4U+wp1x9vEFkZjqss7Nv8mbTH7zmkdC7quyk9y8x7cu+r7ZDCm6lyHmO/Q8QpTXL8hhDlUL/NU13eoNa4bty2XTVPMt+valtuP2ScFMbfD6trFrl/f63dR5fHqxl1VXrFCftXLFJXXb2prGFTzq+ZYrGvTcYah+FsjoehougRFYVPdP3XlfKuXvupiFRduqvwgW/w79Se5oZTnWb70ldr6rUJ5bcsXhlFd07YXYH1u8+4ncZrWvrxu5UuMavu263cI5THLl7Lq/mXktUnW4T5Vzq18KavudzsYnuJvjZTPWhXq9nUVE3eIcZqMMa++c4oZd9HcVqXtAbT8AFx9MB5KXQ6LPLCPkWfffMr9Ul6/VVhkDcqs703nGzuHPnPtuz59r5N1uz6KecbkHbsmfa/fOov0reYxZF5TEXud9FUXv++69c110esphdvBFCn+JiQUFXWXsvLf1WNVbcfLYuLWtRnqTFrM+F3FxOwyblPbYnvKZxWLB9C6B/i+D/p91Y3X9gDf9gRRJ7ZP3f62+LGxx1A31hjrN2V1+Q81J+s7LX3WdhOuj663uWCseQ6xnsvMd1XGns9Q8atxYuL26VOnrl/fWPTn2z4Htsi3fTYpioq6dtWCoynWvMKkb9ymNnX7Fxm/KW6h7nhbzCCmTVBuF453iV0Xb5WaHmSrLzTa2hXHy/3Cvro45T5huxq7rk9QjV1V7VdV1ydoGq+sT+y2fIOiTXG82qcut3KfsF2NXdcnqMauqvZbhbq8CuV5B13m09SnOufyvmK7GruuT1CNXVXttwrVXOtyD8L+efOpa1+oxq6aN3Zbn6CuTd3xRfsEYX913yo15Rn0nWNQ7dvWb95YTeOE/bExCtU21eOr0DS/OnX5l9ehKVa5TVCO07Q/qMYPqm0KbW3qji/aJwj7u8QJqm2qx1Phpx7WSJ/iD4B6TS8qhrascQCgjZ96ACBZCjIAGIbiD4BJqnuLEADQn7d9DszbPgGGEYo/Z/0ASI3P/K0RxR8AANCXz/wBAACwEMUfAABAAhR/AAAACVD8AQAAJEDxBwAAkADFHwAAQAIUfwAAAAlQ/AEAACRA8QcAAJAAxR8AAEACFH8AAAAJUPwBAAAkQPEHAACQAMUfAABAAhR/AAAACdiya7fZNgPYufOq2VacE5/35dkWm+4rL739bAsAAOodcMB+s63hOfMHAACQAGf+AAAAEuDMHwAAQAIUfwAAAAlQ/AEAACRA8QcAAJAAxR8AAEACFH8AAAAJUPwBAAAkQPEHAACQAMUfAABAAhR/AAAACVD8AQAAJEDxBwAAkADFHwAAQAIUfwAAAAlQ/AEAACRA8QcAAJAAxR8AAEACFH8AAAAJUPwBAAAkQPEHAACQAMUfAABAAhR/AAAACVD8AQAAJEDxBwAAkADFHwAAQAIUfwAAAAlQ/AEAACRA8QcAAJAAxR8AAEACFH8AAAAJ2LJrt9k2MDHbt2+fbWXZjh07ZlvjW9W488iJZSquW9crLE/bY6r7JSzOmT8AKCm/AC1vA6vjfgnDUPxNSHgw63IBAACIpfhbY4pAAAAgluJvAygCAYYTPk9Uvqyb4jnB8wKbZN3vlzAVir+Jqj7I1V0AAABiKf7WWLUA9H95AQCAJoq/NecMIAAAEEPxl7BVnikceuyx5jJU3CmelZ36mg1llfkMPfYUb0exxsi9S8xlrd2q5zmkVY0bbNI6Busyn6FirnKtx7RJt6EpXEebejuZOj/yPiHlO0HXM3oxfWPuZG3jVsepi1kXY4ixy4aKV51PMC92bI5j5reItrzq1qBt3KHm2iY2p2XlE9Tl1DZ+l7GHmEs1x7qYdTH69isMkXtQzSNoil2NNy+HtrHrxq0zxDy7zDGoixeTRzD2XGJ1nXPQdewh5lPNsy5mXYwhxq4aYz7BvLixOQ4137r8yuYdj8mhzry8hppXjLq5tY3fZeyh5lLNsy5uU5yhcmAxzvwlIuYOF8S2C4aOuap2hdC+rU9MzC75xbYdwpC5F7rMdRm65DNGTjExu+QYo8s8+s65a78uuXfNf1778rG2uF3GbRIbo8tYoe0ycq/qMpdVjd9l3C7ziTV0zCnMp619TLwuucW2nYJVzysmZpccY3Sdyxhtu+ZAd878TUj5xr7I/82p9u16PBjq/9rExG7Lr6wtXpe5BE3z6Rszpm21TWx+89q1acur7nghdq5t8wyGmkNdnJjx2nLuqm7MoBy3zzq05dklZlOOZXV9h+zXln9T7kGfeFXl9rFjl9vVtWmLE5N3oSn/eXkHbcfrxMwlaJtP01xizcu3y7zrtOXaJea8PAtd823Lr6ot5hDzGTJetW21TVOsoNy2rt2843W5xGgbp7DIvGLMy78cOya3sqHnMi/PQlv8YJEcWIzib0LKN/wuN/p5/brcmWLaVtsEsTEXbTf0XIK+MWPiDZ3fvHjz9J1joa79IjGHmEdbTsvIJ6jGCprixY7bJb+Ytl1yLBui36K5B33bBTFt+7SJzSmIads3Xp/c68S275Jnm2qsYIixu+QY03aRPIduFww9n0VzHHoebfFix5tnFfOKUY0VDDH20HPpmmcwdA4sxts+11zdnbBJ252oz51sqDtmOU7MnLrOZYiYZXXxyvu65jeWap5j5DWFuU5l7efF7jPuGHPpO/+YfmNfD136zGtbPlZ3X+5i6Hl2ab9o7sE63HeCPmOvImascpzY67HrfNridplLXayp3Ha6iMl5KvMaYuxlzKWt3zreTjad4m+Nle9QQfVO0+UO18fQMUO84lLVZy5j5DdPU+5TMVRuY9+u+pjC2g8x/lTvs7H9Qrsx8o6xrHFXffsfesxVXmeFPuOXr4fCVO8/TYq1b4rbZz5D5tgWa17uU1R3m6kzhXn1Gb9ufmPPJSb22DnQneJvosKduO0ytqHHWEbOUxD7IDfVB8Ox8xrzdrDua7+oqdzHUr8e5pnq4+A6XGdjj+05r591uO1Ur4uYXNZhXkPnOOZc1mE9U6H42wDhjjLUnWXsO114AE7lCbGLTV+TKT+Yr/vab8oT5SbfBzblOqrahOvMc95qrHJNxrzON+m6nsJc3HfG4QtfJqTrjbztAWyIO011jHLM2AfQmDy6zKXrA/e8vl3jdmnfNu/Qvy1e1/yq+vaf169tXjHGnktbjqF/37Up6xqjrX1b3jGqcfvOc+j1qRPidlmTtjyGbNt0vLy/r+p4XfIO+uYeo21+Id4i8Qt9Y8zr15Z7jHkxY/OMySMmVt81Cpr6do3ZpX3bvEP/tniLHq/Tp0/ZEPOK0TdGl35DzGXRuQ6RA4tx5m+iwo297bIuYvINd/S2B4R1ETuXTZnvlFj7aXA9rB/X2XA859VbxXzLY3Z93TTleXU1hblMIQf2UPwlongy6noZUkzcdb/T1+UfM+91VZ5bl8sYNm3ty7l3uaxaSveB8ry6XKZmE6+zcv5dLkOKies5bzyLrO0m3SemMJdNWs9NoPhjJcp3+uodf5EH7KpyrLEfYKp5182t2Fd3jP6s/TS4HtaP62w55q1h9TpYVDnemNfXlG87dbnF2qT7xBTmsknruSkUf0zCpt3ZY+ZTfUBkGNZ+GlwP68d1tjye85ZnkbXepPvEFOaySeu5zhR/3MgYdzp35PXiNrBerO30uY6GsS6PTa7v1Sqv/yKF3zpwW6MPxV8iujxAhLZDPKCU4ywar/wAHhtriDlskjHWo0vM0NZ1Es/aTp/raBh91qXtRf0qrptynCHied7rrjz/dS78+lyPm17oMhzF3warPhC0PZgM/aQx5gNR17lM7UFx6LVuMsZtYNW3q0VNLZ+ydV/bLtY193W7joYcf8y5DLGOq75uquMPret8xs6ni6HXus4yxqgac8yu1/eiVrF+VVPIIQWKvw0X+2RY3T/Gk0YYo278pv1VdXNpile2iifAebnV7R9TzG2ga15Tul1VNc2laf/UTHltu2ha76b962Tq11FdfuVLk6bjbf2GEjv2vHWc0nVTl3vQtL9O03VZVd03xnzmmZdX3f6hzRu77TJPU5uYvkOIHTvm+m7KuWn/GKaQA37kfVLKN/yhH7i73Knmjd0nx6536La4Q80l6DqftvZdc+sSLya/eWJzi8mr0HW+i+iyVm26zHGerjG6tO86nyZ95zlEvzYhbts4XfIYsm1MrHKbNvPy6ZJ3sGhu1T5d59E13zpdxiyLHa/rnJr0mWvXucXEXdV82tp3zatLvC7Hu+RRtYx5xeg7h7bxhp5Ln7kOnQOLceYvEbF3njHuZCHmkOOvci5tYvOfcm5dxLZfxnxj57eMXIYwpbXtYtOuh3mmfB11GTOmbWgz1jxiY3cZP7btGHOKnU+wqnZDiRkvtFl2Xota9bxiYw/ZJqZdX1PIgRs485eoVf9flWL8Icae8v8hWofchsxrSvOd8tr3sa7z2bTrYZ5Nmesy5jFvjDHGX/V1U4y/KfNpMtW8FrWMec0bY8jxp3AdbertZF0o/gCApfLiD27MfYJl8bZPAACABCj+AAAAEqD4AwAASIDiDwAAIAGKPwAAgAQo/gAAABLgpx4AAAAS4MwfAABAAhR/AAAACVD8AQAAJEDxBwAAkADFHwAAQAIUfwAAAAlQ/AEAACRA8QcAAJAAP/JOUrZv3z7byrIdO3bMtgAAYPM58wcAAJAAZ/7WQPlsVRNnseJM8cxf3fW7SG7VeG4bAAAEzvxNWHgRH1P4BV3aAgAA6VH8TVTfQk4BmDbXPwAATbztc4LqXsC3vXWv2sdb/eqV12nKb/sM+uTX57YDAEAanPmbmLoiLubFe7VNU0HB5nKdAwAwj+JvwrqesXGGBwAAaKL4m5DymZu+hVy5X58zQWOcPRo65qrOcC1j3EWvv0WNNeaQcVd1/QMArDuf+ZuQ8ovaRc7ihTix/WNeSHfNZRUxi3hta9h2vGyMedSp5tQlx0LfGEPNsW68tth95tYkNhYAQMqc+ZuImBe4sYZ8UR10yW3omKFdTNsuOcYYeh5T1GWOXecZ036oNkHX/AAAUqT4m6BlnMWoe7Ecxi0uVX1fqC8Ss+l4U8yYHGNU45THq44ZDDVuoTzG0LELdXHb5hlr3vpVzZtf1xzHWisAgE2h+EtQ04vzsq4vrseIWRUbcxF186iqG7PLPIZWHrvPWtTNJ1h0jnVx6/bFxK3rF9TtAwCgnuIvcW0vnvu+UJ8nJmZ1X9eYQ1jFmIVy7K5FV5tyvLHmuMy1G3OtAAA2ieIvMV1e+Bfa2o0Rs6xL20X0mceq9V37MefXJ/aiRVsxpzHnBQCw7hR/ayi8UI69sDzrtt6xhdJYBVWXuG7LAACLU/yxMVZx1mfMMcuxp1L8rDKPMLYiEACgP8UfUcYoRKZY3BSKQiPmsirlsRcpQqvzqV5WpWlOU8kPAGDdKP7WUHhRPO8CMWKLp1UWWDG3aUUgAEAcxR/UKBfTXS5DK8ccssCpizXmPBYVk5sCEABgPsXfRJRf1E7xRWw5p6GKgzFipmKRtavevkL/aoxiX92xVZuX2xTvOwAAU6H42zApv/jd1LmPWXzFxJ76uo65PgAAm0TxN1HOYNxgymux7Nw26XYRMxf3AwCA4Sj+JmTRt7DFtC+PERu/rd3YMWPEjhurS7zQdujx5ymPNcWzXn3Wou62X8RZ5toCAGwyxd/E1L0IjlFu16UgaItfPR4Te6yYTXHbxovVde2HGjdGl+t0SH3nuOjarWq+AACbTPE3QXVFSHEpq9sf86K5KX5Vdd+82MuIGRRxy5fCvFix6uZRp7p/iLG7GmLM6hoWmvZ3ERs3Zh5N+TTtBwDgprbs2m22zcR0fVFbfhFd9J33wrpL/NhCY1Uxi1jltnXx244XxphHk745xbZtW4c2of+Q8crmzSHoGrctHgBAypz5m7AuL2T7vOiN7TNGHl1jNrWfd2wRsTHHGLvJkGPFxApt+owZ22/oHGLbAQCkypm/NdN2BmYRY8QeM986Y4237Hks26Lzm9d/6LUr4m3i9QAAMCbFHxtl04u0qbLuAADT522fTFYoKMpFRRsFCAAANFP8MUnlQq5LAQgAANRT/DFJ1TN3bQWgAhEAAObzmT8mra6oKwrDpoLPWz6Xr3xdWH8AgGly5o9JqyskQqGh8AMAgG4Uf0xeTEEX2ij8AACgmbd9AgAAJMCZPwAAgAQo/gAAABKg+AMAAEiA4g8AACABij8AAIAEKP4AAAASoPgDAABIgOIPAAAgAYo/AACABCj+AAAAEqD4AwAASIDiDwAAIAFbdu0222YFLrzoktkWAACQuiMPP3S2NTzFHwAAQAK87RMAACABij8AAIAEKP4AAAASoPgDAABIgOIPAABg42XZ/w9UprStZbENcgAAAABJRU5ErkJggg==;" vertex="1" parent="1">
          <mxGeometry x="772.23" y="-1100" width="472" height="246.81" as="geometry" />
        </mxCell>
        <mxCell id="kTSnjcyp7PbZxTP0yt8h-70" value="" style="edgeStyle=orthogonalEdgeStyle;rounded=0;orthogonalLoop=1;jettySize=auto;html=1;" edge="1" parent="1" source="kTSnjcyp7PbZxTP0yt8h-67" target="kTSnjcyp7PbZxTP0yt8h-69">
          <mxGeometry relative="1" as="geometry" />
        </mxCell>
        <mxCell id="kTSnjcyp7PbZxTP0yt8h-67" value="&lt;div&gt;Request&lt;/div&gt;&lt;div&gt;&lt;br&gt;&lt;/div&gt;&lt;div&gt;method: DELETE&lt;/div&gt;&lt;div&gt;&lt;span style=&quot;color: rgb(51, 51, 255);&quot;&gt;url/api/v1/chapter&lt;/span&gt;&lt;span style=&quot;background-color: initial;&quot;&gt;?&lt;/span&gt;&lt;font style=&quot;background-color: initial;&quot; color=&quot;#ff0000&quot;&gt;${id_chapter}&lt;/font&gt;&lt;/div&gt;&lt;div&gt;&lt;br&gt;&lt;/div&gt;&lt;div&gt;&lt;span style=&quot;color: rgb(51, 51, 255);&quot;&gt;&lt;br&gt;&lt;/span&gt;&lt;/div&gt;&lt;div&gt;&lt;br&gt;&lt;/div&gt;" style="whiteSpace=wrap;html=1;" vertex="1" parent="1">
          <mxGeometry x="2620" y="665" width="194" height="205" as="geometry" />
        </mxCell>
        <mxCell id="kTSnjcyp7PbZxTP0yt8h-69" value="Response&lt;div&gt;204&lt;/div&gt;" style="whiteSpace=wrap;html=1;" vertex="1" parent="1">
          <mxGeometry x="2657" y="940" width="120" height="60" as="geometry" />
        </mxCell>
        <mxCell id="kTSnjcyp7PbZxTP0yt8h-71" style="edgeStyle=orthogonalEdgeStyle;rounded=0;orthogonalLoop=1;jettySize=auto;html=1;entryX=0.995;entryY=0.599;entryDx=0;entryDy=0;entryPerimeter=0;" edge="1" parent="1" source="kTSnjcyp7PbZxTP0yt8h-21" target="9jWAlJ0byO7zGb7Tsrd4-3">
          <mxGeometry relative="1" as="geometry">
            <Array as="points">
              <mxPoint x="1180" y="1080" />
            </Array>
          </mxGeometry>
        </mxCell>
      </root>
    </mxGraphModel>
  </diagram>
</mxfile>
